<svg width="64" height="64" viewBox="0 0 64 64" fill="none" xmlns="http://www.w3.org/2000/svg">
<circle cx="32" cy="32" r="32" fill="#FFDBD5"/>
<path d="M27.6442 27.8702C28.0986 27.7304 28.5466 27.5906 29.001 27.4889C29.705 27.33 30.4091 27.2093 31.1259 27.1585C32.0859 27.0822 33.014 27.2474 33.9484 27.4254C34.422 27.5207 34.8764 27.6541 35.3372 27.7939C35.414 27.8193 35.4844 27.8511 35.5804 27.8384C35.5804 27.5143 35.5932 27.1902 35.574 26.8662C35.5612 26.701 35.542 26.5294 35.542 26.3642C35.5356 25.1886 35.5356 24.0194 35.5292 22.8438C35.5228 22.399 35.4844 21.9479 35.4908 21.503C35.4972 20.4927 35.4972 19.476 35.5548 18.4656C35.6188 17.2774 35.6956 16.0891 35.9581 14.9199C36.1309 14.1446 36.4125 13.4139 36.9245 12.7975C37.3341 12.3082 37.8589 12.0286 38.5053 12.0096C39.779 11.9778 40.7646 12.4925 41.4942 13.5219C41.9679 14.1955 42.2815 14.9516 42.5695 15.7078C43.0879 17.0677 43.4079 18.4783 43.7023 19.9017C43.8943 20.8549 44.0415 21.8144 44.1631 22.7803C44.2335 23.3331 44.2719 23.886 44.3103 24.4388C44.3871 25.5127 44.3679 26.5802 44.3615 27.6541C44.3551 28.5564 44.2655 29.4588 44.1951 30.3547C44.1567 30.8186 44.1183 31.2825 44.0671 31.7464C44.0095 32.2229 43.9327 32.6868 43.7983 33.1507C43.7343 33.3667 43.7535 33.532 43.8943 33.7289C44.8672 35.0634 45.5712 36.5185 45.9488 38.1262C46.1856 39.1365 46.2816 40.166 46.2048 41.1954C46.0768 42.9492 45.52 44.5696 44.5599 46.0502C43.3759 47.8739 41.7695 49.2274 39.8494 50.225C38.3133 51.0257 36.6749 51.5149 34.966 51.7818C34.0188 51.928 33.0652 52.0042 32.0987 51.9979C31.2411 51.9979 30.3771 52.0169 29.5194 51.9407C28.4762 51.8454 27.4394 51.6802 26.4281 51.4006C24.7641 50.9494 23.2088 50.2695 21.8008 49.2718C19.9895 47.9882 18.6071 46.3679 17.7622 44.3154C17.423 43.4957 17.199 42.6442 17.0902 41.7609C17.039 41.3288 16.9942 40.8904 17.0006 40.4583C17.0198 39.5559 17.1222 38.66 17.359 37.7831C17.7558 36.3279 18.4023 34.9935 19.2919 33.7798C19.4519 33.5637 19.5095 33.3794 19.4263 33.1062C19.2343 32.4898 19.1511 31.848 19.0999 31.2062C19.0231 30.3166 18.9591 29.427 18.9079 28.5374C18.8695 27.8956 18.8375 27.2474 18.8503 26.6056C18.8759 25.195 18.9463 23.7906 19.1319 22.3927C19.3559 20.7087 19.6759 19.0439 20.1175 17.4045C20.4119 16.3178 20.7831 15.263 21.2952 14.2527C21.532 13.7824 21.8392 13.3503 22.2168 12.9691C22.972 12.2065 23.9064 11.9269 24.9497 12.0159C25.5577 12.0667 26.0313 12.4099 26.3961 12.8865C26.8313 13.4457 27.081 14.0938 27.2474 14.7737C27.4138 15.46 27.4906 16.159 27.561 16.858C27.7722 18.9549 27.7594 21.0646 27.7082 23.1679C27.6762 24.4896 27.7082 25.8113 27.6634 27.1331C27.657 27.3809 27.5674 27.6096 27.6442 27.8702ZM39.1198 14.2654C38.6077 14.3226 38.1597 14.5577 37.8269 14.9834C37.4877 15.4092 37.3021 15.9112 37.1549 16.4322C36.9693 17.0867 36.9437 17.7667 36.9309 18.4275C36.9053 19.584 36.8605 20.7469 36.9693 21.9034C37.0141 22.4244 36.9693 22.9519 37.0269 23.4729C37.0781 23.9431 37.0461 24.4197 37.0845 24.8963C37.1357 25.5635 37.1677 26.2371 37.2125 26.9107C37.2509 27.4444 37.2189 27.9782 37.2701 28.512C37.2893 28.7153 37.3469 28.8488 37.5389 28.925C37.6157 28.9568 37.6797 29.0013 37.7565 29.0267C38.2301 29.1919 38.6525 29.4651 39.0686 29.7384C39.811 30.2213 40.5278 30.736 41.1486 31.3778C41.347 31.5875 41.5134 31.543 41.6158 31.2761C41.6863 31.0919 41.7439 30.9012 41.7951 30.7106C41.9295 30.1959 42.0383 29.6748 42.1087 29.1411C42.1663 28.6835 42.2175 28.2197 42.2879 27.7621C42.3327 27.4635 42.3135 27.1712 42.3519 26.8725C42.4095 26.4531 42.4287 26.0274 42.4543 25.6016C42.4863 25.0488 42.4095 24.4896 42.5119 23.9368C42.5247 23.8542 42.5247 23.7525 42.4991 23.6699C42.4607 23.5428 42.4607 23.4157 42.4607 23.2886C42.4671 22.5134 42.4479 21.7445 42.3455 20.9756C42.2751 20.4292 42.1919 19.8827 42.0639 19.3425C41.8079 18.2115 41.475 17.1058 41.091 16.0128C40.9694 15.6633 40.8222 15.3266 40.5918 15.0406C40.2142 14.6022 39.747 14.3353 39.1198 14.2654ZM26.2873 19.8445C26.2489 19.1837 26.3321 18.3322 26.2361 17.4807C26.1785 16.9533 26.0953 16.4449 25.9161 15.9493C25.7433 15.4791 25.5193 15.0406 25.1225 14.7102C24.7001 14.3543 24.2329 14.1764 23.6888 14.348C23.0872 14.5386 22.6584 14.9453 22.3832 15.4981C22.2616 15.7396 22.172 15.9874 22.0824 16.2416C21.66 17.4998 21.2888 18.7707 21.0455 20.0733C20.8919 20.893 20.8087 21.7191 20.7767 22.5452C20.7319 23.8161 20.7447 25.0869 20.8279 26.3515C20.8279 26.3832 20.8279 26.4087 20.8343 26.4404C20.9175 26.7772 20.8919 27.1267 20.9367 27.4698C20.9751 27.7494 20.9815 28.0417 21.0263 28.3213C21.1096 28.9187 21.1672 29.516 21.308 30.1069C21.3976 30.4818 21.4872 30.8567 21.6088 31.2253C21.7176 31.5557 21.9032 31.5939 22.1656 31.3587C22.172 31.3524 22.1784 31.346 22.1848 31.3397C22.5752 30.9266 23.0104 30.5708 23.4712 30.234C24.1753 29.7257 24.9049 29.2618 25.7177 28.9441C25.9097 28.8678 25.9929 28.728 25.9929 28.531C25.9993 28.1625 26.0185 27.8003 26.0377 27.4317C26.0761 26.5993 26.1081 25.7732 26.1721 24.9408C26.2041 24.5595 26.2041 24.1719 26.2169 23.7843C26.2425 23.1107 26.2745 22.4371 26.2937 21.7636C26.2937 21.1917 26.2873 20.6134 26.2873 19.8445ZM31.6315 45.9485C31.7147 46.0883 31.7851 46.2281 31.8683 46.3552C32.4443 47.2702 33.2828 47.7658 34.3516 47.8802C34.7356 47.9184 35.1132 47.8484 35.4268 47.5943C35.7213 47.3528 35.9517 47.0478 36.1117 46.7047C36.1373 46.6538 36.1565 46.5903 36.1629 46.5331C36.1693 46.4568 36.1373 46.3996 36.0605 46.3742C35.9965 46.3552 35.9389 46.3742 35.9069 46.4314C35.8685 46.4886 35.8365 46.5522 35.8045 46.6157C35.702 46.8254 35.5676 47.0033 35.414 47.1749C35.1836 47.4354 34.8956 47.5689 34.5436 47.5625C33.5964 47.5434 32.8476 47.1304 32.2843 46.3996C31.9579 45.9739 31.7723 45.5037 31.7915 44.9381C31.8235 43.9278 31.7979 42.9111 31.7851 41.9007C31.7851 41.7419 31.8363 41.6847 31.9707 41.6148C32.4443 41.386 32.8092 41.0365 33.014 40.5472C33.174 40.166 33.0524 39.8292 32.6875 39.6322C31.9643 39.2509 31.2283 39.2509 30.5115 39.6513C30.1595 39.8482 30.0571 40.1787 30.2107 40.5472C30.4155 41.0365 30.7803 41.386 31.2539 41.6148C31.4075 41.691 31.4523 41.7609 31.4523 41.9198C31.4395 43.0191 31.4331 44.1248 31.4267 45.2241C31.4267 45.3639 31.4267 45.5037 31.3755 45.6371C30.9467 46.6856 30.1787 47.3337 29.0586 47.5434C28.521 47.6451 28.0474 47.5117 27.7082 47.0414C27.5866 46.8699 27.4714 46.6983 27.3818 46.5077C27.337 46.4123 27.273 46.3234 27.1514 46.3806C27.0362 46.4378 27.0554 46.5458 27.1002 46.6411C27.1578 46.7682 27.2218 46.8953 27.2922 47.0097C27.721 47.6769 28.3098 48.001 29.1226 47.8484C30.1531 47.6515 30.9403 47.1113 31.4587 46.1963C31.5035 46.12 31.5227 46.0184 31.6315 45.9485ZM20.7639 38.679C20.7575 39.2509 20.8727 39.5496 21.148 39.7339C21.7624 40.1405 22.5048 40.1024 23.0104 39.664C23.5672 39.181 23.7976 38.5456 23.7464 37.8275C23.7016 37.1222 22.8632 36.2898 21.9544 36.8426C21.2248 37.2874 20.8087 37.9483 20.7639 38.679ZM42.4799 38.8252C42.4671 38.7362 42.4607 38.6155 42.4351 38.4948C42.2943 37.7576 41.8911 37.2048 41.2446 36.8299C40.963 36.6647 40.6366 36.5821 40.323 36.7219C39.9006 36.9125 39.5742 37.2175 39.4974 37.7068C39.395 38.3422 39.5678 38.9078 39.9646 39.4034C40.355 39.8991 40.8798 40.1215 41.5006 39.969C42.1983 39.8101 42.4479 39.5496 42.4799 38.8252ZM43.4015 45.0716C43.4015 44.9127 43.4015 44.7538 43.4015 44.595C43.4015 44.4997 43.3695 44.4171 43.2607 44.398C43.1583 44.3789 43.0559 44.3853 42.9983 44.487C42.9663 44.5442 42.9279 44.6141 42.9279 44.6776C42.9215 44.9953 42.9215 45.313 42.9215 45.6308C42.9215 45.7197 42.9599 45.7896 43.0495 45.8087C43.1519 45.8277 43.2479 45.8341 43.3183 45.7324C43.3759 45.6498 43.4079 45.5545 43.4015 45.4528C43.4015 45.3321 43.4015 45.1987 43.4015 45.0716ZM26.9465 16.0954C26.9465 15.9938 26.9465 15.8985 26.9465 15.7968C26.9465 15.7015 26.9145 15.6189 26.8057 15.5998C26.6905 15.5807 26.5817 15.5934 26.5305 15.7142C26.5049 15.765 26.4793 15.8222 26.4729 15.8794C26.4601 16.1082 26.4729 16.3306 26.4153 16.5593C26.3769 16.7182 26.4857 16.7944 26.6457 16.7817C26.7737 16.769 26.8377 16.6991 26.8825 16.5911C26.9529 16.4322 26.9529 16.267 26.9465 16.0954Z" fill="#EB9385"/>
<path d="M39.1198 14.2655C39.7406 14.329 40.2142 14.5959 40.5726 15.0535C40.803 15.3458 40.9502 15.6825 41.0718 16.0257C41.4622 17.1186 41.7887 18.2307 42.0447 19.3554C42.1663 19.8955 42.2495 20.442 42.3263 20.9885C42.4287 21.7574 42.4415 22.5262 42.4415 23.3015C42.4415 23.4286 42.4415 23.5557 42.4799 23.6827C42.5055 23.7654 42.5119 23.8607 42.4927 23.9496C42.3903 24.5025 42.4671 25.0553 42.4351 25.6145C42.4095 26.0402 42.3903 26.4596 42.3327 26.8854C42.2943 27.1777 42.3135 27.4763 42.2687 27.775C42.2047 28.2325 42.1535 28.6964 42.0895 29.1539C42.0191 29.6813 41.9103 30.2024 41.7758 30.7234C41.7246 30.9141 41.667 31.1047 41.5966 31.289C41.5006 31.5559 41.3342 31.6003 41.1294 31.3906C40.5086 30.7489 39.7918 30.2341 39.0494 29.7512C38.6333 29.478 38.2109 29.2111 37.7373 29.0395C37.6605 29.0141 37.5965 28.9696 37.5197 28.9378C37.3277 28.8616 37.2765 28.7281 37.2509 28.5248C37.1997 27.991 37.2253 27.4573 37.1933 26.9235C37.1485 26.2499 37.1165 25.5827 37.0653 24.9091C37.0269 24.4326 37.0589 23.956 37.0077 23.4858C36.9501 22.9583 36.9949 22.4373 36.9501 21.9162C36.8477 20.7597 36.8925 19.5969 36.9117 18.4404C36.9245 17.7731 36.9437 17.0996 37.1357 16.4451C37.2829 15.924 37.4685 15.4284 37.8077 14.9963C38.1597 14.5578 38.6077 14.3227 39.1198 14.2655Z" fill="#FAB6AA"/>
<path d="M26.2874 19.8445C26.2874 20.6134 26.2938 21.1853 26.2874 21.7636C26.2746 22.4371 26.2362 23.1107 26.2106 23.7843C26.1978 24.1655 26.1914 24.5532 26.1658 24.9408C26.1018 25.7669 26.0698 26.5993 26.0314 27.4317C26.0186 27.7939 25.993 28.1625 25.9866 28.531C25.9802 28.7344 25.9034 28.8678 25.7114 28.9441C24.8985 29.2618 24.1689 29.7257 23.4649 30.234C23.0041 30.5644 22.5688 30.9266 22.1784 31.3397C22.172 31.346 22.1656 31.3524 22.1592 31.3587C21.8968 31.5939 21.7112 31.5557 21.6024 31.2253C21.4808 30.8567 21.3912 30.4818 21.3016 30.1069C21.1672 29.5223 21.1032 28.9186 21.02 28.3213C20.9816 28.0417 20.9688 27.7494 20.9304 27.4698C20.8856 27.1267 20.9176 26.7772 20.828 26.4404C20.8216 26.415 20.8216 26.3832 20.8216 26.3515C20.7448 25.0806 20.7256 23.8097 20.7704 22.5452C20.8024 21.7191 20.8856 20.893 21.0392 20.0733C21.2888 18.7643 21.6536 17.4934 22.076 16.2416C22.1592 15.9874 22.2552 15.7332 22.3768 15.4981C22.652 14.9453 23.0809 14.5386 23.6825 14.348C24.2265 14.1764 24.7001 14.3543 25.1161 14.7102C25.5129 15.047 25.737 15.4791 25.9098 15.9493C26.089 16.4449 26.1722 16.9596 26.2298 17.4807C26.3322 18.3322 26.249 19.1837 26.2874 19.8445Z" fill="#FAB6AA"/>
<path d="M31.6313 45.9486C31.5225 46.0185 31.5097 46.1201 31.4585 46.2027C30.9401 47.1178 30.1529 47.6579 29.1224 47.8549C28.3096 48.0074 27.7208 47.6833 27.292 47.0161C27.2152 46.9017 27.1576 46.7746 27.1 46.6475C27.0552 46.5522 27.036 46.4442 27.1512 46.387C27.2728 46.3298 27.3368 46.4188 27.3816 46.5141C27.4712 46.7047 27.5864 46.8763 27.708 47.0479C28.0536 47.5117 28.5208 47.6515 29.0584 47.5499C30.1785 47.3402 30.9465 46.692 31.3753 45.6435C31.4265 45.5101 31.4265 45.3703 31.4265 45.2305C31.4329 44.1312 31.4393 43.0255 31.4521 41.9262C31.4521 41.7674 31.4073 41.6911 31.2537 41.6212C30.7801 41.3924 30.4153 41.0429 30.2105 40.5537C30.0569 40.1851 30.1593 39.8547 30.5113 39.6577C31.2281 39.2574 31.9641 39.2574 32.6873 39.6386C33.0522 39.8293 33.1738 40.1724 33.0138 40.5537C32.809 41.0429 32.4505 41.3924 31.9705 41.6212C31.8361 41.6847 31.7785 41.7483 31.7849 41.9071C31.7977 42.9175 31.8233 43.9342 31.7913 44.9446C31.7721 45.5101 31.9577 45.9803 32.2841 46.4061C32.8474 47.1432 33.5962 47.5499 34.5434 47.5689C34.8954 47.5753 35.1834 47.4418 35.4138 47.1813C35.5674 47.0097 35.7018 46.8255 35.8043 46.6221C35.8363 46.5586 35.8683 46.495 35.9067 46.4378C35.9451 46.3807 35.9963 46.3616 36.0603 46.3807C36.1371 46.4061 36.1755 46.4633 36.1627 46.5395C36.1563 46.5967 36.1371 46.6539 36.1115 46.7111C35.9515 47.0606 35.7211 47.3592 35.4266 47.6007C35.113 47.8549 34.7418 47.9248 34.3514 47.8867C33.2826 47.7723 32.4441 47.2766 31.8681 46.3616C31.7849 46.2282 31.7081 46.0884 31.6313 45.9486Z" fill="#442D29"/>
<path d="M20.7639 38.6794C20.8151 37.9486 21.2247 37.2941 21.9608 36.843C22.8696 36.2901 23.708 37.1289 23.7528 37.8279C23.7976 38.5459 23.5736 39.1814 23.0168 39.6643C22.5112 40.1028 21.7688 40.1409 21.1543 39.7342C20.8727 39.5499 20.7575 39.2513 20.7639 38.6794Z" fill="#3F2A26"/>
<path d="M42.4796 38.8252C42.4476 39.5496 42.198 39.8101 41.5068 39.9753C40.886 40.1215 40.3612 39.8991 39.9707 39.4098C39.5739 38.9142 39.4011 38.3486 39.5035 37.7132C39.5803 37.2239 39.9067 36.9252 40.3292 36.7282C40.6428 36.5885 40.9628 36.6711 41.2508 36.8363C41.8972 37.2112 42.3004 37.764 42.4412 38.5011C42.4604 38.6092 42.4668 38.7299 42.4796 38.8252Z" fill="#3F2A26"/>
<path d="M43.4015 45.0715C43.4015 45.1986 43.4015 45.332 43.4015 45.4591C43.4079 45.5608 43.3759 45.6561 43.3183 45.7387C43.2479 45.8404 43.1519 45.834 43.0495 45.8149C42.9599 45.7959 42.9215 45.726 42.9215 45.637C42.9215 45.3193 42.9151 45.0016 42.9279 44.6839C42.9279 44.6203 42.9663 44.5504 42.9983 44.4932C43.0559 44.3852 43.1583 44.3852 43.2607 44.4043C43.3695 44.4233 43.4015 44.4996 43.4015 44.6012C43.4015 44.7538 43.4015 44.9126 43.4015 45.0715Z" fill="#E78A7B"/>
<path d="M40.9758 43.3367C40.9758 43.4638 40.9758 43.5972 40.9758 43.7243C40.9822 43.826 40.9502 43.9213 40.8926 44.0039C40.8222 44.1056 40.7261 44.0992 40.6237 44.0802C40.5341 44.0611 40.4957 43.9912 40.4957 43.9023C40.4957 43.5845 40.4893 43.2668 40.5021 42.9491C40.5021 42.8855 40.5405 42.8156 40.5725 42.7585C40.6301 42.6504 40.7326 42.6504 40.835 42.6695C40.9438 42.6886 40.9758 42.7648 40.9758 42.8665C40.9758 43.019 40.9758 43.1778 40.9758 43.3367Z" fill="#E78A7B"/>
<path d="M42.9855 41.9071C42.9855 42.0341 42.9855 42.1676 42.9855 42.2947C42.9919 42.3963 42.9599 42.4917 42.9023 42.5743C42.8319 42.6759 42.7359 42.6696 42.6335 42.6505C42.5439 42.6315 42.5055 42.5616 42.5055 42.4726C42.5055 42.1549 42.4991 41.8372 42.5119 41.5194C42.5119 41.4559 42.5503 41.386 42.5823 41.3288C42.6399 41.2208 42.7423 41.2208 42.8447 41.2398C42.9535 41.2589 42.9855 41.3352 42.9855 41.4368C42.9855 41.5893 42.9855 41.7482 42.9855 41.9071Z" fill="#E78A7B"/>
<path d="M44.8864 40.4711C44.8864 40.5982 44.8864 40.7316 44.8864 40.8587C44.8928 40.9604 44.8608 41.0557 44.8032 41.1383C44.7328 41.24 44.6368 41.2336 44.5344 41.2145C44.4448 41.1955 44.4064 41.1256 44.4064 41.0366C44.4064 40.7189 44.4 40.4012 44.4128 40.0835C44.4128 40.0199 44.4512 39.95 44.4832 39.8928C44.5408 39.7848 44.6432 39.7848 44.7456 39.8039C44.8544 39.8229 44.8864 39.8992 44.8864 40.0009C44.8864 40.1534 44.8864 40.3122 44.8864 40.4711Z" fill="#E78A7B"/>
<path d="M43.8815 37.3382C43.8815 37.4653 43.8815 37.5987 43.8815 37.7258C43.8879 37.8275 43.8559 37.9228 43.7983 38.0054C43.7279 38.107 43.6319 38.1007 43.5295 38.0816C43.4399 38.0626 43.4015 37.9927 43.4015 37.9037C43.4015 37.586 43.3951 37.2683 43.4079 36.9506C43.4079 36.887 43.4463 36.8171 43.4783 36.7599C43.5359 36.6519 43.6383 36.6519 43.7407 36.671C43.8495 36.69 43.8815 36.7663 43.8815 36.8679C43.8815 37.0204 43.8815 37.1793 43.8815 37.3382Z" fill="#E78A7B"/>
<path d="M42.0256 34.4471C42.0256 34.5742 42.0256 34.7077 42.0256 34.8347C42.032 34.9364 42 35.0317 41.9424 35.1143C41.872 35.216 41.776 35.2097 41.6736 35.1906C41.5839 35.1715 41.5455 35.1016 41.5455 35.0127C41.5455 34.6949 41.5391 34.3772 41.5519 34.0595C41.5519 33.996 41.5903 33.9261 41.6223 33.8689C41.68 33.7608 41.7824 33.7608 41.8848 33.7799C41.9936 33.799 42.0256 33.8752 42.0256 33.9769C42.0256 34.1294 42.0256 34.2883 42.0256 34.4471Z" fill="#E78A7B"/>
<path d="M39.4719 34.8854C39.4719 35.0124 39.4719 35.1459 39.4719 35.273C39.4783 35.3746 39.4463 35.47 39.3886 35.5526C39.3182 35.6542 39.2222 35.6479 39.1198 35.6288C39.0302 35.6098 38.9918 35.5399 38.9918 35.4509C38.9918 35.1332 38.9854 34.8155 38.9982 34.4977C38.9982 34.4342 39.0366 34.3643 39.0686 34.3071C39.1262 34.1991 39.2286 34.1991 39.331 34.2181C39.4399 34.2372 39.4719 34.3135 39.4719 34.4151C39.4719 34.5676 39.4719 34.7265 39.4719 34.8854Z" fill="#E78A7B"/>
<path d="M38.422 37.3382C38.422 37.4653 38.422 37.5987 38.422 37.7258C38.4284 37.8275 38.3964 37.9228 38.3388 38.0054C38.2684 38.107 38.1724 38.1007 38.07 38.0816C37.9804 38.0626 37.942 37.9927 37.942 37.9037C37.942 37.586 37.9356 37.2683 37.9484 36.9506C37.9484 36.887 37.9868 36.8171 38.0188 36.7599C38.0764 36.6519 38.1788 36.6519 38.2812 36.671C38.39 36.69 38.422 36.7663 38.422 36.8679C38.422 37.0204 38.422 37.1793 38.422 37.3382Z" fill="#E78A7B"/>
<path d="M38.9919 40.4711C38.9919 40.5982 38.9919 40.7316 38.9919 40.8587C38.9983 40.9604 38.9663 41.0557 38.9087 41.1383C38.8383 41.24 38.7423 41.2336 38.6399 41.2145C38.5503 41.1955 38.5119 41.1256 38.5119 41.0366C38.5119 40.7189 38.5055 40.4012 38.5183 40.0835C38.5183 40.0199 38.5567 39.95 38.5887 39.8928C38.6463 39.7848 38.7487 39.7848 38.8511 39.8039C38.9599 39.8229 38.9919 39.8992 38.9919 40.0009C38.9919 40.1534 38.9919 40.3122 38.9919 40.4711Z" fill="#E78A7B"/>
<path d="M36.6491 40.6999C36.6491 40.827 36.6491 40.9604 36.6491 41.0875C36.6555 41.1892 36.6235 41.2845 36.5659 41.3671C36.4955 41.4688 36.3995 41.4624 36.2971 41.4434C36.2075 41.4243 36.1691 41.3544 36.1691 41.2654C36.1691 40.9477 36.1627 40.63 36.1755 40.3123C36.1755 40.2487 36.2139 40.1788 36.2459 40.1216C36.3035 40.0136 36.4059 40.0136 36.5083 40.0327C36.6171 40.0517 36.6491 40.128 36.6491 40.2297C36.6491 40.3822 36.6491 40.541 36.6491 40.6999Z" fill="#E78A7B"/>
<path d="M35.03 42.2694C35.03 42.3965 35.03 42.5299 35.03 42.657C35.0364 42.7587 35.0044 42.854 34.9468 42.9366C34.8764 43.0383 34.7803 43.0319 34.6779 43.0129C34.5883 42.9938 34.5499 42.9239 34.5499 42.8349C34.5499 42.5172 34.5435 42.1995 34.5563 41.8818C34.5563 41.8182 34.5947 41.7483 34.6267 41.6911C34.6843 41.5831 34.7867 41.5831 34.8892 41.6022C34.998 41.6212 35.03 41.6975 35.03 41.7992C35.03 41.9517 35.03 42.1105 35.03 42.2694Z" fill="#E78A7B"/>
<path d="M33.9928 44.8175C33.9928 44.9446 33.9928 45.078 33.9928 45.2051C33.9992 45.3068 33.9672 45.4021 33.9096 45.4847C33.8392 45.5864 33.7432 45.58 33.6408 45.561C33.5512 45.5419 33.5128 45.472 33.5128 45.3831C33.5128 45.0653 33.5064 44.7476 33.5192 44.4299C33.5192 44.3663 33.5576 44.2964 33.5896 44.2393C33.6472 44.1312 33.7496 44.1312 33.852 44.1503C33.9608 44.1694 33.9928 44.2456 33.9928 44.3473C33.9928 44.5061 33.9928 44.6586 33.9928 44.8175Z" fill="#E78A7B"/>
<path d="M37.8205 43.3367C37.8205 43.4638 37.8205 43.5972 37.8205 43.7243C37.8269 43.826 37.7949 43.9213 37.7373 44.0039C37.6669 44.1056 37.5709 44.0992 37.4685 44.0802C37.3789 44.0611 37.3405 43.9912 37.3405 43.9023C37.3405 43.5845 37.3341 43.2668 37.3469 42.9491C37.3469 42.8855 37.3853 42.8156 37.4173 42.7585C37.4749 42.6504 37.5773 42.6504 37.6797 42.6695C37.7885 42.6886 37.8205 42.7648 37.8205 42.8665C37.8205 43.019 37.8205 43.1778 37.8205 43.3367Z" fill="#E78A7B"/>
<path d="M37.5773 46.7492C37.5773 46.8763 37.5773 47.0097 37.5773 47.1368C37.5837 47.2385 37.5517 47.3338 37.4941 47.4164C37.4237 47.5181 37.3277 47.5117 37.2253 47.4927C37.1357 47.4736 37.0973 47.4037 37.0973 47.3148C37.0973 46.997 37.0909 46.6793 37.1037 46.3616C37.1037 46.298 37.1421 46.2281 37.1741 46.171C37.2317 46.0629 37.3341 46.0629 37.4365 46.082C37.5453 46.1011 37.5773 46.1773 37.5773 46.279C37.5773 46.4315 37.5773 46.5904 37.5773 46.7492Z" fill="#E78A7B"/>
<path d="M39.8556 47.6961C39.8556 47.8232 39.8556 47.9566 39.8556 48.0837C39.862 48.1854 39.83 48.2807 39.7724 48.3633C39.702 48.465 39.606 48.4586 39.5036 48.4396C39.414 48.4205 39.3756 48.3506 39.3756 48.2617C39.3756 47.9439 39.3692 47.6262 39.382 47.3085C39.382 47.2449 39.4204 47.1751 39.4524 47.1179C39.51 47.0098 39.6124 47.0098 39.7148 47.0289C39.8236 47.048 39.8556 47.1242 39.8556 47.2259C39.8556 47.3784 39.8556 47.5373 39.8556 47.6961Z" fill="#E78A7B"/>
<path d="M36.8859 49.7994C36.8859 49.9265 36.8859 50.0599 36.8859 50.187C36.8923 50.2887 36.8603 50.384 36.8027 50.4666C36.7323 50.5683 36.6363 50.5619 36.5339 50.5428C36.4443 50.5238 36.4059 50.4539 36.4059 50.3649C36.4059 50.0472 36.3995 49.7295 36.4123 49.4118C36.4123 49.3482 36.4507 49.2783 36.4827 49.2211C36.5403 49.1131 36.6427 49.1131 36.7451 49.1322C36.8539 49.1512 36.8859 49.2275 36.8859 49.3292C36.8859 49.4817 36.8859 49.6405 36.8859 49.7994Z" fill="#E78A7B"/>
<path d="M32.5978 48.8526C32.5978 48.9797 32.5978 49.1131 32.5978 49.2402C32.6042 49.3419 32.5722 49.4372 32.5146 49.5198C32.4442 49.6215 32.3482 49.6151 32.2458 49.596C32.1562 49.577 32.1178 49.5071 32.1178 49.4181C32.1178 49.1004 32.1114 48.7827 32.1242 48.465C32.1242 48.4014 32.1626 48.3315 32.1946 48.2743C32.2522 48.1663 32.3546 48.1663 32.457 48.1854C32.5658 48.2044 32.5978 48.2807 32.5978 48.3823C32.5914 48.5412 32.5914 48.7001 32.5978 48.8526C32.5914 48.8526 32.5914 48.8526 32.5978 48.8526Z" fill="#E78A7B"/>
<path d="M30.5051 50.5174C30.5051 50.6445 30.5051 50.7779 30.5051 50.905C30.5115 51.0067 30.4795 51.102 30.4219 51.1846C30.3515 51.2863 30.2554 51.2799 30.153 51.2609C30.0634 51.2418 30.025 51.1719 30.025 51.0829C30.025 50.7652 30.0186 50.4475 30.0314 50.1298C30.0314 50.0662 30.0698 49.9963 30.1018 49.9391C30.1594 49.8311 30.2618 49.8311 30.3642 49.8502C30.4731 49.8693 30.5051 49.9455 30.5051 50.0472C30.5051 50.1997 30.5051 50.3585 30.5051 50.5174Z" fill="#E78A7B"/>
<path d="M28.5402 49.2845C28.5402 49.4116 28.5402 49.545 28.5402 49.6721C28.5466 49.7738 28.5146 49.8691 28.457 49.9517C28.3866 50.0534 28.2906 50.047 28.1882 50.0279C28.0986 50.0089 28.0602 49.939 28.0602 49.85C28.0602 49.5323 28.0538 49.2146 28.0666 48.8968C28.0666 48.8333 28.105 48.7634 28.137 48.7062C28.1946 48.5982 28.297 48.5982 28.3994 48.6172C28.5082 48.6363 28.5402 48.7126 28.5402 48.8142C28.5402 48.9667 28.5402 49.1256 28.5402 49.2845Z" fill="#E78A7B"/>
<path d="M26.2809 49.7994C26.2809 49.9265 26.2809 50.0599 26.2809 50.187C26.2873 50.2887 26.2553 50.384 26.1977 50.4666C26.1273 50.5683 26.0313 50.5619 25.9289 50.5428C25.8393 50.5238 25.8009 50.4539 25.8009 50.3649C25.8009 50.0472 25.7945 49.7295 25.8073 49.4118C25.8073 49.3482 25.8457 49.2783 25.8777 49.2211C25.9353 49.1131 26.0377 49.1131 26.1401 49.1322C26.2489 49.1512 26.2809 49.2275 26.2809 49.3292C26.2809 49.4817 26.2809 49.6405 26.2809 49.7994Z" fill="#E78A7B"/>
<path d="M26.1271 46.9652C26.1271 47.0923 26.1271 47.2258 26.1271 47.3529C26.1335 47.4545 26.1015 47.5499 26.0439 47.6325C25.9735 47.7341 25.8775 47.7278 25.7751 47.7087C25.6855 47.6897 25.6471 47.6198 25.6471 47.5308C25.6471 47.2131 25.6407 46.8953 25.6535 46.5776C25.6535 46.5141 25.6919 46.4442 25.7239 46.387C25.7815 46.279 25.8839 46.279 25.9863 46.298C26.0951 46.3171 26.1271 46.3934 26.1271 46.495C26.1271 46.6539 26.1271 46.8127 26.1271 46.9652Z" fill="#E78A7B"/>
<path d="M23.3815 48.0453C23.3815 48.1724 23.3815 48.3059 23.3815 48.433C23.3879 48.5346 23.3559 48.6299 23.2983 48.7125C23.2279 48.8142 23.1319 48.8079 23.0295 48.7888C22.9399 48.7697 22.9015 48.6998 22.9015 48.6109C22.9015 48.2932 22.8951 47.9754 22.9079 47.6577C22.9079 47.5942 22.9463 47.5243 22.9783 47.4671C23.0359 47.359 23.1383 47.359 23.2407 47.3781C23.3495 47.3972 23.3815 47.4734 23.3815 47.5751C23.3815 47.7276 23.3751 47.8865 23.3815 48.0453C23.3815 48.0453 23.3751 48.0453 23.3815 48.0453Z" fill="#E78A7B"/>
<path d="M24.5529 45.5356C24.5529 45.6626 24.5529 45.7961 24.5529 45.9232C24.5593 46.0248 24.5273 46.1202 24.4697 46.2028C24.3993 46.3044 24.3033 46.2981 24.2009 46.279C24.1113 46.26 24.0729 46.1901 24.0729 46.1011C24.0729 45.7834 24.0665 45.4657 24.0793 45.1479C24.0793 45.0844 24.1177 45.0145 24.1497 44.9573C24.2073 44.8493 24.3097 44.8493 24.4121 44.8683C24.5209 44.8874 24.5529 44.9637 24.5529 45.0653C24.5529 45.2178 24.5465 45.3767 24.5529 45.5356C24.5529 45.5356 24.5465 45.5356 24.5529 45.5356Z" fill="#E78A7B"/>
<path d="M28.5402 45.0653C28.5402 45.1924 28.5402 45.3258 28.5402 45.4529C28.5466 45.5546 28.5146 45.6499 28.457 45.7325C28.3866 45.8342 28.2906 45.8278 28.1882 45.8088C28.0986 45.7897 28.0602 45.7198 28.0602 45.6309C28.0602 45.3131 28.0538 44.9954 28.0666 44.6777C28.0666 44.6141 28.105 44.5442 28.137 44.4871C28.1946 44.379 28.297 44.379 28.3994 44.3981C28.5082 44.4172 28.5402 44.4934 28.5402 44.5951C28.5402 44.7476 28.5402 44.9065 28.5402 45.0653Z" fill="#E78A7B"/>
<path d="M30.3708 43.9723C30.3708 44.0994 30.3708 44.2329 30.3708 44.3599C30.3772 44.4616 30.3452 44.5569 30.2876 44.6395C30.2172 44.7412 30.1212 44.7349 30.0188 44.7158C29.9292 44.6967 29.8908 44.6268 29.8908 44.5379C29.8908 44.2201 29.8844 43.9024 29.8972 43.5847C29.8972 43.5212 29.9356 43.4513 29.9676 43.3941C30.0252 43.286 30.1276 43.286 30.23 43.3051C30.3388 43.3242 30.3708 43.4004 30.3708 43.5021C30.3708 43.6546 30.3708 43.8135 30.3708 43.9723Z" fill="#E78A7B"/>
<path d="M28.1945 40.5663C28.1945 40.6934 28.1945 40.8268 28.1945 40.9539C28.2009 41.0556 28.1689 41.1509 28.1113 41.2335C28.0409 41.3352 27.9449 41.3288 27.8425 41.3097C27.7529 41.2907 27.7145 41.2208 27.7145 41.1318C27.7145 40.8141 27.7081 40.4964 27.7209 40.1786C27.7209 40.1151 27.7593 40.0452 27.7913 39.988C27.8489 39.88 27.9513 39.88 28.0537 39.899C28.1625 39.9181 28.1945 39.9944 28.1945 40.096C28.1945 40.2485 28.1945 40.4074 28.1945 40.5663Z" fill="#E78A7B"/>
<path d="M26.1271 42.536C26.1271 42.6631 26.1271 42.7965 26.1271 42.9236C26.1335 43.0253 26.1015 43.1206 26.0439 43.2032C25.9735 43.3049 25.8775 43.2985 25.7751 43.2795C25.6855 43.2604 25.6471 43.1905 25.6471 43.1016C25.6471 42.7838 25.6407 42.4661 25.6535 42.1484C25.6535 42.0849 25.6919 42.015 25.7239 41.9578C25.7815 41.8497 25.8839 41.8497 25.9863 41.8688C26.0951 41.8879 26.1271 41.9641 26.1271 42.0658C26.1271 42.2183 26.1271 42.3772 26.1271 42.536Z" fill="#E78A7B"/>
<path d="M22.7414 42.8667C22.7414 42.9938 22.7414 43.1272 22.7414 43.2543C22.7478 43.356 22.7158 43.4513 22.6582 43.5339C22.5878 43.6356 22.4918 43.6292 22.3894 43.6102C22.2998 43.5911 22.2614 43.5212 22.2614 43.4322C22.2614 43.1145 22.255 42.7968 22.2678 42.4791C22.2678 42.4155 22.3062 42.3456 22.3382 42.2885C22.3958 42.1804 22.4982 42.1804 22.6006 42.1995C22.7094 42.2186 22.7414 42.2948 22.7414 42.3965C22.7414 42.5553 22.7414 42.7078 22.7414 42.8667Z" fill="#E78A7B"/>
<path d="M21.3976 45.402C21.3976 45.5291 21.3976 45.6625 21.3976 45.7896C21.404 45.8913 21.372 45.9866 21.3144 46.0692C21.244 46.1709 21.148 46.1645 21.0456 46.1455C20.956 46.1264 20.9176 46.0565 20.9176 45.9676C20.9176 45.6498 20.9112 45.3321 20.924 45.0144C20.924 44.9508 20.9624 44.8809 20.9944 44.8238C21.052 44.7157 21.1544 44.7157 21.2568 44.7348C21.3656 44.7539 21.3976 44.8301 21.3976 44.9318C21.3976 45.0843 21.3976 45.2432 21.3976 45.402Z" fill="#E78A7B"/>
<path d="M19.0036 43.3304C19.0036 43.4574 19.0036 43.5909 19.0036 43.718C19.01 43.8196 18.978 43.915 18.9204 43.9976C18.85 44.0992 18.754 44.0929 18.6516 44.0738C18.562 44.0548 18.5236 43.9849 18.5236 43.8959C18.5236 43.5782 18.5172 43.2605 18.53 42.9427C18.53 42.8792 18.5684 42.8093 18.6004 42.7521C18.658 42.6441 18.7604 42.6441 18.8628 42.6631C18.9716 42.6822 19.0036 42.7585 19.0036 42.8601C19.0036 43.0126 19.0036 43.1715 19.0036 43.3304Z" fill="#E78A7B"/>
<path d="M20.6169 41.996C20.6169 42.1231 20.6169 42.2566 20.6169 42.3837C20.6233 42.4853 20.5913 42.5807 20.5337 42.6633C20.4633 42.7649 20.3673 42.7586 20.2649 42.7395C20.1753 42.7204 20.1369 42.6506 20.1369 42.5616C20.1369 42.2439 20.1305 41.9261 20.1433 41.6084C20.1433 41.5449 20.1817 41.475 20.2137 41.4178C20.2713 41.3098 20.3737 41.3098 20.4761 41.3288C20.5849 41.3479 20.6169 41.4241 20.6169 41.5258C20.6169 41.6783 20.6169 41.8372 20.6169 41.996Z" fill="#E78A7B"/>
<path d="M18.3254 39.8483C18.3254 39.9754 18.3254 40.1088 18.3254 40.2359C18.3318 40.3376 18.2998 40.4329 18.2422 40.5155C18.1718 40.6172 18.0758 40.6108 17.9734 40.5917C17.8838 40.5727 17.8454 40.5028 17.8454 40.4138C17.8454 40.0961 17.8389 39.7784 17.8517 39.4607C17.8517 39.3971 17.8902 39.3272 17.9222 39.27C17.9798 39.162 18.0822 39.162 18.1846 39.1811C18.2934 39.2001 18.3254 39.2764 18.3254 39.378C18.3254 39.5306 18.3254 39.6894 18.3254 39.8483Z" fill="#E78A7B"/>
<path d="M19.4899 37.2684C19.4899 37.3955 19.4899 37.529 19.4899 37.6561C19.4963 37.7577 19.4643 37.853 19.4067 37.9357C19.3363 38.0373 19.2403 38.031 19.1379 38.0119C19.0483 37.9928 19.0099 37.9229 19.0099 37.834C19.0099 37.5163 19.0035 37.1985 19.0163 36.8808C19.0163 36.8173 19.0547 36.7474 19.0867 36.6902C19.1443 36.5822 19.2467 36.5822 19.3491 36.6012C19.4579 36.6203 19.4899 36.6965 19.4899 36.7982C19.4835 36.9571 19.4835 37.1096 19.4899 37.2684C19.4835 37.2684 19.4835 37.2684 19.4899 37.2684Z" fill="#E78A7B"/>
<path d="M24.6999 40.2551C24.6999 40.3822 24.6999 40.5157 24.6999 40.6428C24.7063 40.7444 24.6743 40.8397 24.6167 40.9224C24.5463 41.024 24.4503 41.0177 24.3479 40.9986C24.2583 40.9795 24.2199 40.9096 24.2199 40.8207C24.2199 40.503 24.2135 40.1852 24.2263 39.8675C24.2263 39.804 24.2647 39.7341 24.2967 39.6769C24.3543 39.5689 24.4567 39.5689 24.5591 39.5879C24.6679 39.607 24.6999 39.6832 24.6999 39.7849C24.6999 39.9374 24.6935 40.0963 24.6999 40.2551Z" fill="#E78A7B"/>
<path d="M29.5832 37.3382C29.5832 37.4653 29.5832 37.5987 29.5832 37.7258C29.5896 37.8275 29.5576 37.9228 29.5 38.0054C29.4296 38.107 29.3336 38.1007 29.2312 38.0816C29.1416 38.0626 29.1032 37.9927 29.1032 37.9037C29.1032 37.586 29.0968 37.2683 29.1096 36.9506C29.1096 36.887 29.148 36.8171 29.18 36.7599C29.2376 36.6519 29.34 36.6519 29.4424 36.671C29.5512 36.69 29.5832 36.7663 29.5832 36.8679C29.5832 37.0204 29.5832 37.1793 29.5832 37.3382Z" fill="#E78A7B"/>
<path d="M26.2106 36.5567C26.2106 36.6838 26.2106 36.8172 26.2106 36.9443C26.217 37.046 26.185 37.1413 26.1274 37.2239C26.057 37.3256 25.961 37.3192 25.8586 37.3002C25.769 37.2811 25.7306 37.2112 25.7306 37.1222C25.7306 36.8045 25.7242 36.4868 25.737 36.1691C25.737 36.1055 25.7754 36.0356 25.8074 35.9784C25.865 35.8704 25.9674 35.8704 26.0698 35.8895C26.1786 35.9085 26.2106 35.9848 26.2106 36.0864C26.2106 36.239 26.2042 36.3978 26.2106 36.5567Z" fill="#E78A7B"/>
<path d="M21.6921 34.8727C21.6921 34.9998 21.6921 35.1332 21.6921 35.2603C21.6985 35.362 21.6665 35.4573 21.6089 35.5399C21.5385 35.6416 21.4425 35.6352 21.3401 35.6161C21.2505 35.5971 21.212 35.5272 21.212 35.4382C21.212 35.1205 21.2056 34.8028 21.2184 34.4851C21.2184 34.4215 21.2569 34.3516 21.2889 34.2944C21.3465 34.1864 21.4489 34.1864 21.5513 34.2055C21.6601 34.2245 21.6921 34.3008 21.6921 34.4025C21.6921 34.555 21.6921 34.7138 21.6921 34.8727Z" fill="#E78A7B"/>
<path d="M24.1047 31.975C24.1047 32.102 24.1047 32.2355 24.1047 32.3626C24.1111 32.4642 24.0791 32.5596 24.0215 32.6422C23.9511 32.7438 23.8551 32.7375 23.7527 32.7184C23.663 32.6994 23.6246 32.6295 23.6246 32.5405C23.6246 32.2228 23.6182 31.9051 23.631 31.5873C23.631 31.5238 23.6694 31.4539 23.7015 31.3967C23.7591 31.2887 23.8615 31.2887 23.9639 31.3077C24.0727 31.3268 24.1047 31.4031 24.1047 31.5047C24.1047 31.6572 24.1047 31.8161 24.1047 31.975Z" fill="#E78A7B"/>
<path d="M25.6471 33.7355C25.6471 33.8626 25.6471 33.996 25.6471 34.1231C25.6535 34.2248 25.6215 34.3201 25.5639 34.4027C25.4935 34.5044 25.3975 34.498 25.2951 34.4789C25.2055 34.4599 25.1671 34.39 25.1671 34.301C25.1671 33.9833 25.1607 33.6656 25.1735 33.3479C25.1735 33.2843 25.2119 33.2144 25.2439 33.1572C25.3015 33.0492 25.4039 33.0492 25.5063 33.0683C25.6151 33.0873 25.6471 33.1636 25.6471 33.2653C25.6471 33.4178 25.6471 33.5766 25.6471 33.7355Z" fill="#E78A7B"/>
<path d="M27.4841 31.0094C27.4841 31.1365 27.4841 31.2699 27.4841 31.397C27.4905 31.4987 27.4585 31.594 27.4009 31.6766C27.3305 31.7783 27.2344 31.7719 27.132 31.7528C27.0424 31.7338 27.004 31.6639 27.004 31.5749C27.004 31.2572 26.9976 30.9395 27.0104 30.6218C27.0104 30.5582 27.0488 30.4883 27.0808 30.4311C27.1384 30.3231 27.2409 30.3231 27.3433 30.3422C27.4521 30.3612 27.4841 30.4375 27.4841 30.5391C27.4777 30.6917 27.4777 30.8505 27.4841 31.0094C27.4777 31.0094 27.4777 31.0094 27.4841 31.0094Z" fill="#E78A7B"/>
<path d="M28.8923 33.8243C28.8923 33.9514 28.8923 34.0849 28.8923 34.212C28.8987 34.3136 28.8667 34.409 28.8091 34.4916C28.7387 34.5932 28.6427 34.5869 28.5402 34.5678C28.4506 34.5487 28.4122 34.4789 28.4122 34.3899C28.4122 34.0722 28.4058 33.7544 28.4186 33.4367C28.4186 33.3732 28.457 33.3033 28.489 33.2461C28.5466 33.1381 28.6491 33.1381 28.7515 33.1571C28.8603 33.1762 28.8923 33.2524 28.8923 33.3541C28.8923 33.5066 28.8859 33.6655 28.8923 33.8243Z" fill="#E78A7B"/>
<path d="M32.0153 33.8243C32.0153 33.9514 32.0153 34.0849 32.0153 34.212C32.0217 34.3136 31.9897 34.409 31.9321 34.4916C31.8617 34.5932 31.7657 34.5869 31.6633 34.5678C31.5737 34.5487 31.5353 34.4789 31.5353 34.3899C31.5353 34.0722 31.5289 33.7544 31.5417 33.4367C31.5417 33.3732 31.5801 33.3033 31.6121 33.2461C31.6697 33.1381 31.7721 33.1381 31.8745 33.1571C31.9833 33.1762 32.0153 33.2524 32.0153 33.3541C32.0089 33.5066 32.0089 33.6655 32.0153 33.8243C32.0089 33.8243 32.0089 33.8243 32.0153 33.8243Z" fill="#E78A7B"/>
<path d="M29.9738 29.5794C29.9738 29.7064 29.9738 29.8399 29.9738 29.967C29.9802 30.0686 29.9482 30.164 29.8906 30.2466C29.8202 30.3482 29.7242 30.3419 29.6218 30.3228C29.5322 30.3038 29.4938 30.2339 29.4938 30.1449C29.4938 29.8272 29.4874 29.5095 29.5002 29.1917C29.5002 29.1282 29.5386 29.0583 29.5706 29.0011C29.6282 28.8931 29.7306 28.8931 29.833 28.9121C29.9418 28.9312 29.9738 29.0075 29.9738 29.1091C29.9738 29.2616 29.9738 29.4205 29.9738 29.5794Z" fill="#E78A7B"/>
<path d="M33.3019 28.8613C33.3019 28.9884 33.3019 29.1218 33.3019 29.2489C33.3083 29.3506 33.2763 29.4459 33.2187 29.5285C33.1483 29.6302 33.0523 29.6238 32.9499 29.6047C32.8603 29.5857 32.8219 29.5158 32.8219 29.4268C32.8219 29.1091 32.8155 28.7914 32.8283 28.4737C32.8283 28.4101 32.8667 28.3402 32.8987 28.283C32.9563 28.175 33.0587 28.175 33.1611 28.1941C33.2699 28.2131 33.3019 28.2894 33.3019 28.391C33.3019 28.5436 33.3019 28.7024 33.3019 28.8613Z" fill="#E78A7B"/>
<path d="M31.529 31.4667C31.529 31.5938 31.529 31.7272 31.529 31.8543C31.5354 31.956 31.5034 32.0513 31.4458 32.1339C31.3754 32.2356 31.2794 32.2292 31.177 32.2101C31.0874 32.1911 31.049 32.1212 31.049 32.0322C31.049 31.7145 31.0426 31.3968 31.0554 31.0791C31.0554 31.0155 31.0938 30.9456 31.1258 30.8884C31.1834 30.7804 31.2858 30.7804 31.3882 30.7995C31.497 30.8185 31.529 30.8948 31.529 30.9965C31.529 31.149 31.529 31.3078 31.529 31.4667Z" fill="#E78A7B"/>
<path d="M34.6266 31.7273C34.6266 31.8544 34.6266 31.9878 34.6266 32.1149C34.633 32.2166 34.601 32.3119 34.5434 32.3945C34.473 32.4962 34.377 32.4898 34.2746 32.4707C34.185 32.4517 34.1466 32.3818 34.1466 32.2928C34.1466 31.9751 34.1402 31.6574 34.153 31.3397C34.153 31.2761 34.1914 31.2062 34.2234 31.149C34.281 31.041 34.3834 31.041 34.4858 31.0601C34.5946 31.0791 34.6266 31.1554 34.6266 31.257C34.6266 31.4095 34.6266 31.5684 34.6266 31.7273Z" fill="#E78A7B"/>
<path d="M36.6491 30.037C36.6491 30.1641 36.6491 30.2976 36.6491 30.4246C36.6555 30.5263 36.6235 30.6216 36.5659 30.7042C36.4955 30.8059 36.3995 30.7996 36.2971 30.7805C36.2075 30.7614 36.1691 30.6915 36.1691 30.6026C36.1691 30.2848 36.1627 29.9671 36.1755 29.6494C36.1755 29.5859 36.2139 29.516 36.2459 29.4588C36.3035 29.3507 36.4059 29.3507 36.5083 29.3698C36.6171 29.3889 36.6491 29.4651 36.6491 29.5668C36.6491 29.7193 36.6491 29.8782 36.6491 30.037Z" fill="#E78A7B"/>
<path d="M37.1423 32.7251C37.1423 32.8522 37.1423 32.9856 37.1423 33.1127C37.1487 33.2144 37.1167 33.3097 37.0591 33.3923C36.9887 33.494 36.8927 33.4876 36.7902 33.4686C36.7006 33.4495 36.6622 33.3796 36.6622 33.2906C36.6622 32.9729 36.6558 32.6552 36.6686 32.3375C36.6686 32.2739 36.707 32.204 36.739 32.1468C36.7967 32.0388 36.8991 32.0388 37.0015 32.0579C37.1103 32.077 37.1423 32.1532 37.1423 32.2549C37.1423 32.4074 37.1423 32.5662 37.1423 32.7251Z" fill="#E78A7B"/>
<path d="M36.1691 37.5863C36.1691 37.7134 36.1691 37.8468 36.1691 37.9739C36.1755 38.0756 36.1435 38.1709 36.0859 38.2535C36.0155 38.3552 35.9195 38.3488 35.8171 38.3297C35.7275 38.3107 35.6891 38.2408 35.6891 38.1518C35.6891 37.8341 35.6827 37.5164 35.6955 37.1987C35.6955 37.1351 35.7339 37.0652 35.7659 37.008C35.8235 36.9 35.9259 36.9 36.0283 36.9191C36.1371 36.9381 36.1691 37.0144 36.1691 37.1161C36.1691 37.2686 36.1691 37.4274 36.1691 37.5863Z" fill="#E78A7B"/>
<path d="M39.715 32.0071C39.715 32.1341 39.715 32.2676 39.715 32.3947C39.7214 32.4963 39.6894 32.5917 39.6318 32.6743C39.5614 32.7759 39.4654 32.7696 39.363 32.7505C39.2734 32.7315 39.235 32.6616 39.235 32.5726C39.235 32.2549 39.2286 31.9372 39.2414 31.6194C39.2414 31.5559 39.2798 31.486 39.3118 31.4288C39.3694 31.3208 39.4718 31.3208 39.5742 31.3398C39.683 31.3589 39.715 31.4352 39.715 31.5368C39.7086 31.6893 39.7086 31.8482 39.715 32.0071C39.7086 32.0071 39.7086 32.0071 39.715 32.0071Z" fill="#E78A7B"/>
<path d="M43.4655 30.7551C43.4655 30.8822 43.4655 31.0156 43.4655 31.1427C43.4719 31.2444 43.4399 31.3397 43.3823 31.4223C43.3119 31.524 43.2159 31.5176 43.1135 31.4986C43.0239 31.4795 42.9855 31.4096 42.9855 31.3206C42.9855 31.0029 42.9791 30.6852 42.9919 30.3675C42.9919 30.3039 43.0303 30.234 43.0623 30.1768C43.1199 30.0688 43.2223 30.0688 43.3247 30.0879C43.4335 30.107 43.4655 30.1832 43.4655 30.2849C43.4655 30.4374 43.4655 30.5962 43.4655 30.7551Z" fill="#E78A7B"/>
<path d="M43.2287 26.6566C43.2287 26.7836 43.2287 26.9171 43.2287 27.0442C43.2351 27.1458 43.2031 27.2412 43.1455 27.3238C43.0751 27.4254 42.9791 27.4191 42.8767 27.4C42.7871 27.381 42.7487 27.3111 42.7487 27.2221C42.7487 26.9044 42.7423 26.5867 42.7551 26.2689C42.7551 26.2054 42.7935 26.1355 42.8255 26.0783C42.8831 25.9703 42.9855 25.9703 43.0879 25.9893C43.1967 26.0084 43.2287 26.0847 43.2287 26.1863C43.2287 26.3388 43.2223 26.4977 43.2287 26.6566C43.2287 26.6566 43.2223 26.6566 43.2287 26.6566Z" fill="#E78A7B"/>
<path d="M43.7087 22.5643C43.7087 22.6914 43.7087 22.8248 43.7087 22.9519C43.7151 23.0536 43.6831 23.1489 43.6255 23.2315C43.5551 23.3332 43.4591 23.3268 43.3567 23.3078C43.2671 23.2887 43.2286 23.2188 43.2286 23.1298C43.2286 22.8121 43.2223 22.4944 43.2351 22.1767C43.2351 22.1131 43.2735 22.0432 43.3055 21.9861C43.3631 21.878 43.4655 21.878 43.5679 21.8971C43.6767 21.9162 43.7087 21.9924 43.7087 22.0941C43.7087 22.2466 43.7087 22.4054 43.7087 22.5643Z" fill="#E78A7B"/>
<path d="M42.7424 17.7094C42.7424 17.8364 42.7424 17.9699 42.7424 18.097C42.7488 18.1986 42.7168 18.294 42.6592 18.3766C42.5888 18.4782 42.4928 18.4719 42.3903 18.4528C42.3007 18.4338 42.2623 18.3639 42.2623 18.2749C42.2623 17.9572 42.2559 17.6395 42.2687 17.3217C42.2687 17.2582 42.3071 17.1883 42.3391 17.1311C42.3967 17.0231 42.4992 17.0231 42.6016 17.0421C42.7104 17.0612 42.7424 17.1375 42.7424 17.2391C42.7424 17.3916 42.7424 17.5505 42.7424 17.7094Z" fill="#E78A7B"/>
<path d="M41.5456 14.526C41.5456 14.6531 41.5456 14.7866 41.5456 14.9137C41.552 15.0153 41.52 15.1106 41.4624 15.1933C41.392 15.2949 41.296 15.2886 41.1936 15.2695C41.104 15.2504 41.0656 15.1805 41.0656 15.0916C41.0656 14.7739 41.0592 14.4561 41.072 14.1384C41.072 14.0749 41.1104 14.005 41.1424 13.9478C41.2 13.8398 41.3024 13.8398 41.4048 13.8588C41.5136 13.8779 41.5456 13.9541 41.5456 14.0558C41.5456 14.2083 41.5456 14.3672 41.5456 14.526Z" fill="#E78A7B"/>
<path d="M39.235 13.2868C39.235 13.4139 39.235 13.5473 39.235 13.6744C39.2414 13.7761 39.2094 13.8714 39.1518 13.954C39.0814 14.0557 38.9854 14.0493 38.883 14.0303C38.7934 14.0112 38.755 13.9413 38.755 13.8524C38.755 13.5346 38.7486 13.2169 38.7614 12.8992C38.7614 12.8356 38.7998 12.7657 38.8318 12.7086C38.8894 12.6005 38.9918 12.6005 39.0942 12.6196C39.203 12.6387 39.235 12.7149 39.235 12.8166C39.2286 12.9691 39.2286 13.1279 39.235 13.2868C39.2286 13.2868 39.2286 13.2868 39.235 13.2868Z" fill="#E78A7B"/>
<path d="M37.0138 14.958C37.0138 15.085 37.0138 15.2185 37.0138 15.3456C37.0202 15.4472 36.9882 15.5426 36.9306 15.6252C36.8602 15.7268 36.7642 15.7205 36.6618 15.7014C36.5722 15.6824 36.5338 15.6125 36.5338 15.5235C36.5338 15.2058 36.5274 14.8881 36.5402 14.5703C36.5402 14.5068 36.5786 14.4369 36.6106 14.3797C36.6682 14.2717 36.7706 14.2717 36.873 14.2907C36.9818 14.3098 37.0138 14.3861 37.0138 14.4877C37.0138 14.6402 37.0138 14.7991 37.0138 14.958Z" fill="#E78A7B"/>
<path d="M36.5339 18.4274C36.5339 18.5545 36.5339 18.6879 36.5339 18.815C36.5403 18.9167 36.5083 19.012 36.4507 19.0946C36.3803 19.1963 36.2843 19.1899 36.1819 19.1709C36.0922 19.1518 36.0538 19.0819 36.0538 18.9929C36.0538 18.6752 36.0474 18.3575 36.0602 18.0398C36.0602 17.9762 36.0986 17.9063 36.1306 17.8492C36.1883 17.7411 36.2907 17.7411 36.3931 17.7602C36.5019 17.7793 36.5339 17.8555 36.5339 17.9572C36.5339 18.1097 36.5339 18.2685 36.5339 18.4274Z" fill="#E78A7B"/>
<path d="M36.5339 22.1384C36.5339 22.2655 36.5339 22.3989 36.5339 22.526C36.5403 22.6277 36.5083 22.723 36.4507 22.8056C36.3803 22.9073 36.2843 22.9009 36.1819 22.8819C36.0922 22.8628 36.0538 22.7929 36.0538 22.7039C36.0538 22.3862 36.0474 22.0685 36.0602 21.7508C36.0602 21.6872 36.0986 21.6173 36.1306 21.5602C36.1883 21.4521 36.2907 21.4521 36.3931 21.4712C36.5019 21.4903 36.5339 21.5665 36.5339 21.6682C36.5339 21.8207 36.5339 21.9795 36.5339 22.1384Z" fill="#E78A7B"/>
<path d="M36.5339 25.6269C36.5339 25.754 36.5339 25.8874 36.5339 26.0145C36.5403 26.1162 36.5083 26.2115 36.4507 26.2941C36.3803 26.3958 36.2843 26.3894 36.1819 26.3704C36.0922 26.3513 36.0538 26.2814 36.0538 26.1924C36.0538 25.8747 36.0474 25.557 36.0602 25.2393C36.0602 25.1757 36.0986 25.1058 36.1306 25.0486C36.1883 24.9406 36.2907 24.9406 36.3931 24.9597C36.5019 24.9787 36.5339 25.055 36.5339 25.1567C36.5339 25.3092 36.5339 25.468 36.5339 25.6269Z" fill="#E78A7B"/>
<path d="M20.3415 31.2889C20.3415 31.4159 20.3415 31.5494 20.3415 31.6765C20.3479 31.7781 20.3159 31.8735 20.2583 31.9561C20.1879 32.0577 20.0919 32.0514 19.9895 32.0323C19.8999 32.0133 19.8615 31.9434 19.8615 31.8544C19.8615 31.5367 19.8551 31.219 19.8679 30.9012C19.8679 30.8377 19.9063 30.7678 19.9383 30.7106C19.9959 30.6026 20.0983 30.6026 20.2007 30.6216C20.3095 30.6407 20.3415 30.717 20.3415 30.8186C20.3415 30.9711 20.3415 31.13 20.3415 31.2889Z" fill="#E78A7B"/>
<path d="M20.5846 27.7239C20.5846 27.851 20.5846 27.9845 20.5846 28.1116C20.591 28.2132 20.559 28.3085 20.5014 28.3911C20.431 28.4928 20.335 28.4865 20.2326 28.4674C20.143 28.4483 20.1046 28.3784 20.1046 28.2895C20.1046 27.9718 20.0982 27.654 20.111 27.3363C20.111 27.2728 20.1494 27.2029 20.1814 27.1457C20.239 27.0377 20.3414 27.0377 20.4438 27.0567C20.5526 27.0758 20.5846 27.152 20.5846 27.2537C20.5846 27.4062 20.5846 27.5651 20.5846 27.7239Z" fill="#E78A7B"/>
<path d="M19.9704 25.2269C19.9704 25.354 19.9704 25.4874 19.9704 25.6145C19.9768 25.7162 19.9448 25.8115 19.8872 25.8941C19.8168 25.9958 19.7208 25.9894 19.6184 25.9704C19.5288 25.9513 19.4904 25.8814 19.4904 25.7924C19.4904 25.4747 19.484 25.157 19.4968 24.8393C19.4968 24.7757 19.5352 24.7058 19.5672 24.6487C19.6248 24.5406 19.7272 24.5406 19.8296 24.5597C19.9384 24.5788 19.9704 24.655 19.9704 24.7567C19.9704 24.9092 19.964 25.068 19.9704 25.2269Z" fill="#E78A7B"/>
<path d="M20.3415 22.005C20.3415 22.1321 20.3415 22.2655 20.3415 22.3926C20.3479 22.4943 20.3159 22.5896 20.2583 22.6722C20.1879 22.7739 20.0919 22.7675 19.9895 22.7484C19.8999 22.7294 19.8615 22.6595 19.8615 22.5705C19.8615 22.2528 19.8551 21.9351 19.8679 21.6174C19.8679 21.5538 19.9063 21.4839 19.9383 21.4267C19.9959 21.3187 20.0983 21.3187 20.2007 21.3378C20.3095 21.3568 20.3415 21.4331 20.3415 21.5348C20.3415 21.6873 20.3415 21.8461 20.3415 22.005Z" fill="#E78A7B"/>
<path d="M20.8278 18.8596C20.8278 18.9867 20.8278 19.1201 20.8278 19.2472C20.8342 19.3489 20.8022 19.4442 20.7446 19.5268C20.6742 19.6285 20.5782 19.6221 20.4758 19.6031C20.3862 19.584 20.3478 19.5141 20.3478 19.4251C20.3478 19.1074 20.3414 18.7897 20.3542 18.472C20.3542 18.4084 20.3926 18.3385 20.4246 18.2813C20.4822 18.1733 20.5846 18.1733 20.687 18.1924C20.7958 18.2114 20.8278 18.2877 20.8278 18.3894C20.8278 18.5419 20.8214 18.7007 20.8278 18.8596Z" fill="#E78A7B"/>
<path d="M21.82 15.5619C21.82 15.689 21.82 15.8224 21.82 15.9495C21.8264 16.0512 21.7944 16.1465 21.7368 16.2291C21.6664 16.3308 21.5704 16.3244 21.468 16.3054C21.3784 16.2863 21.34 16.2164 21.34 16.1274C21.34 15.8097 21.3336 15.492 21.3464 15.1743C21.3464 15.1107 21.3848 15.0408 21.4168 14.9836C21.4744 14.8756 21.5768 14.8756 21.6792 14.8947C21.788 14.9137 21.82 14.99 21.82 15.0917C21.82 15.2442 21.82 15.403 21.82 15.5619Z" fill="#E78A7B"/>
<path d="M24.3415 13.2868C24.3415 13.4139 24.3415 13.5473 24.3415 13.6744C24.3479 13.7761 24.3159 13.8714 24.2583 13.954C24.1879 14.0557 24.0919 14.0493 23.9895 14.0303C23.8999 14.0112 23.8615 13.9413 23.8615 13.8524C23.8615 13.5346 23.8551 13.2169 23.8679 12.8992C23.8679 12.8356 23.9063 12.7657 23.9383 12.7086C23.9959 12.6005 24.0983 12.6005 24.2007 12.6196C24.3095 12.6387 24.3415 12.7149 24.3415 12.8166C24.3415 12.9691 24.3415 13.1279 24.3415 13.2868Z" fill="#E78A7B"/>
<path d="M27.4264 19.0121C27.4264 19.1391 27.4264 19.2726 27.4264 19.3997C27.4328 19.5013 27.4008 19.5967 27.3432 19.6793C27.2728 19.7809 27.1768 19.7746 27.0744 19.7555C26.9848 19.7365 26.9464 19.6666 26.9464 19.5776C26.9464 19.2599 26.94 18.9422 26.9528 18.6244C26.9528 18.5609 26.9912 18.491 27.0232 18.4338C27.0808 18.3258 27.1832 18.3258 27.2856 18.3448C27.3944 18.3639 27.4264 18.4402 27.4264 18.5418C27.4264 18.6943 27.4264 18.8532 27.4264 19.0121Z" fill="#E78A7B"/>
<path d="M26.9147 22.1384C26.9147 22.2655 26.9147 22.3989 26.9147 22.526C26.9211 22.6277 26.8891 22.723 26.8315 22.8056C26.7611 22.9073 26.6651 22.9009 26.5627 22.8819C26.4731 22.8628 26.4347 22.7929 26.4347 22.7039C26.4347 22.3862 26.4283 22.0685 26.4411 21.7508C26.4411 21.6872 26.4795 21.6173 26.5115 21.5602C26.5691 21.4521 26.6715 21.4521 26.7739 21.4712C26.8827 21.4903 26.9147 21.5665 26.9147 21.6682C26.9147 21.8207 26.9147 21.9795 26.9147 22.1384Z" fill="#E78A7B"/>
<path d="M27.1896 25.4999C27.1896 25.627 27.1896 25.7605 27.1896 25.8876C27.196 25.9892 27.164 26.0845 27.1064 26.1672C27.036 26.2688 26.94 26.2625 26.8376 26.2434C26.748 26.2243 26.7096 26.1544 26.7096 26.0655C26.7096 25.7478 26.7032 25.43 26.716 25.1123C26.716 25.0488 26.7544 24.9789 26.7864 24.9217C26.844 24.8137 26.9464 24.8137 27.0488 24.8327C27.1576 24.8518 27.1896 24.928 27.1896 25.0297C27.1896 25.1822 27.1896 25.3411 27.1896 25.4999Z" fill="#E78A7B"/>
<path d="M34.8635 35.4002C34.8635 35.5273 34.8635 35.6607 34.8635 35.7878C34.8699 35.8895 34.8379 35.9848 34.7802 36.0674C34.7098 36.1691 34.6138 36.1627 34.5114 36.1436C34.4218 36.1246 34.3834 36.0547 34.3834 35.9657C34.3834 35.648 34.377 35.3303 34.3898 35.0126C34.3898 34.949 34.4282 34.8791 34.4602 34.8219C34.5178 34.7139 34.6202 34.7139 34.7226 34.733C34.8315 34.752 34.8635 34.8283 34.8635 34.93C34.8635 35.0825 34.8635 35.2413 34.8635 35.4002Z" fill="#E78A7B"/>
<path d="M32.6745 37.3382C32.6745 37.4653 32.6745 37.5987 32.6745 37.7258C32.6809 37.8275 32.6489 37.9228 32.5913 38.0054C32.5209 38.107 32.4249 38.1007 32.3225 38.0816C32.2329 38.0626 32.1945 37.9927 32.1945 37.9037C32.1945 37.586 32.1881 37.2683 32.2009 36.9506C32.2009 36.887 32.2393 36.8171 32.2713 36.7599C32.3289 36.6519 32.4313 36.6519 32.5337 36.671C32.6425 36.69 32.6745 36.7663 32.6745 36.8679C32.6745 37.0204 32.6745 37.1793 32.6745 37.3382Z" fill="#E78A7B"/>
<path d="M34.2941 50.4409C34.2941 50.568 34.2941 50.7014 34.2941 50.8285C34.3005 50.9302 34.2685 51.0255 34.2109 51.1081C34.1405 51.2098 34.0445 51.2034 33.9421 51.1844C33.8525 51.1653 33.8141 51.0954 33.8141 51.0064C33.8141 50.6887 33.8077 50.371 33.8205 50.0533C33.8205 49.9897 33.8589 49.9198 33.8909 49.8626C33.9485 49.7546 34.0509 49.7546 34.1533 49.7737C34.2621 49.7927 34.2941 49.869 34.2941 49.9707C34.2941 50.1232 34.2941 50.282 34.2941 50.4409Z" fill="#E78A7B"/>
<path d="M26.9467 16.0953C26.9531 16.2605 26.9531 16.4321 26.8827 16.591C26.8379 16.699 26.7675 16.7753 26.6459 16.7816C26.4859 16.7943 26.3771 16.7117 26.4155 16.5592C26.4731 16.3304 26.4603 16.108 26.4731 15.8793C26.4795 15.8221 26.5051 15.7649 26.5307 15.7141C26.5883 15.5933 26.6907 15.5806 26.8059 15.5997C26.9147 15.6187 26.9467 15.7014 26.9467 15.7967C26.9467 15.8983 26.9467 16 26.9467 16.0953Z" fill="#E78A7B"/>
</svg>
