<svg width="64" height="64" viewBox="0 0 64 64" fill="none" xmlns="http://www.w3.org/2000/svg">
<circle cx="32" cy="32" r="32" fill="#E4F7FA"/>
<path d="M48.1502 43.6622C48.1794 44.38 48.0042 45.0453 47.7065 45.6872C47.1576 46.8544 46.2819 47.718 45.1959 48.3716C44.2851 48.9202 43.3159 49.3462 42.3175 49.708C41.3308 50.064 40.35 50.4317 39.3574 50.7701C38.7152 50.986 38.0613 51.1845 37.4249 51.4179C36.7535 51.663 36.0412 51.7155 35.3406 51.7972C34.6691 51.8789 33.986 51.9139 33.3146 51.9606C32.4855 52.0131 31.6448 52.0131 30.8157 51.9606C30.1326 51.9139 29.4437 51.8731 28.7606 51.7972C27.9782 51.7097 27.1959 51.6163 26.4602 51.3245C25.7304 51.0386 24.9598 50.8518 24.2241 50.5775C23.0681 50.1457 21.8945 49.7722 20.7619 49.282C19.8803 48.9027 19.0104 48.4884 18.2455 47.8931C17.3639 47.2045 16.6749 46.3642 16.2779 45.3021C16.0619 44.7302 15.9685 44.1524 16.0094 43.5338C16.0561 42.8569 16.1028 42.1741 16.2429 41.5147C16.4531 40.5109 16.8501 39.5714 17.2471 38.6318C17.7376 37.4764 18.3272 36.3676 18.7593 35.1888C19.0629 34.3659 19.3139 33.5314 19.5125 32.6794C19.7168 31.8157 20.1255 31.0688 20.6977 30.4035C20.7911 30.2926 20.8845 30.1817 20.9721 30.065C21.118 29.8666 21.1589 29.6507 21.1297 29.4056C21.0597 28.822 20.8436 28.2793 20.6626 27.7249C20.4291 27.0129 20.2131 26.301 20.1197 25.554C20.0321 24.807 20.0262 24.0659 20.0671 23.3131C20.1255 22.3385 20.4816 21.4632 20.8553 20.5878C20.8962 20.4886 20.937 20.3894 20.9779 20.2902C21.0596 20.0743 21.0538 20.0568 20.8203 19.9984C20.7385 19.9751 20.651 19.9517 20.5634 19.9401C20.1197 19.8584 19.7051 19.695 19.2964 19.5141C19.1038 19.4265 18.8936 19.374 18.6951 19.2923C17.9069 18.9597 17.3581 18.3761 16.961 17.635C16.2721 16.3628 16.4648 15.1314 17.1362 13.9176C17.7142 13.2173 18.3915 12.6454 19.2847 12.3887C19.5708 12.307 19.8628 12.3595 20.1547 12.3478C20.9254 12.3011 21.6377 12.4704 22.2916 12.9022C22.5601 13.0773 22.8112 13.2815 23.0564 13.4858C23.1732 13.585 23.2841 13.7309 23.4301 13.7542C23.5819 13.7776 23.6986 13.62 23.8329 13.5441C24.4635 13.2057 25.1291 12.9722 25.8063 12.768C26.4894 12.5637 27.19 12.482 27.8965 12.4178C28.3227 12.3828 28.7431 12.307 29.1518 12.1902C29.7648 12.0093 30.3837 11.9568 31.0259 12.0502C31.4113 12.1085 31.8024 12.056 32.1878 12.0677C32.6432 12.0852 33.0986 12.0443 33.554 12.0093C34.0444 11.9743 34.529 12.0385 34.9902 12.1902C35.5332 12.3595 36.0937 12.412 36.6542 12.4645C37.4716 12.5345 38.2656 12.7155 39.0305 12.9956C39.3049 13.0948 39.5735 13.1998 39.842 13.3165C40.0405 13.4041 40.2332 13.4974 40.4142 13.6025C40.7178 13.7834 40.7236 13.8009 40.998 13.5675C41.3892 13.2348 41.7921 12.9139 42.2592 12.6804C42.6562 12.482 43.0765 12.3711 43.5203 12.3595C43.7538 12.3536 43.9873 12.3595 44.2209 12.3478C44.758 12.3128 45.2309 12.482 45.6863 12.7505C46.241 13.0773 46.7139 13.4858 47.0701 14.0168C47.3795 14.4778 47.5255 15.0031 47.578 15.5516C47.6072 15.8726 47.5955 16.1935 47.5839 16.5145C47.5605 17.0047 47.3211 17.4249 47.0817 17.8392C46.6205 18.627 45.9607 19.1639 45.0791 19.4324C44.8573 19.5024 44.6471 19.6133 44.4311 19.7008C44.0808 19.8467 43.7071 19.9226 43.3393 20.0043C43.1174 20.0568 43.0999 20.0918 43.1758 20.3077C43.2867 20.6053 43.4093 20.903 43.5378 21.2006C43.8939 22.0117 44.0574 22.8579 44.0924 23.7449C44.1216 24.5094 44.0749 25.2564 43.9523 26.0034C43.8589 26.5694 43.6837 27.1122 43.5144 27.6607C43.3626 28.1626 43.1524 28.6469 43.0532 29.1663C42.9715 29.5923 43.024 29.96 43.3451 30.2926C44.1041 31.0863 44.507 32.0667 44.758 33.1229C45.0967 34.5585 45.6338 35.9182 46.2702 37.2429C46.819 38.3926 47.327 39.5597 47.7123 40.7736C47.8875 41.3221 47.9925 41.8823 48.0451 42.4542C48.0801 42.8511 48.1327 43.2537 48.1502 43.6622ZM46.1242 15.7092C46.1885 14.9038 45.3594 14.1569 44.6996 14.0343C44.0282 13.9118 43.3685 13.9701 42.7262 14.1977C42.627 14.2327 42.5394 14.2969 42.4518 14.3611C42.2708 14.4953 42.2124 14.6879 42.2883 14.9038C42.3292 15.0206 42.3818 15.1373 42.4285 15.254C42.6912 15.8376 42.9481 16.427 43.2167 17.0047C43.3743 17.3373 43.5203 17.6758 43.7363 17.9793C43.8939 18.201 44.0633 18.2477 44.3143 18.1427C44.3669 18.1193 44.4194 18.096 44.4719 18.0668C44.723 17.9034 44.9857 17.7517 45.2193 17.5649C45.7856 17.1273 46.1126 16.5554 46.1242 15.7092ZM45.2601 45.127C45.4411 45.1328 45.628 44.9286 45.628 44.7127C45.628 44.5726 45.517 44.4559 45.3769 44.4442C45.1842 44.4325 45.0032 44.5959 44.9974 44.8002C44.9916 44.9753 45.1083 45.1212 45.2601 45.127ZM43.1641 42.9094C43.3626 42.9153 43.5728 42.7402 43.5728 42.571C43.567 42.4017 43.421 42.285 43.205 42.285C42.9831 42.285 42.8547 42.3959 42.8547 42.5826C42.8547 42.746 43.0065 42.9036 43.1641 42.9094ZM41.8388 40.0149C41.868 39.904 41.8738 39.7815 41.7804 39.6881C41.7103 39.6181 41.6461 39.5422 41.5761 39.4839C40.8696 38.9003 40.0405 38.6435 39.0889 38.6143C38.9487 38.5852 38.7677 38.6552 38.5868 38.6727C37.7927 38.7602 37.0571 39.0112 36.3857 39.443C35.7668 39.8457 35.2822 40.3826 34.8501 40.9778C34.7392 41.1295 34.6691 41.2988 34.6283 41.4797C34.5874 41.6372 34.6633 41.7715 34.7917 41.8123C34.9202 41.8532 35.0486 41.7773 35.0837 41.6081C35.1187 41.4272 35.2296 41.2929 35.3289 41.1529C35.5157 40.8961 35.7434 40.6685 35.9711 40.4409C36.5141 39.904 37.1563 39.5422 37.892 39.3438C38.4933 39.1862 39.0947 39.0695 39.7253 39.1921C40.35 39.3146 40.9046 39.5656 41.36 40.0149C41.4126 40.0674 41.471 40.12 41.5469 40.1491C41.6753 40.2017 41.8038 40.1491 41.8388 40.0149ZM41.7862 45.4888C41.7921 45.3079 41.6344 45.1562 41.4535 45.1562C41.2958 45.1562 41.1557 45.3137 41.1557 45.4888C41.1498 45.6639 41.2841 45.8098 41.4535 45.8214C41.6228 45.8331 41.7804 45.6756 41.7862 45.4888ZM39.9063 26.6511C40.5485 26.657 40.963 26.1668 40.8171 25.5365C40.6244 24.7078 40.0756 24.1768 39.299 23.8675C39.1414 23.8091 38.9779 23.815 38.8145 23.8675C38.2598 24.0426 37.9912 24.4978 38.0905 25.0872C38.2189 25.9158 39.0714 26.6453 39.9063 26.6511ZM39.7369 41.6898C40.1515 41.2112 39.9588 40.6218 39.3458 40.4643C39.194 40.4234 39.0422 40.4234 38.8436 40.4176C38.6685 40.3826 38.4583 40.4468 38.254 40.4876C37.8102 40.5751 37.4074 40.7502 37.1038 41.1179C36.8119 41.4738 36.771 42.1741 37.3665 42.3725C37.5417 42.4309 37.7227 42.4776 37.9095 42.4659C38.3649 42.4309 38.8086 42.3317 39.2056 42.0924C39.3925 41.9757 39.5851 41.8648 39.7369 41.6898ZM29.3211 41.8065C29.4554 41.7598 29.5488 41.6022 29.5138 41.468C29.4787 41.3279 29.4145 41.1937 29.3386 41.0712C29.1693 40.7969 28.965 40.5518 28.7548 40.3125C27.7914 39.2096 26.5361 38.7311 25.1116 38.6202C24.5219 38.5735 23.9555 38.7194 23.4126 38.947C23.0097 39.1162 22.6536 39.373 22.3558 39.7056C22.2273 39.8457 22.2215 39.9741 22.3208 40.0908C22.42 40.2075 22.5543 40.2075 22.7119 40.0966C22.7528 40.0674 22.782 40.0324 22.817 39.9974C23.395 39.3905 24.1365 39.1804 24.9422 39.1396C25.2809 39.1162 25.5962 39.1979 25.9231 39.2621C26.5595 39.3905 27.1375 39.6414 27.6688 40.0207C28.0191 40.2717 28.3227 40.5635 28.5913 40.8961C28.7723 41.1179 28.9883 41.3163 29.0467 41.6256C29.0759 41.789 29.1985 41.8473 29.3211 41.8065ZM26.9215 42.285C27.155 42.1508 27.2776 41.9232 27.2543 41.6781C27.2251 41.3046 27.0324 41.0011 26.7055 40.8027C26.3435 40.5868 25.9465 40.4643 25.5261 40.4234C25.2458 40.4001 24.9656 40.3884 24.6912 40.4759C24.4109 40.5635 24.154 40.9253 24.1774 41.2112C24.1949 41.3921 24.2825 41.5439 24.4051 41.6723C24.9072 42.1975 25.5494 42.4017 26.1858 42.4659C26.4894 42.4601 26.7171 42.4017 26.9215 42.285ZM25.853 25.624C26.034 25.3323 26.0807 25.0113 26.0457 24.6728C25.9698 23.9959 25.2575 23.7216 24.8488 23.8675C24.0606 24.1534 23.5118 24.702 23.3191 25.5307C23.1732 26.1493 23.6169 26.6978 24.1657 26.6511C24.9656 26.6511 25.4677 26.2368 25.853 25.624ZM22.6944 45.8273C22.8521 45.8214 22.9922 45.658 22.9864 45.4888C22.9805 45.3079 22.8229 45.1503 22.6536 45.1562C22.4784 45.162 22.3324 45.3312 22.3383 45.5063C22.35 45.6697 22.5368 45.8331 22.6944 45.8273ZM21.8128 14.9855C21.9413 14.6354 21.8654 14.4545 21.5442 14.2678C21.41 14.1919 21.264 14.1394 21.1122 14.0985C20.7619 14.0168 20.4116 13.9585 20.0496 13.976C19.8452 13.9935 19.6467 13.9585 19.4424 14.011C18.9228 14.1569 18.5257 14.4603 18.2513 14.9214C18.0178 15.3007 17.9477 15.715 18.0412 16.1469C18.1754 16.8063 18.5199 17.3257 19.0862 17.6933C19.3315 17.8509 19.5592 18.0318 19.8336 18.1368C20.1138 18.2419 20.2189 18.2069 20.4057 17.9734C20.4816 17.8801 20.5342 17.7809 20.5926 17.6758C20.9546 16.9872 21.2348 16.2636 21.5851 15.5691C21.6669 15.3882 21.7369 15.184 21.8128 14.9855ZM20.9429 42.9094C21.1239 42.9094 21.2698 42.7519 21.264 42.571C21.2582 42.3725 21.1472 42.285 20.9137 42.285C20.686 42.285 20.5575 42.39 20.5634 42.5768C20.5751 42.746 20.7619 42.9094 20.9429 42.9094ZM19.1505 44.8352C19.1563 44.6601 18.9636 44.4559 18.7885 44.4501C18.6308 44.4442 18.5199 44.5551 18.5141 44.7185C18.5082 44.9344 18.6659 45.127 18.841 45.127C18.9987 45.127 19.1446 44.9869 19.1505 44.8352Z" fill="#8CB0B5"/>
<path d="M44.6996 14.0342C45.3594 14.1567 46.1884 14.9037 46.1242 15.709C46.1125 16.5552 45.7856 17.1271 45.2251 17.5706C44.9915 17.7574 44.7288 17.9091 44.4778 18.0725C44.431 18.1017 44.3727 18.1308 44.3201 18.1483C44.0632 18.2534 43.8939 18.2067 43.7421 17.9849C43.5319 17.6815 43.3801 17.343 43.2225 17.0104C42.9539 16.4326 42.697 15.8432 42.4343 15.2597C42.3817 15.143 42.335 15.0262 42.2942 14.9095C42.2183 14.6936 42.2766 14.501 42.4576 14.3668C42.5394 14.3026 42.6328 14.2384 42.732 14.2034C43.3684 13.97 44.0282 13.9116 44.6996 14.0342Z" fill="#BFDBDF"/>
<path d="M45.6278 44.7125C45.6278 44.9226 45.441 45.1327 45.26 45.1269C45.1082 45.121 44.9914 44.981 44.9973 44.8059C45.0031 44.6075 45.1841 44.4382 45.3768 44.4499C45.5169 44.4557 45.6278 44.5725 45.6278 44.7125Z" fill="#305B62"/>
<path d="M43.5726 42.5708C43.5785 42.74 43.3624 42.9209 43.1639 42.9093C43.0063 42.9034 42.8545 42.7459 42.8545 42.5825C42.8545 42.3957 42.9829 42.2849 43.2048 42.2849C43.4208 42.2849 43.5668 42.3957 43.5726 42.5708Z" fill="#305B62"/>
<path d="M41.7802 39.6824C41.8736 39.7758 41.8678 39.8983 41.8386 40.0092C41.8036 40.1493 41.6751 40.196 41.5409 40.1434C41.465 40.1143 41.4124 40.0617 41.354 40.0092C40.8986 39.5599 40.3498 39.3089 39.7192 39.1864C39.0887 39.0638 38.4873 39.1747 37.886 39.3381C37.1503 39.5365 36.5081 39.8983 35.9651 40.4352C35.7374 40.6628 35.5097 40.8846 35.3229 41.1472C35.2236 41.2872 35.1127 41.4215 35.0777 41.6024C35.0426 41.7774 34.92 41.8475 34.7857 41.8066C34.6573 41.7658 34.5872 41.6316 34.6223 41.474C34.669 41.2931 34.7332 41.1238 34.8441 40.9721C35.2762 40.3827 35.7608 39.84 36.3796 39.4373C37.0452 38.9996 37.7867 38.7487 38.5807 38.667C38.7617 38.6495 38.9427 38.5795 39.0829 38.6086C40.0345 38.6378 40.8578 38.8946 41.57 39.4782C41.6459 39.5424 41.7102 39.6182 41.7802 39.6824Z" fill="#7C898B"/>
<path d="M41.4537 45.1562C41.6347 45.1562 41.7923 45.3079 41.7865 45.4888C41.7807 45.6697 41.6172 45.8331 41.4537 45.8273C41.2844 45.8214 41.1501 45.6697 41.1559 45.4946C41.1559 45.3196 41.2961 45.162 41.4537 45.1562Z" fill="#305B62"/>
<path d="M40.8169 25.5365C40.9628 26.1668 40.5483 26.657 39.9061 26.6511C39.0712 26.6453 38.2187 25.9158 38.0845 25.093C37.9852 24.5036 38.2596 24.0484 38.8084 23.8733C38.9719 23.8208 39.1412 23.8092 39.293 23.8733C40.0754 24.171 40.6184 24.7079 40.8169 25.5365Z" fill="#1E2222"/>
<path d="M39.3398 40.4642C39.9528 40.6218 40.1455 41.2112 39.731 41.6897C39.585 41.8648 39.3865 41.9757 39.1997 42.0865C38.8027 42.3258 38.359 42.4192 37.9036 42.46C37.7167 42.4775 37.5357 42.425 37.3606 42.3667C36.765 42.1683 36.8059 41.4738 37.0978 41.112C37.4014 40.7443 37.7985 40.5693 38.248 40.4817C38.4582 40.4409 38.6626 40.3767 38.8377 40.4117C39.0362 40.4234 39.188 40.4234 39.3398 40.4642Z" fill="#7C898B"/>
<path d="M29.514 41.4681C29.549 41.6023 29.4556 41.7657 29.3213 41.8066C29.1987 41.8474 29.0761 41.7832 29.0469 41.6198C28.9885 41.3105 28.7783 41.1179 28.5915 40.8903C28.3229 40.5577 28.0193 40.2659 27.669 40.015C27.1377 39.6357 26.5597 39.3789 25.9233 39.2563C25.6022 39.1922 25.2811 39.1105 24.9424 39.1338C24.1367 39.1746 23.4011 39.3847 22.8172 39.9916C22.7822 40.0267 22.7472 40.0617 22.7121 40.0909C22.5603 40.2076 22.426 40.2017 22.3209 40.085C22.2158 39.9683 22.2275 39.8399 22.356 39.6999C22.6537 39.3672 23.0099 39.1105 23.4127 38.9412C23.9499 38.7136 24.522 38.5736 25.1117 38.6144C26.5305 38.7253 27.7916 39.2038 28.7549 40.3068C28.9651 40.546 29.1695 40.7911 29.3388 41.0654C29.4147 41.1938 29.4789 41.328 29.514 41.4681Z" fill="#7C898B"/>
<path d="M27.2545 41.684C27.272 41.9291 27.1552 42.1567 26.9217 42.2909C26.7173 42.4077 26.4955 42.466 26.1919 42.466C25.5496 42.4077 24.9132 42.1976 24.4111 41.6724C24.2885 41.544 24.2009 41.3922 24.1834 41.2113C24.1542 40.9254 24.4111 40.5636 24.6972 40.476C24.9716 40.3885 25.2577 40.4002 25.5321 40.4235C25.9466 40.4644 26.3437 40.5869 26.7115 40.8028C27.0326 41.0071 27.2253 41.3105 27.2545 41.684Z" fill="#7C898B"/>
<path d="M26.0457 24.673C26.0807 25.0115 26.034 25.3324 25.853 25.6242C25.4677 26.237 24.9656 26.6513 24.1657 26.6513C23.6169 26.698 23.1731 26.1494 23.3191 25.5309C23.5118 24.7022 24.0606 24.1536 24.8488 23.8677C25.2575 23.7218 25.9698 23.9961 26.0457 24.673Z" fill="#1E2222"/>
<path d="M22.9861 45.4887C22.9919 45.6579 22.8518 45.8213 22.6942 45.8271C22.5365 45.833 22.3497 45.6696 22.338 45.5062C22.3264 45.3311 22.4782 45.1677 22.6533 45.156C22.8226 45.1502 22.9803 45.3078 22.9861 45.4887Z" fill="#305B62"/>
<path d="M21.5386 14.2676C21.8655 14.4543 21.9356 14.6352 21.8071 14.9854C21.7371 15.1838 21.6612 15.388 21.5677 15.5748C21.2233 16.2692 20.943 16.9929 20.5752 17.6815C20.5227 17.7865 20.4643 17.8857 20.3884 17.9791C20.2015 18.2125 20.1023 18.2475 19.8162 18.1425C19.5418 18.0374 19.3141 17.8565 19.0689 17.699C18.5025 17.3372 18.1581 16.8119 18.0238 16.1525C17.9362 15.7207 18.0063 15.3063 18.234 14.927C18.5142 14.4718 18.9054 14.1625 19.425 14.0166C19.6294 13.9583 19.8279 13.9933 20.0322 13.9816C20.3942 13.9583 20.7445 14.0225 21.0948 14.1042C21.2583 14.1392 21.4043 14.1917 21.5386 14.2676Z" fill="#BFDBDF"/>
<path d="M21.2638 42.571C21.2696 42.7578 21.1237 42.9095 20.9427 42.9095C20.7617 42.9095 20.5749 42.7461 20.5632 42.5769C20.5573 42.396 20.68 42.2851 20.9135 42.2851C21.147 42.2792 21.2638 42.3726 21.2638 42.571Z" fill="#305B62"/>
<path d="M18.7887 44.45C18.9639 44.4559 19.1566 44.666 19.1507 44.8352C19.1449 44.9869 18.9931 45.127 18.8413 45.127C18.6661 45.127 18.5085 44.9344 18.5143 44.7185C18.5202 44.5551 18.6311 44.4442 18.7887 44.45Z" fill="#305B62"/>
</svg>
