<svg width="64" height="64" viewBox="0 0 64 64" fill="none" xmlns="http://www.w3.org/2000/svg">
<circle cx="32" cy="32" r="32" fill="#FFF9F3"/>
<path d="M33.6062 15.2804C33.5251 15.4715 33.3513 15.6974 33.2701 15.8943C33.218 16.0217 33.2817 16.1838 33.4034 16.2649C33.5251 16.3459 33.6989 16.3228 33.7858 16.1954C33.8553 16.0969 33.9074 15.9811 33.9538 15.8653C34.0407 15.6626 34.0986 15.4599 34.2956 15.3499C34.8054 15.4136 35.3269 15.6279 35.8135 15.7669C37.0707 16.1375 38.1541 16.8266 39.1448 17.6662C39.307 17.8052 39.4345 17.8226 39.6141 17.7242C40.1587 17.423 40.7149 17.1335 41.2653 16.844C41.7751 16.5776 42.3197 16.3981 42.8875 16.3228C43.6812 16.2128 44.4343 16.3228 45.1238 16.7745C45.5177 17.035 45.8653 17.3246 46.1782 17.6836C46.9371 18.5465 47.6034 19.4672 48.1828 20.4516C48.5941 21.1523 48.9765 21.8646 49.3589 22.5769C49.7876 23.3702 50.2685 24.1404 50.7088 24.9279C51.6357 26.5841 52.3715 28.3156 52.7191 30.1976C52.7829 30.545 52.8234 30.8925 52.8524 31.2457C52.8756 31.5584 52.806 31.8653 52.7191 32.1665C52.4005 33.2436 51.7979 34.1238 50.9579 34.865C50.3264 35.4151 49.6369 35.8726 48.9012 36.2664C47.8815 36.8107 46.7865 37.1639 45.6336 37.3319C44.9326 37.4361 44.2316 37.4593 43.5247 37.4651C43.0844 37.4709 42.6557 37.4014 42.2212 37.3666C42.0242 37.3492 41.9315 37.4072 41.8388 37.5461C41.6245 37.8704 41.3579 38.1426 41.0799 38.409C40.9987 38.3974 40.9582 38.3395 40.9234 38.2758C40.7844 38.021 40.6164 37.7836 40.4368 37.5577C40.1123 37.1466 39.6894 36.8918 39.1738 36.8397C38.1773 36.7412 37.1924 37.2798 36.7289 38.1715C36.3002 38.9996 36.2886 39.8625 36.6362 40.7253C36.6825 40.8411 36.7579 40.9511 36.6478 41.067C36.2828 41.1886 35.9178 41.316 35.5528 41.4202C35.379 41.4723 35.3153 41.565 35.3442 41.7387C35.3964 42.0688 35.4253 42.3988 35.4949 42.7231C35.6803 43.5975 35.9062 44.4604 36.2828 45.2769C36.5956 45.9544 36.9143 46.6377 37.4763 47.1589C37.5516 47.2284 37.6327 47.2921 37.7138 47.3558C37.8007 47.4253 37.8876 47.4311 38.0035 47.4021C38.3627 47.3037 38.5712 47.4948 38.5191 47.8654C38.4786 48.1202 38.4206 48.375 38.2874 48.6008C37.7775 49.4694 37.2387 50.3207 36.5319 51.0503C36.1901 51.3978 35.773 51.6294 35.3674 51.8784C35.2342 51.9595 35.0835 52 34.9213 52C34.6606 52 34.5158 51.8842 34.4752 51.6236C34.4636 51.5599 34.4578 51.4962 34.4694 51.4383C34.5273 51.1488 34.3941 51.0156 34.1334 50.9114C33.1832 50.5234 32.349 49.9501 31.6132 49.2262C31.0396 48.6529 30.4776 48.0681 30.0142 47.4021C29.3421 46.4293 28.9539 45.3406 28.6701 44.2056C28.4557 43.3485 28.3282 42.4799 28.2413 41.5997C28.2297 41.4897 28.2239 41.397 28.0965 41.3565C27.7894 41.2638 27.4824 41.1654 27.1753 41.067C27.129 41.0033 27.1058 40.9453 27.1463 40.8701C27.3897 40.4184 27.4244 39.9262 27.4244 39.4224C27.4186 38.5132 27.0536 37.7894 26.3179 37.2798C25.7501 36.886 25.1186 36.7354 24.4292 36.8976C23.9425 37.0076 23.6181 37.3319 23.311 37.6909C23.1082 37.9283 22.975 38.2121 22.8012 38.4669C22.5057 38.1252 22.1523 37.8241 21.909 37.4303C21.8626 37.3608 21.8047 37.3608 21.7236 37.3666C20.982 37.4535 20.2346 37.4882 19.4873 37.4651C18.3459 37.4245 17.2393 37.2219 16.1733 36.8223C14.6728 36.2606 13.3403 35.4325 12.2569 34.2396C11.5964 33.5157 11.1909 32.6587 11.0287 31.6916C10.9591 31.2573 11.0287 30.823 11.104 30.3887C11.44 28.4198 12.1989 26.6073 13.1896 24.8874C13.8907 23.6597 14.5917 22.4379 15.2637 21.1929C15.762 20.2779 16.3008 19.3919 16.9439 18.5754C17.2915 18.1353 17.6623 17.7126 18.0447 17.3072C18.4966 16.8266 19.0875 16.537 19.7074 16.3633C20.2346 16.2185 20.7966 16.2938 21.3412 16.4038C22.1407 16.5718 22.8243 16.9887 23.537 17.3478C23.7687 17.4636 23.9946 17.591 24.2264 17.7126C24.5045 17.8573 24.5103 17.8516 24.742 17.6489C25.2113 17.2377 25.7269 16.8845 26.2541 16.5602C26.8856 16.1664 27.5809 15.9174 28.2819 15.6974C28.6874 15.57 29.093 15.4484 29.4985 15.3268C29.5796 15.3789 29.626 15.4599 29.6781 15.5352C29.823 15.7263 29.9041 15.9522 30.0315 16.1491C30.1416 16.3228 30.3212 16.3691 30.4603 16.2938C30.5935 16.2243 30.6341 16.0911 30.5703 15.8885C30.5298 15.7611 30.4603 15.651 30.4081 15.5236C30.3212 15.3268 29.9736 15.2688 30.188 15.1994C30.2053 15.1936 30.3849 15.1878 30.4661 15.182C30.6341 15.1762 30.7326 15.1762 30.8079 15.1878C30.9237 15.3905 30.86 15.6221 30.8195 15.8306C30.7731 16.0796 30.8774 16.2012 31.1265 16.2012C31.2829 16.2012 31.4046 16.1085 31.4394 15.9869C31.4857 15.8132 31.561 15.6395 31.5089 15.4426C31.4336 15.1646 31.4162 15.1414 31.6943 15.1357C31.7233 15.1357 31.8102 15.1357 31.8391 15.1357C32.4127 15.1414 32.3432 15.072 32.3432 15.6221C32.3432 15.7958 32.3779 15.9464 32.5054 16.0738C32.6271 16.1954 32.7777 16.2301 32.8936 16.1606C33.0268 16.0796 33.0616 15.9464 33.0094 15.8074C32.9283 15.5989 32.9689 15.402 33.0268 15.1994C33.0268 15.1994 33.218 15.2225 33.2817 15.2341C33.415 15.2399 33.6062 15.2804 33.6062 15.2804ZM12.3322 32.4734C12.3264 32.7629 12.3264 33.0235 12.5408 33.2204C12.9405 33.5794 13.2823 33.9964 13.7342 34.3033C14.5743 34.8824 15.4434 35.4093 16.3819 35.8031C17.4421 36.2432 18.5313 36.6138 19.719 36.4748C19.7711 36.469 19.8233 36.4864 19.8696 36.498C20.2868 36.5849 20.6981 36.5212 21.0921 36.388C21.4049 36.2837 21.4918 36.0463 21.3006 35.7684C20.9125 35.2066 20.7329 34.5639 20.5938 33.9211C20.3968 33.0119 20.1419 32.1201 19.9739 31.1994C19.8349 30.4292 19.8638 29.6648 19.9044 28.9062C19.9334 28.4256 19.9391 27.9392 19.9913 27.4527C20.055 26.8794 20.113 26.3004 20.2288 25.7387C20.3505 25.1596 20.6054 24.621 20.8256 24.0709C21.2543 22.9938 21.7062 21.9225 22.3956 20.9786C22.6563 20.6254 22.8185 20.22 23.0387 19.8436C23.2183 19.5367 23.0039 19.2066 22.6505 19.1892C22.4362 19.1777 22.2392 19.2414 22.048 19.3224C21.7583 19.4498 21.5092 19.6351 21.2427 19.7915C20.5533 20.1968 19.9044 20.6543 19.325 21.216C19.1454 21.3897 19.0122 21.5982 18.8326 21.7719C18.0273 22.5537 17.2625 23.3644 16.5441 24.233C15.791 25.148 15.1479 26.1382 14.5801 27.1748C14.302 27.6844 14.0355 28.1998 13.7458 28.7036C13.1839 29.6822 12.7725 30.7188 12.4597 31.7959C12.3901 32.0333 12.2917 32.2533 12.3322 32.4734ZM44.5618 36.5501C44.8051 36.5038 45.0427 36.4922 45.2744 36.4575C46.3462 36.2779 47.3659 35.9363 48.316 35.4151C48.5709 35.2761 48.8143 35.114 49.0692 34.9808C49.7181 34.6391 50.3148 34.2338 50.8188 33.7068C50.9347 33.5852 51.0564 33.4752 51.1896 33.3767C51.3576 33.2551 51.4561 33.0756 51.5199 32.8672C51.6126 32.5718 51.5488 32.2881 51.4793 32.0101C51.2418 31.1183 50.9115 30.2555 50.506 29.4274C50.0251 28.4372 49.4805 27.4817 48.9301 26.532C48.4898 25.7792 47.9974 25.0611 47.4528 24.3836C47.1399 23.9956 46.7981 23.6366 46.4853 23.2544C46.2361 22.9533 45.958 22.6695 45.6742 22.3973C45.483 22.2236 45.3034 22.0383 45.1296 21.8472C44.753 21.4361 44.3706 21.0249 43.9303 20.6717C43.3625 20.2084 42.7194 19.8726 42.1169 19.4672C41.8562 19.2935 41.5607 19.1834 41.2363 19.195C40.8539 19.2066 40.6569 19.5309 40.8365 19.8668C41.0103 20.1968 41.1841 20.5269 41.3927 20.8338C41.7693 21.3897 42.1053 21.9746 42.4066 22.5769C42.6963 23.1502 42.899 23.764 43.1655 24.3489C43.6928 25.5012 43.8782 26.7173 43.9013 27.9681C43.9013 28.0608 43.8839 28.1592 43.9071 28.2461C44.023 28.6804 43.9535 29.1321 44.0114 29.5722C44.1041 30.3076 43.9535 31.0373 43.797 31.7553C43.658 32.3923 43.4958 33.0235 43.3451 33.6547C43.1713 34.4017 42.9859 35.1429 42.563 35.8031C42.3892 36.0637 42.4703 36.2895 42.7658 36.3938C42.9975 36.4748 43.2409 36.5212 43.4958 36.5385C43.8492 36.5559 44.2084 36.4227 44.5618 36.5501ZM25.3967 33.2957C25.8949 33.2551 26.4337 33.0061 26.8103 32.485C27.3607 31.7264 26.9609 30.684 26.0514 30.4755C25.2287 30.2844 24.2612 30.9156 24.0642 31.7669C23.8614 32.6181 24.4002 33.2957 25.3967 33.2957ZM39.8632 32.0912C39.8458 31.9812 39.84 31.8653 39.8169 31.7553C39.6546 31.072 39.168 30.713 38.5481 30.5045C37.9687 30.3134 37.3025 30.5566 37.0186 31.0373C36.6999 31.5758 36.7868 32.2417 37.2387 32.6992C37.5458 33.0119 37.9224 33.203 38.3511 33.2841C39.1912 33.4289 39.8574 32.9019 39.8632 32.0912ZM32.3548 37.0945C32.0477 37.106 31.7406 37.1002 31.4278 37.1408C30.8079 37.2276 30.2111 37.3724 29.6376 37.6156C29.3711 37.7257 29.1104 37.8646 28.9076 38.0789C28.7859 38.2063 28.7685 38.38 28.8554 38.4669C28.9366 38.5479 29.093 38.548 29.2204 38.4437C29.3827 38.3163 29.5623 38.2005 29.7477 38.1194C30.4603 37.8183 31.2018 37.6677 31.9724 37.6504C32.2621 37.6446 32.5517 37.6504 32.8414 37.6504C33.1659 37.6504 33.4787 37.7025 33.7858 37.8067C34.1276 37.9225 34.4694 38.0384 34.8054 38.1889C34.9387 38.2526 35.0546 38.2005 35.1299 38.0847C35.2052 37.9689 35.1588 37.8704 35.0719 37.7778C34.9677 37.6677 34.8344 37.6098 34.7011 37.5519C33.9538 37.2392 33.1774 37.0308 32.3548 37.0945ZM31.9434 34.228C31.5842 34.1817 31.2018 34.2743 30.8195 34.3496C30.2807 34.4596 29.7534 34.5986 29.2668 34.865C29.0814 34.9634 28.9192 35.0908 28.7685 35.2356C28.6469 35.3514 28.6527 35.5136 28.7512 35.6294C28.8497 35.7452 28.9076 35.7452 29.0872 35.6004C29.4464 35.3051 29.8635 35.1429 30.3096 35.0213C30.9643 34.8476 31.6248 34.755 32.3026 34.7897C32.9051 34.8187 33.4903 34.9229 34.0117 35.2646C34.0986 35.3225 34.2029 35.3456 34.2956 35.3804C34.4404 35.4325 34.4984 35.3051 34.5679 35.224C34.6316 35.1429 34.62 35.0503 34.5621 34.9634C34.51 34.8939 34.4346 34.8592 34.3651 34.8187C33.6235 34.3843 32.8298 34.199 31.9434 34.228ZM32.2215 40.0883C31.9608 40.0883 31.7464 40.0651 31.5437 40.0941C30.8195 40.1925 30.1358 40.4242 29.4985 40.7774C29.2726 40.899 29.0408 41.0206 28.8786 41.2349C28.7859 41.3565 28.8033 41.4665 28.9366 41.5418C29.0524 41.6055 29.1683 41.6055 29.2842 41.5128C29.8288 41.0901 30.4661 40.8816 31.1207 40.7253C31.5089 40.6326 31.9144 40.5574 32.3142 40.5979C32.8994 40.65 33.4671 40.8122 34.0175 41.038C34.2029 41.1133 34.3941 41.0438 34.4578 40.8816C34.4926 40.7832 34.3941 40.5863 34.2435 40.54C33.5598 40.3315 32.9051 40.0072 32.2215 40.0883ZM34.481 42.6768C34.481 42.5089 34.3304 42.3583 34.145 42.4046C33.751 42.4973 33.3513 42.5089 32.9515 42.5726C31.9376 42.7289 31.0164 43.088 30.2111 43.7249C29.991 43.8987 29.8056 44.1071 29.6086 44.3098C29.5159 44.4083 29.5333 44.5183 29.6202 44.6167C29.7013 44.7094 29.794 44.7094 29.8983 44.6515C29.9736 44.6109 30.0315 44.5588 30.0953 44.5009C30.9991 43.6149 32.1172 43.2096 33.3512 43.0822C33.6467 43.0532 33.9422 43.0069 34.2377 42.9548C34.4057 42.9258 34.481 42.8274 34.481 42.6768ZM35.0372 44.7383C35.0488 44.553 34.8808 44.4198 34.6954 44.4604C34.5621 44.4893 34.4462 44.5646 34.3304 44.6341C34.0928 44.7847 33.8553 44.9294 33.6178 45.0742C32.824 45.5491 32.1404 46.1339 31.6595 46.9388C31.5379 47.1415 31.4278 47.3558 31.3699 47.5874C31.3351 47.7206 31.4104 47.8133 31.5205 47.8654C31.6421 47.9175 31.7406 47.877 31.7986 47.7496C31.8333 47.6743 31.8739 47.6048 31.9087 47.5295C32.0883 47.1415 32.3432 46.8057 32.6444 46.4987C33.0036 46.1397 33.4092 45.8386 33.8437 45.578C34.1623 45.3869 34.4694 45.1784 34.8054 45.0047C34.9213 44.941 35.0198 44.8542 35.0372 44.7383ZM38.1599 48.0796C38.1599 47.9812 38.1599 47.877 38.0556 47.8364C37.9455 47.7901 37.8528 47.8306 37.7833 47.9233C37.7428 47.9812 37.708 48.0449 37.6732 48.1086C37.5632 48.3171 37.4473 48.5255 37.2967 48.7108C37.0302 49.0525 36.781 49.4057 36.5029 49.7358C36.2075 50.0891 35.941 50.477 35.5876 50.7897C35.4311 50.9287 35.2515 51.033 35.1183 51.1951C35.0372 51.2935 35.0314 51.3804 35.1009 51.4731C35.1704 51.5715 35.2631 51.6352 35.3906 51.5889C35.4601 51.5657 35.518 51.5252 35.576 51.4846C35.941 51.2241 36.2538 50.9114 36.5319 50.5639C36.8332 50.1875 37.1229 49.7995 37.4183 49.4115C37.679 49.0699 37.8992 48.7166 38.0846 48.3344C38.1309 48.2592 38.1715 48.1723 38.1599 48.0796ZM34.0581 49.6895C34.1971 49.6837 34.2724 49.5679 34.3246 49.4405C34.3883 49.2783 34.4462 49.1104 34.5505 48.9656C34.8344 48.5776 35.1878 48.2592 35.547 47.9407C35.7672 47.7496 35.9873 47.5643 36.2017 47.3732C36.306 47.2805 36.306 47.1821 36.2075 47.0778C36.0568 46.9157 35.9757 46.9157 35.7556 47.072C35.2573 47.4137 34.8344 47.848 34.4231 48.2881C34.145 48.5834 33.9364 48.9309 33.8437 49.3363C33.7973 49.5273 33.8843 49.6779 34.0581 49.6895Z" fill="#B7ACA3"/>
<path d="M36.6473 41.0613C36.7574 40.9397 36.6821 40.8354 36.6357 40.7196C36.2881 39.8568 36.2997 38.9997 36.7284 38.1659C37.1919 37.2741 38.1768 36.7355 39.1733 36.834C39.6889 36.8861 40.1119 37.1409 40.4363 37.552C40.6159 37.7779 40.7839 38.0153 40.923 38.2701C40.9577 38.3396 41.0041 38.3917 41.0794 38.4033C41.0331 38.6407 41.1953 38.8202 41.2764 39.0171C41.4154 39.3646 41.5139 39.7236 41.624 40.0826C41.8963 40.9918 42.3308 41.7909 42.9971 42.48C43.756 43.2618 44.6946 43.6845 45.7027 44.003C46.3631 44.2115 47.041 44.2694 47.7246 44.252C47.9622 44.2462 48.1939 44.1651 48.4372 44.1825C48.7211 44.2057 48.9007 44.3041 48.976 44.5242C49.0514 44.7384 48.9818 44.8832 48.7848 45.1554C48.6979 45.2943 48.6748 45.2828 48.5763 45.4044C48.5241 45.4681 48.4141 45.5665 48.3387 45.607C47.8521 45.8792 47.3712 46.1746 46.8092 46.2788C46.2531 46.383 45.7027 46.3946 45.1407 46.3309C43.953 46.1977 42.8406 45.8097 41.7515 45.3523C40.8535 44.9759 39.996 44.501 39.2834 43.8119C39.0632 43.5976 38.8199 43.395 38.5592 43.227C37.8756 42.7696 37.4063 42.1326 37.0123 41.4377C36.9602 41.345 36.9022 41.2639 36.8501 41.1713C36.8095 41.0728 36.7284 41.0613 36.6473 41.0613Z" fill="#EEDFD3"/>
<path d="M22.7951 38.4555C22.9689 38.2007 23.1079 37.917 23.3049 37.6795C23.612 37.3205 23.9306 36.9962 24.4231 36.8862C25.1183 36.7298 25.7498 36.8804 26.3118 37.2684C27.0534 37.7838 27.4184 38.5018 27.4184 39.411C27.4184 39.9148 27.3836 40.407 27.1403 40.8587C27.0997 40.9398 27.1171 40.9977 27.1692 41.0556C27.0128 41.0614 26.9722 41.1946 26.9085 41.293C26.7057 41.6057 26.5435 41.9416 26.3002 42.2311C25.9989 42.5902 25.6861 42.926 25.3037 43.204C25.1125 43.343 24.9155 43.4819 24.7475 43.6441C23.9364 44.4432 22.9689 44.9991 21.9261 45.4161C21.1207 45.7404 20.2923 46.0125 19.4406 46.2036C18.8323 46.3426 18.2124 46.4063 17.5925 46.3542C16.8335 46.2963 16.1499 46.0009 15.5184 45.584C15.4315 45.5261 15.3562 45.4508 15.2866 45.3697C15.1823 45.2597 15.1708 45.225 15.0781 45.1323C14.9332 45.0049 14.8116 44.7791 14.8463 44.6227C14.9043 44.3853 15.0839 44.2058 15.3098 44.1826C15.4315 44.171 15.5589 44.1653 15.6806 44.1826C16.7582 44.3621 17.7837 44.1595 18.7801 43.7773C19.3537 43.5572 19.8983 43.285 20.3792 42.8971C20.9122 42.4685 21.3351 41.959 21.6769 41.3683C22.013 40.7892 22.1868 40.1464 22.3895 39.5152C22.5054 39.162 22.656 38.8087 22.7951 38.4555Z" fill="#EEDFD3"/>
<path d="M33.0267 15.1878C32.9688 15.3904 32.934 15.5873 33.0093 15.7958C33.0615 15.9348 33.0267 16.068 32.8934 16.149C32.7776 16.2243 32.6211 16.1838 32.5053 16.0622C32.3778 15.9348 32.3431 15.7842 32.3431 15.6105C32.3431 15.0604 32.4184 15.1298 31.839 15.1241C31.81 15.1241 31.7753 15.1241 31.7463 15.1241C31.4682 15.1298 31.4508 15.1356 31.5262 15.4136C31.5783 15.6105 31.503 15.8247 31.4508 15.9927C31.4161 16.1143 31.277 16.1838 31.1206 16.1838C30.8715 16.1896 30.7672 16.068 30.8136 15.8132C30.8541 15.6047 30.8599 15.4136 30.8078 15.182C30.7093 14.7708 30.634 14.3944 30.4312 14.0412C30.1531 13.549 29.7997 13.1146 29.3883 12.7324C29.3188 12.6687 29.2493 12.605 29.1971 12.5298C29.0929 12.385 29.0987 12.2518 29.1971 12.1302C29.3072 11.997 29.4521 11.9623 29.6143 12.0433C29.6606 12.0665 29.707 12.0897 29.7475 12.1244C30.4949 12.8077 31.1032 13.5837 31.3813 14.5797C31.3813 14.5913 31.3871 14.5971 31.3929 14.6087C31.4335 14.7534 31.3987 14.9445 31.532 15.043C31.6478 15.1241 31.8158 15.0546 31.9549 15.0661C32.007 15.0719 32.0592 15.0719 32.1113 15.0719C32.372 15.0719 32.372 15.0719 32.43 14.8114C32.5864 14.0759 32.934 13.4331 33.4149 12.8598C33.5887 12.6514 33.7567 12.4429 33.9595 12.2634C34.0348 12.1939 34.1159 12.1244 34.2028 12.0723C34.365 11.9681 34.5504 11.997 34.6547 12.1186C34.759 12.2402 34.7474 12.4313 34.6315 12.5761C34.5968 12.6166 34.5562 12.6514 34.5214 12.6861C33.8726 13.3173 33.3106 14.0006 33.0904 14.904C33.0557 14.9909 33.0499 15.0488 33.0267 15.1878Z" fill="#ACA49D"/>
<path d="M30.4137 15.5003C30.4659 15.6219 30.547 15.7493 30.5876 15.8767C30.6513 16.0794 30.5933 16.201 30.4543 16.2763C30.3153 16.3516 30.1357 16.3053 30.0256 16.1315C29.8981 15.9346 29.817 15.7088 29.6722 15.5177C29.6142 15.4424 29.5679 15.3614 29.4926 15.3092C29.284 15.0487 29.0638 14.8054 28.751 14.6607C28.583 14.5854 28.525 14.4522 28.554 14.3132C28.5888 14.1627 28.7104 14.07 28.9016 14.0584C29.0638 14.0468 29.2029 14.1163 29.3361 14.209C29.6258 14.4059 29.8576 14.6607 30.0487 14.9444" fill="#ACA49D"/>
<path d="M33.5131 15.3153C33.432 15.5064 33.3509 15.7033 33.2698 15.9002C33.2176 16.0276 33.2814 16.1897 33.403 16.2708C33.5247 16.3519 33.6985 16.3287 33.7854 16.2013C33.8549 16.1028 33.9071 15.987 33.9534 15.8712C34.0403 15.6685 34.1214 15.5411 34.2952 15.35C34.3764 15.2458 34.3822 15.2342 34.4343 15.1821C34.6197 14.991 34.8051 14.7999 35.06 14.6841C35.257 14.5972 35.3149 14.4583 35.2686 14.2845C35.228 14.1282 35.0832 14.0471 34.8746 14.0645C34.6892 14.0819 34.5386 14.1745 34.4053 14.2903C34.1968 14.4756 33.9824 14.6609 33.8318 14.8984" fill="#ACA49D"/>
<path d="M12.3147 32.485C12.2741 32.265 12.3726 32.0391 12.4363 31.8133C12.755 30.7362 13.1605 29.6938 13.7225 28.721C14.0122 28.2172 14.2787 27.7018 14.5568 27.1922C15.1246 26.1557 15.7676 25.1654 16.5208 24.2505C17.2334 23.3819 18.004 22.5711 18.8093 21.7894C18.9889 21.6157 19.1279 21.4072 19.3017 21.2335C19.8753 20.6717 20.53 20.2143 21.2194 19.8089C21.4859 19.6526 21.7408 19.4673 22.0247 19.3399C22.2159 19.253 22.4129 19.1951 22.6272 19.2067C22.9806 19.224 23.2008 19.5541 23.0154 19.861C22.7952 20.2374 22.633 20.637 22.3723 20.996C21.6829 21.9399 21.231 23.0112 20.8022 24.0883C20.5821 24.6385 20.3272 25.1712 20.2055 25.7561C20.0838 26.3236 20.0259 26.8969 19.968 27.4702C19.9158 27.9566 19.91 28.443 19.8811 28.9237C19.8405 29.6823 19.8115 30.4524 19.9506 31.2168C20.1128 32.1318 20.3677 33.0294 20.5705 33.9385C20.7095 34.5813 20.8892 35.2241 21.2773 35.7858C21.4685 36.0637 21.3816 36.2954 21.0687 36.4054C20.6748 36.5444 20.2634 36.6023 19.8463 36.5154C19.7942 36.5039 19.742 36.4865 19.6957 36.4923C18.5138 36.6313 17.4246 36.2606 16.3586 35.8205C15.42 35.4325 14.551 34.8998 13.7109 34.3207C13.259 34.008 12.9172 33.5969 12.5175 33.2378C12.3089 33.0352 12.3089 32.7746 12.3147 32.485Z" fill="#938A82"/>
<path d="M44.5443 36.5617C44.1908 36.4401 43.8316 36.5675 43.4724 36.5501C43.2233 36.5385 42.98 36.4922 42.7425 36.4053C42.447 36.3011 42.3659 36.0753 42.5397 35.8147C42.9684 35.1603 43.148 34.4133 43.3218 33.6663C43.4724 33.0351 43.6347 32.4039 43.7737 31.7669C43.9301 31.0488 44.0808 30.3192 43.9881 29.5838C43.9301 29.1379 43.9997 28.692 43.8838 28.2577C43.8606 28.1708 43.878 28.0724 43.878 27.9797C43.8548 26.7289 43.6694 25.507 43.1422 24.3604C42.8757 23.7756 42.6729 23.1675 42.3833 22.5885C42.082 21.9862 41.7518 21.4071 41.3694 20.8454C41.1608 20.5385 40.987 20.2084 40.8132 19.8783C40.6336 19.5425 40.8306 19.2182 41.213 19.2066C41.5374 19.195 41.8329 19.3051 42.0936 19.4788C42.6961 19.8841 43.3392 20.22 43.907 20.6833C44.3415 21.0365 44.7239 21.4477 45.1062 21.8588C45.28 22.0499 45.4596 22.2294 45.6508 22.4089C45.9405 22.6753 46.2128 22.9649 46.4619 23.266C46.7806 23.6482 47.1166 24.0072 47.4294 24.3952C47.9798 25.0727 48.4723 25.7908 48.9068 26.5436C49.463 27.4933 50.0018 28.4488 50.4827 29.439C50.8882 30.2671 51.2242 31.1299 51.456 32.0217C51.5313 32.2997 51.595 32.5776 51.4965 32.8787C51.4328 33.0872 51.3343 33.2609 51.1663 33.3883C51.033 33.4868 50.9114 33.5968 50.7955 33.7184C50.2915 34.2512 49.6947 34.6565 49.0459 34.9924C48.7909 35.1256 48.5476 35.2877 48.2927 35.4267C47.3368 35.9479 46.3171 36.2895 45.2511 36.469C45.0309 36.5038 44.7876 36.5154 44.5443 36.5617Z" fill="#938A82"/>
<path d="M25.3795 33.3419C24.383 33.3419 23.8442 32.6643 24.0412 31.8189C24.2382 30.9618 25.2057 30.3306 26.0284 30.5275C26.938 30.7418 27.3378 31.7783 26.7874 32.5369C26.4166 33.0523 25.8836 33.3013 25.3795 33.3419Z" fill="#2E2A26"/>
<path d="M39.8518 32.1315C39.846 32.9422 39.1798 33.475 38.3397 33.3186C37.911 33.2376 37.5344 33.0465 37.2274 32.7338C36.7755 32.2763 36.6886 31.6104 37.0072 31.0718C37.2911 30.5912 37.9573 30.348 38.5367 30.5391C39.1566 30.7475 39.6433 31.1066 39.8055 31.7899C39.8286 31.9057 39.8344 32.0215 39.8518 32.1315Z" fill="#2E2A26"/>
<path d="M32.3374 37.106C33.1659 37.0423 33.9364 37.245 34.6896 37.5635C34.8228 37.6214 34.9561 37.6793 35.0604 37.7893C35.1473 37.882 35.1878 37.9804 35.1183 38.0963C35.043 38.2121 34.9329 38.2584 34.7938 38.2005C34.4636 38.0499 34.1218 37.9341 33.7742 37.8183C33.4671 37.7198 33.1543 37.6619 32.8298 37.6619C32.5402 37.6619 32.2505 37.6562 31.9608 37.6619C31.1903 37.6793 30.4429 37.8299 29.7361 38.131C29.5507 38.2121 29.3711 38.3279 29.2089 38.4553C29.0814 38.5537 28.9192 38.5595 28.8439 38.4784C28.757 38.3858 28.7743 38.2179 28.896 38.0905C29.0988 37.8762 29.3595 37.7372 29.626 37.6272C30.1996 37.384 30.7963 37.2334 31.4162 37.1524C31.7233 37.1118 32.0303 37.1234 32.3374 37.106Z" fill="#ACA49D"/>
<path d="M31.9263 34.2394C32.8127 34.2104 33.6064 34.3958 34.3422 34.8243C34.4117 34.8648 34.4928 34.8996 34.5392 34.969C34.6029 35.0559 34.6145 35.1486 34.545 35.2296C34.4754 35.3107 34.4233 35.4381 34.2727 35.386C34.1742 35.3512 34.0699 35.3281 33.9888 35.2702C33.4674 34.9285 32.8822 34.8243 32.2797 34.7953C31.6018 34.7664 30.9414 34.8532 30.2867 35.027C29.8406 35.1486 29.4234 35.3107 29.0642 35.606C28.8846 35.7508 28.8267 35.7508 28.7282 35.635C28.6297 35.5192 28.6239 35.357 28.7456 35.2412C28.8962 35.1022 29.0585 34.969 29.2439 34.8706C29.7305 34.6042 30.2635 34.4652 30.7965 34.3552C31.1847 34.2857 31.5671 34.1931 31.9263 34.2394Z" fill="#ACA49D"/>
<path d="M32.2042 40.0996C32.8937 40.0186 33.5483 40.3371 34.2262 40.5455C34.371 40.5918 34.4753 40.7887 34.4405 40.8872C34.3768 41.0493 34.1856 41.1188 34.0002 41.0435C33.4498 40.8235 32.8821 40.6613 32.2969 40.6034C31.8972 40.5687 31.4916 40.6382 31.1035 40.7308C30.4488 40.8872 29.8057 41.0957 29.2669 41.5184C29.1568 41.6052 29.0409 41.611 28.9193 41.5473C28.786 41.4721 28.7686 41.362 28.8613 41.2404C29.0236 41.0262 29.2553 40.9046 29.4813 40.7829C30.1185 40.4355 30.8022 40.1981 31.5264 40.0996C31.7292 40.0765 31.9435 40.0996 32.2042 40.0996Z" fill="#ACA49D"/>
<path d="M34.4637 42.688C34.4637 42.8386 34.3884 42.937 34.2262 42.9602C33.9307 43.0065 33.6353 43.0528 33.3398 43.0876C32.1058 43.215 30.9876 43.6204 30.0838 44.5063C30.0259 44.5643 29.9621 44.6164 29.8868 44.6569C29.7825 44.7148 29.6898 44.7148 29.6087 44.6222C29.5218 44.5237 29.5045 44.4137 29.5971 44.3152C29.7883 44.1126 29.9795 43.9041 30.1997 43.7304C31.005 43.0934 31.9262 42.7344 32.94 42.578C33.334 42.5143 33.7395 42.5027 34.1335 42.4101C34.3131 42.3753 34.4637 42.5201 34.4637 42.688Z" fill="#ACA49D"/>
<path d="M35.0548 44.7499C35.0375 44.8657 34.939 44.9526 34.8289 45.0105C34.4987 45.1842 34.1858 45.3927 33.8672 45.5838C33.4327 45.8501 33.0271 46.1455 32.6679 46.5045C32.3666 46.8056 32.1117 47.1415 31.9321 47.5353C31.8974 47.6105 31.8568 47.68 31.822 47.7553C31.7641 47.8827 31.6656 47.9232 31.544 47.8711C31.4339 47.819 31.3586 47.7264 31.3933 47.5932C31.4513 47.3615 31.5555 47.1473 31.683 46.9446C32.1639 46.1455 32.8475 45.5548 33.6412 45.08C33.8788 44.9352 34.1163 44.7904 34.3538 44.6399C34.4697 44.5704 34.5856 44.4951 34.7188 44.4661C34.8984 44.4314 35.0664 44.5646 35.0548 44.7499Z" fill="#ACA49D"/>
<path d="M38.1428 48.0911C38.1544 48.1837 38.1139 48.2706 38.0733 48.3516C37.8879 48.7338 37.6678 49.0871 37.4071 49.4287C37.1116 49.8167 36.8219 50.2047 36.5206 50.5811C36.2426 50.9286 35.9297 51.2413 35.5647 51.5018C35.5068 51.5424 35.443 51.5829 35.3793 51.6061C35.2519 51.6524 35.1592 51.5887 35.0896 51.4903C35.0201 51.3918 35.0259 51.305 35.107 51.2123C35.2403 51.0502 35.4257 50.9459 35.5763 50.8069C35.9297 50.4942 36.1904 50.112 36.4917 49.753C36.7698 49.4229 37.0189 49.0697 37.2854 48.728C37.4302 48.5369 37.5461 48.3343 37.662 48.1258C37.6967 48.0621 37.7315 47.9984 37.7721 47.9405C37.8416 47.8478 37.9343 47.8073 38.0443 47.8536C38.1428 47.8942 38.1486 47.9926 38.1428 48.0911Z" fill="#ACA49D"/>
<path d="M34.07 49.7008C33.8962 49.695 33.8093 49.5386 33.8556 49.3533C33.9541 48.948 34.1569 48.6005 34.435 48.3052C34.8463 47.8651 35.2634 47.4366 35.7675 47.0891C35.9934 46.9328 36.0687 46.9328 36.2194 47.0949C36.3179 47.1991 36.3179 47.2976 36.2136 47.3902C35.9934 47.5813 35.7733 47.7666 35.5589 47.9577C35.1997 48.2704 34.8463 48.5889 34.5624 48.9827C34.4581 49.1275 34.4002 49.2954 34.3365 49.4576C34.2901 49.5792 34.2148 49.695 34.07 49.7008Z" fill="#ACA49D"/>
</svg>
