<svg width="64" height="64" viewBox="0 0 64 64" fill="none" xmlns="http://www.w3.org/2000/svg">
<circle cx="32" cy="32" r="32" fill="#EEF4FF"/>
<path d="M31.9731 51.9781C31.4049 52.0553 30.8478 51.9174 30.2961 51.741C29.0384 51.3274 27.7861 50.8863 26.6001 50.2963C25.3368 49.6677 24.1452 48.9289 23.1081 47.9585C21.9221 46.8446 21.1222 45.4993 20.6092 43.9664C20.1954 42.7258 20.1072 41.4631 20.223 40.1673C20.383 38.3808 20.7967 36.644 21.1829 34.8961C21.3704 34.0359 21.4863 33.1647 21.5304 32.288C21.5635 31.6704 21.6352 31.0584 21.6518 30.4464C21.6738 29.7957 21.5856 29.1561 21.4366 28.5275C21.2656 27.8107 21.1608 27.0829 21.0836 26.344C21.0229 25.732 20.9346 25.12 20.8684 24.5079C20.8133 23.9676 20.7636 23.4217 20.736 22.8758C20.6974 22.0763 20.6092 21.2878 20.554 20.4883C20.5264 20.0858 20.5044 19.6833 20.4933 19.2752C20.4878 19.1429 20.4602 19.0382 20.3389 18.972C20.2892 18.9444 20.2506 18.8893 20.2009 18.8562C19.2631 18.2331 18.7556 17.2682 18.1929 16.3474C18.1267 16.2371 18.0826 16.1103 18.044 15.9835C17.9337 15.6306 18.0274 15.3935 18.3639 15.2391C18.8108 15.0296 19.2852 14.8752 19.7596 14.7318C20.0189 14.6491 20.2837 14.5774 20.543 14.5002C20.9953 14.3679 21.4422 14.3789 21.889 14.5223C22.4186 14.6932 22.9482 14.8586 23.4722 15.0406C23.6432 15.1012 23.7701 15.0847 23.9191 14.9744C24.2114 14.7539 24.4707 14.5002 24.7024 14.219C25.723 12.9949 27.0414 12.3223 28.6136 12.1238C29.4576 12.0135 30.3072 11.9804 31.1567 12.019C31.5484 12.0355 31.9456 12.0962 32.3372 12.0521C32.9054 11.9914 33.4681 11.9914 34.0363 12.0135C34.8252 12.0466 35.6085 12.1072 36.3753 12.3333C37.622 12.6972 38.6371 13.3975 39.4259 14.423C39.63 14.6877 39.9059 14.8531 40.1541 15.0571C40.2479 15.1343 40.3472 15.0902 40.441 15.0571C40.8547 14.9193 41.2629 14.7814 41.6822 14.6491C41.969 14.5609 42.2504 14.4451 42.5593 14.423C42.8848 14.401 43.1992 14.4396 43.5136 14.5388C44.1536 14.7318 44.788 14.9248 45.4168 15.1564C45.9575 15.3549 46.0843 15.6967 45.8306 16.204C45.461 16.9374 45.0252 17.6321 44.479 18.2497C44.2363 18.5254 43.9219 18.7459 43.624 18.972C43.4971 19.0712 43.4419 19.176 43.4419 19.3304C43.453 20.0803 43.3702 20.8246 43.304 21.569C43.1937 22.8648 43.133 24.1661 42.9675 25.4618C42.8517 26.3937 42.7634 27.3255 42.5814 28.2518C42.4986 28.6654 42.3993 29.0789 42.3276 29.498C42.2614 29.9115 42.278 30.3251 42.3 30.7386C42.3386 31.4554 42.3993 32.1667 42.46 32.8835C42.5262 33.6775 42.6641 34.466 42.8462 35.2434C43.133 36.473 43.3978 37.7081 43.5964 38.9543C43.7067 39.6435 43.7784 40.3383 43.7895 41.033C43.8171 42.825 43.3261 44.4792 42.4103 46.0176C41.5112 47.5394 40.2148 48.6422 38.7309 49.552C37.0483 50.583 35.2058 51.2613 33.3302 51.8457C32.9054 51.967 32.4586 52.0277 31.9731 51.9781Z" fill="#7F8FB0"/>
<path d="M37.3848 40.9117C37.3517 42.009 37.1255 43.0511 36.4746 43.9609C35.9616 44.6722 35.3216 45.2401 34.5493 45.6812C33.8377 46.0838 33.082 46.3429 32.2986 46.5524C32.1 46.6076 31.8959 46.6131 31.6973 46.5635C30.7099 46.3208 29.7776 45.9459 28.9336 45.3725C27.7144 44.5454 26.9531 43.4095 26.6939 41.9539C26.6277 41.5789 26.5504 41.1985 26.578 40.8125C26.6442 39.9578 26.7821 39.1142 27.1076 38.3092C27.4 37.5869 27.6648 36.8535 28.0454 36.1753C28.6688 35.067 29.2259 33.9257 29.8769 32.8284C30.2023 32.2825 30.4892 31.7146 30.8588 31.1963C31.0629 30.9041 31.2781 30.6284 31.5815 30.4299C31.9014 30.2203 32.1 30.2203 32.4089 30.4464C32.5965 30.5842 32.7785 30.7441 32.9054 30.9316C33.1923 31.3452 33.5233 31.7311 33.7439 32.1888C34.108 32.9332 34.5604 33.6279 34.9465 34.3612C35.7078 35.8059 36.5298 37.223 37.0262 38.7944C37.2524 39.4892 37.3959 40.1839 37.3848 40.9117Z" fill="#BEC9E0"/>
<path d="M25.5742 24.6128C26.341 24.6128 26.8706 25.2083 26.7437 25.9582C26.6168 26.6915 26.2583 27.3035 25.6239 27.7226C25.3425 27.9101 25.0281 28.0148 24.6805 27.9817C24.4213 27.9597 24.2337 27.8218 24.0848 27.6123C23.842 27.2484 23.8089 26.8624 23.9303 26.4544C24.1068 25.8754 24.4158 25.3682 24.8074 24.9105C25.006 24.6679 25.2874 24.6072 25.5742 24.6128Z" fill="#191B1F"/>
<path d="M38.4274 24.6184C38.7584 24.5963 39.0397 24.7286 39.2549 25.0043C39.6134 25.4675 39.9279 25.9637 40.0768 26.5427C40.1375 26.7798 40.143 27.0224 40.0713 27.2595C39.8782 27.8936 39.3983 28.1362 38.7749 27.9212C38.4164 27.7999 38.1074 27.5848 37.8647 27.2926C37.5503 26.9121 37.3517 26.4821 37.2413 25.9968C37.0814 25.3186 37.6385 24.5577 38.4274 24.6184Z" fill="#191B1F"/>
<path d="M41.2026 16.4688C41.1805 15.9891 41.4232 15.7575 41.7708 15.6086C42.0962 15.4707 42.4438 15.3991 42.7913 15.3439C43.2602 15.2723 43.7346 15.3219 44.198 15.3991C44.3028 15.4156 44.3911 15.4487 44.4849 15.4983C44.7552 15.6417 44.849 15.8788 44.7331 16.1545C44.6448 16.3695 44.5235 16.568 44.369 16.7445C43.9222 17.2462 43.3871 17.6432 42.8354 18.0126C42.5486 18.2056 42.2948 18.0843 42.0852 17.9189C41.6659 17.5936 41.3294 17.1911 41.2191 16.6452C41.2136 16.6176 41.2026 16.5846 41.2026 16.557C41.2026 16.5074 41.2026 16.4577 41.2026 16.4688Z" fill="#BEC9E0"/>
<path d="M22.7553 16.3697C22.7608 16.8384 22.6119 17.1968 22.325 17.4891C22.0989 17.7151 21.9058 17.9798 21.5748 18.0846C21.4314 18.1287 21.3155 18.1287 21.2052 18.0515C20.5818 17.6214 19.9419 17.2134 19.484 16.5903C19.3792 16.4525 19.302 16.2981 19.2413 16.1382C19.131 15.8514 19.2413 15.5978 19.5282 15.4765C19.6385 15.4269 19.7599 15.4048 19.8757 15.3828C20.6977 15.2394 21.4976 15.3056 22.2644 15.6474C22.5953 15.7908 22.7995 16.0334 22.7553 16.3697Z" fill="#BEC9E0"/>
<path d="M39.9834 44.9479C39.9834 45.0802 39.9006 45.1409 39.7682 45.1354C39.531 45.1243 39.3048 45.1629 39.0842 45.2291C38.4112 45.4276 37.8374 45.7805 37.3961 46.3484C37.1534 46.6627 36.9107 46.966 36.7838 47.3519C36.7507 47.4567 36.679 47.5394 36.5576 47.4843C36.4473 47.4346 36.3921 47.3464 36.4307 47.2141C36.4914 46.988 36.5907 46.7785 36.7231 46.5855C37.1313 45.99 37.6058 45.4552 38.2512 45.1023C38.676 44.8707 39.1338 44.7659 39.6082 44.7218C39.8289 44.6998 39.9778 44.799 39.9834 44.9479Z" fill="#5E6168"/>
<path d="M24.4268 44.7162C25.3757 44.832 26.1756 45.2235 26.7879 45.9734C27.0472 46.2876 27.2844 46.6074 27.4609 46.9769C27.5161 47.0872 27.5547 47.2029 27.5381 47.3243C27.5271 47.4014 27.4995 47.4621 27.4223 47.4842C27.3451 47.5117 27.2844 47.4676 27.2402 47.4125C27.2127 47.3739 27.1961 47.3243 27.174 47.2801C26.81 46.4531 26.2252 45.8355 25.4308 45.4164C25.0833 45.2345 24.7082 45.1683 24.3275 45.1352C24.2889 45.1297 24.2448 45.1352 24.2062 45.1352C24.0958 45.1297 24.0021 45.0746 23.9855 44.9643C23.969 44.8485 24.0517 44.7879 24.162 44.7548C24.2503 44.7272 24.3386 44.7052 24.4268 44.7162Z" fill="#5E6168"/>
<path d="M33.3635 13.7008C33.3745 13.8496 33.3525 13.9213 33.2918 13.982C33.1925 14.0812 33.0932 14.0757 33.0215 13.9599C32.9884 13.8993 32.9553 13.8331 32.9498 13.7669C32.9387 13.5464 32.9443 13.3258 32.9443 13.1053C32.9443 12.9895 33.0049 12.9123 33.1263 12.9178C33.2366 12.9178 33.2973 12.9784 33.3028 13.0832C33.3194 13.3093 33.2808 13.5464 33.3635 13.7008Z" fill="#7487AE"/>
<path d="M30.6436 13.4525C30.6547 13.3643 30.6105 13.2155 30.6822 13.0721C30.7264 12.9894 30.765 12.8956 30.8753 12.9232C30.9912 12.9508 31.0849 13.0445 31.0518 13.1658C30.9912 13.3864 31.0077 13.6014 31.0022 13.822C31.0022 13.8826 30.9746 13.9378 30.9305 13.9819C30.8808 14.037 30.8202 14.0756 30.7429 14.0481C30.6822 14.026 30.6436 13.9764 30.6436 13.9102C30.6381 13.7779 30.6436 13.6455 30.6436 13.4525Z" fill="#7487AE"/>
<path d="M41.9251 43.2717C41.9416 43.0842 41.903 42.9574 42.0023 42.8582C42.0519 42.803 42.1071 42.7589 42.1899 42.7865C42.2561 42.8085 42.2947 42.8582 42.2947 42.9188C42.2947 43.1339 42.3885 43.3324 42.3664 43.5474C42.3554 43.6301 42.3609 43.7073 42.2947 43.7735C42.245 43.8286 42.1899 43.8727 42.1071 43.8452C42.0464 43.8231 42.0133 43.7735 42.0023 43.7128C41.9692 43.5419 41.892 43.382 41.9251 43.2717Z" fill="#7487AE"/>
<path d="M23.8362 36.3682C23.8638 36.5226 23.8031 36.688 23.7756 36.8534C23.759 36.9306 23.7259 36.9858 23.6432 36.9968C23.5604 37.0078 23.5108 36.9582 23.4666 36.9031C23.3894 36.8093 23.4004 36.688 23.4225 36.5888C23.4501 36.4289 23.4832 36.28 23.4777 36.1146C23.4722 35.9988 23.5328 35.9216 23.6597 35.9216C23.7866 35.9216 23.8362 35.9988 23.8418 36.1146C23.8362 36.1863 23.8362 36.269 23.8362 36.3682Z" fill="#7487AE"/>
<path d="M41.1965 28.6489C41.2185 28.8143 41.1965 28.9632 41.1358 29.1066C41.0696 29.261 40.9372 29.272 40.8324 29.1397C40.7827 29.079 40.7827 29.0128 40.7772 28.9412C40.7496 28.7371 40.8213 28.5442 40.8489 28.3457C40.86 28.2519 40.9261 28.1692 41.031 28.1747C41.1303 28.1802 41.1854 28.2685 41.1965 28.3622C41.2075 28.4559 41.1965 28.5552 41.1965 28.6489Z" fill="#7487AE"/>
<path d="M42.3552 38.6401C42.3386 38.4637 42.3717 38.2982 42.46 38.1494C42.4986 38.0832 42.5648 38.0225 42.6586 38.0446C42.7524 38.0666 42.7744 38.1438 42.78 38.2266C42.7965 38.4857 42.7138 38.7393 42.7027 38.9985C42.6972 39.1363 42.5317 39.1474 42.4269 39.0371C42.3111 38.9213 42.3717 38.7779 42.3552 38.6401Z" fill="#7487AE"/>
<path d="M40.5291 36.5669C40.5291 36.6551 40.5346 36.7489 40.5291 36.8371C40.5235 36.9143 40.4849 36.9694 40.4077 36.986C40.3415 37.0025 40.2919 36.9639 40.2477 36.9198C40.2257 36.8977 40.1981 36.8757 40.1926 36.8481C40.165 36.589 40.1374 36.3353 40.1264 36.0762C40.1208 36.0045 40.176 35.9218 40.2753 35.9108C40.3801 35.9053 40.4353 35.9604 40.4739 36.0541C40.5401 36.2251 40.5346 36.396 40.5291 36.5669Z" fill="#7487AE"/>
<path d="M30.8754 16.5514C30.8754 16.6617 30.8864 16.7775 30.8699 16.8822C30.8588 16.9925 30.7871 17.0697 30.6713 17.0807C30.5554 17.0918 30.5389 16.9925 30.5003 16.9043C30.3789 16.6396 30.5113 16.3915 30.5334 16.1324C30.5389 16.0441 30.6437 16.0607 30.7099 16.0607C30.8037 16.0662 30.8644 16.1158 30.8699 16.2096C30.8809 16.3309 30.8754 16.4411 30.8754 16.5514Z" fill="#7487AE"/>
<path d="M35.796 17.6156C35.796 17.7589 35.7849 17.8582 35.6525 17.8802C35.5312 17.9023 35.454 17.8416 35.4209 17.7369C35.3491 17.5053 35.3491 17.2682 35.3271 17.0311C35.3216 16.9594 35.3712 16.8767 35.476 16.8657C35.5698 16.8547 35.6305 16.8988 35.6691 16.976C35.6857 17.0146 35.7132 17.0476 35.7188 17.0862C35.7353 17.2737 35.7574 17.4612 35.796 17.6156Z" fill="#7487AE"/>
<path d="M41.9969 19.6226C41.9969 19.5234 41.9858 19.4186 41.9969 19.3194C42.0079 19.2146 42.0686 19.1154 42.1844 19.1209C42.2782 19.1264 42.3389 19.2146 42.3499 19.3084C42.372 19.5344 42.3389 19.766 42.4051 19.9921C42.4327 20.0913 42.361 20.1685 42.2561 20.174C42.1293 20.1851 42.0355 20.1134 42.0079 19.9976C41.9803 19.8708 41.9914 19.7384 41.9858 19.6061C41.9858 19.6226 41.9914 19.6226 41.9969 19.6226Z" fill="#7487AE"/>
<path d="M22.0159 19.6779C22.0269 19.7826 21.9993 19.9205 21.9497 20.0528C21.9055 20.1686 21.8228 20.2072 21.7125 20.1796C21.6021 20.152 21.569 20.0528 21.5966 19.9646C21.6683 19.7385 21.6408 19.5069 21.6518 19.2753C21.6573 19.1981 21.6849 19.1375 21.7676 19.1154C21.8669 19.0879 21.9111 19.154 21.9552 19.2257C22.0379 19.358 22.0104 19.5014 22.0159 19.6779Z" fill="#7487AE"/>
<path d="M21.5853 38.6291C21.5853 38.7283 21.5963 38.8331 21.5798 38.9268C21.5632 39.015 21.5081 39.1032 21.4033 39.1032C21.304 39.0977 21.2488 39.015 21.2322 38.9213C21.2212 38.8662 21.2267 38.8 21.2267 38.7393C21.2212 38.5905 21.2433 38.4416 21.1826 38.2927C21.144 38.1935 21.1605 38.0887 21.2819 38.0446C21.4088 38.0005 21.486 38.0666 21.5467 38.1824C21.6184 38.3313 21.5743 38.4802 21.5853 38.6291Z" fill="#7487AE"/>
<path d="M34.1632 47.7214C34.1632 47.6222 34.1522 47.5174 34.1632 47.4237C34.1798 47.3023 34.2515 47.2086 34.3784 47.2141C34.5108 47.2196 34.5273 47.3299 34.5218 47.4347C34.5218 47.567 34.5273 47.6938 34.5715 47.8207C34.6101 47.9309 34.5659 48.0357 34.5053 48.1349C34.4556 48.2121 34.3894 48.2397 34.3011 48.2232C34.2074 48.2066 34.1632 48.146 34.1577 48.0522C34.1577 47.942 34.1632 47.8317 34.1632 47.7214Z" fill="#7487AE"/>
<path d="M23.169 28.7261C23.169 28.8363 23.169 28.9466 23.169 29.0569C23.169 29.1341 23.1359 29.1947 23.0587 29.2168C22.9814 29.2388 22.9263 29.1947 22.8766 29.1396C22.8656 29.1231 22.8435 29.1065 22.8435 29.09C22.7884 28.8033 22.7939 28.511 22.8435 28.2243C22.8601 28.1416 22.9594 28.114 23.0421 28.1692C23.1249 28.2188 23.1745 28.2905 23.1745 28.3897C23.169 28.5055 23.169 28.6158 23.169 28.7261Z" fill="#7487AE"/>
<path d="M22.0104 43.2992C22.0104 43.4095 22.0215 43.5198 22.0104 43.63C21.9994 43.7513 21.9277 43.8451 21.8008 43.8451C21.6684 43.8451 21.6519 43.7348 21.6519 43.6245C21.6519 43.4315 21.6519 43.2441 21.6519 43.0511C21.6519 42.9794 21.6629 42.9132 21.7181 42.8581C21.7677 42.8085 21.8174 42.7588 21.9001 42.7809C21.9773 42.803 22.0104 42.8636 22.0159 42.9408C22.0159 43.0621 22.0104 43.1834 22.0104 43.2992Z" fill="#7487AE"/>
<path d="M40.4135 41.794C40.4466 41.9373 40.3473 42.0862 40.3473 42.2461C40.3473 42.3123 40.3087 42.3619 40.248 42.384C40.1708 42.4115 40.1101 42.3729 40.0605 42.3178C40.0163 42.2737 39.9943 42.2185 39.9887 42.1579C39.9667 41.9539 40.0053 41.7554 40.0605 41.5624C40.088 41.4631 40.1598 41.3749 40.2756 41.3859C40.408 41.4025 40.4135 41.5128 40.4135 41.6175C40.4135 41.6672 40.4135 41.7168 40.4135 41.794Z" fill="#7487AE"/>
<path d="M26.5669 17.5054C26.5559 17.6267 26.5007 17.7921 26.5007 17.963C26.5007 18.0954 26.3849 18.1836 26.2911 18.167C26.1752 18.145 26.0925 18.0292 26.109 17.8969C26.1366 17.7094 26.1752 17.5274 26.2028 17.34C26.2194 17.2187 26.2801 17.158 26.4014 17.1635C26.5283 17.169 26.5669 17.2573 26.5669 17.3675C26.5669 17.4006 26.5669 17.4282 26.5669 17.5054Z" fill="#7487AE"/>
<path d="M29.6617 20.4608C29.6672 20.6152 29.6782 20.7751 29.5679 20.9129C29.5238 20.9681 29.4796 21.0343 29.3969 21.0122C29.3252 20.9901 29.2755 20.935 29.259 20.8633C29.2424 20.7972 29.2314 20.72 29.2479 20.6538C29.2865 20.5049 29.3086 20.356 29.3031 20.2072C29.3031 20.0914 29.3527 20.0142 29.4796 20.0087C29.6065 20.0087 29.6562 20.0859 29.6617 20.2017C29.6672 20.2899 29.6617 20.3726 29.6617 20.4608Z" fill="#7487AE"/>
<path d="M23.9579 41.9317C23.9579 42.031 23.9634 42.1302 23.9579 42.2295C23.9524 42.3343 23.8917 42.3949 23.7869 42.3949C23.6821 42.3949 23.6159 42.3453 23.6048 42.235C23.5883 42.02 23.6159 41.7994 23.5552 41.5789C23.5276 41.4851 23.6214 41.4134 23.7097 41.3804C23.7979 41.3473 23.8586 41.4079 23.9027 41.4851C23.98 41.6285 23.9524 41.7829 23.9579 41.9317Z" fill="#7487AE"/>
<path d="M25.6072 31.2405C25.6293 31.3397 25.5631 31.4886 25.53 31.6485C25.5079 31.7588 25.4252 31.7919 25.3259 31.7753C25.2321 31.7643 25.1935 31.6981 25.1769 31.6099C25.1438 31.3728 25.2376 31.1523 25.2542 30.9262C25.2597 30.849 25.3259 30.7718 25.4197 30.7773C25.5079 30.7828 25.5631 30.8545 25.5852 30.9317C25.6017 31.0089 25.5962 31.0916 25.6072 31.2405Z" fill="#7487AE"/>
<path d="M28.2054 17.4833C28.1889 17.362 28.2661 17.2021 28.2882 17.0311C28.3047 16.9319 28.3875 16.8492 28.5033 16.8712C28.6137 16.8878 28.6247 16.9815 28.6302 17.0808C28.6523 17.3124 28.553 17.5329 28.553 17.759C28.553 17.8472 28.4647 17.8858 28.3764 17.8858C28.2827 17.8803 28.222 17.8362 28.2109 17.7424C28.2054 17.6708 28.2109 17.5991 28.2054 17.4833Z" fill="#7487AE"/>
<path d="M29.4245 14.6104C29.4134 14.7262 29.4521 14.8696 29.3803 15.0019C29.3362 15.0846 29.2921 15.1728 29.1818 15.1398C29.0769 15.1122 28.9887 15.024 29.0107 14.9247C29.0604 14.7262 29.0494 14.5277 29.0714 14.3292C29.088 14.2134 29.1652 14.1197 29.2976 14.1418C29.4079 14.1583 29.4245 14.252 29.4245 14.3513C29.4245 14.4285 29.4245 14.5057 29.4245 14.6104Z" fill="#7487AE"/>
<path d="M34.9466 14.7869C34.9466 14.8365 34.9466 14.8586 34.9466 14.8806C34.9466 14.9909 34.9577 15.1177 34.8087 15.1453C34.7094 15.1673 34.5991 15.0516 34.5881 14.9082C34.5825 14.7979 34.5494 14.6932 34.5329 14.5829C34.5164 14.4726 34.4998 14.3568 34.5605 14.2576C34.6046 14.1859 34.6598 14.1252 34.7536 14.1363C34.8529 14.1528 34.8915 14.2245 34.8859 14.3127C34.8694 14.4891 34.9853 14.6435 34.9466 14.7869Z" fill="#7487AE"/>
<path d="M33.4899 16.5515C33.4899 16.6507 33.4954 16.7555 33.4899 16.8547C33.4734 16.9926 33.363 17.1028 33.2637 17.0863C33.1313 17.0587 33.1313 16.954 33.1313 16.8492C33.1313 16.6562 33.1313 16.4687 33.1313 16.2758C33.1313 16.16 33.1755 16.0773 33.3024 16.0717C33.4458 16.0662 33.4954 16.1545 33.4954 16.2813C33.4899 16.375 33.4899 16.4632 33.4899 16.5515Z" fill="#7487AE"/>
<path d="M25.7784 38.1549C25.7784 38.2431 25.7784 38.3368 25.7784 38.425C25.7784 38.5353 25.7398 38.6235 25.6129 38.6346C25.4916 38.6456 25.4474 38.5739 25.4143 38.4636C25.3481 38.2431 25.4033 38.0336 25.4254 37.8185C25.4364 37.7248 25.4971 37.6807 25.5909 37.6752C25.6957 37.6696 25.7674 37.7193 25.7729 37.8295C25.7839 37.9398 25.7729 38.0501 25.7784 38.1549Z" fill="#7487AE"/>
<path d="M38.7696 31.3893C38.7696 31.472 38.7696 31.5382 38.7696 31.6098C38.7641 31.687 38.731 31.7477 38.6538 31.7697C38.571 31.7918 38.5214 31.7422 38.4717 31.6925C38.4276 31.6484 38.4055 31.5933 38.411 31.5271C38.4165 31.3783 38.4 31.2294 38.3559 31.0805C38.3338 31.0143 38.3393 30.9371 38.3835 30.8765C38.4221 30.8213 38.4717 30.7552 38.5489 30.7717C38.6151 30.7827 38.6869 30.8158 38.7034 30.8985C38.742 31.064 38.7972 31.2239 38.7696 31.3893Z" fill="#7487AE"/>
<path d="M37.8644 17.9023C37.8534 17.9464 37.8589 18.0016 37.8368 18.0401C37.8037 18.1008 37.7596 18.167 37.6824 18.167C37.5996 18.167 37.5444 18.1063 37.5279 18.0457C37.4893 17.9023 37.4286 17.7645 37.4396 17.6101C37.4451 17.5494 37.4507 17.4832 37.4341 17.4336C37.39 17.3013 37.4341 17.2076 37.561 17.18C37.7044 17.1469 37.7541 17.2737 37.7817 17.373C37.8203 17.5384 37.8368 17.7203 37.8644 17.9023Z" fill="#7487AE"/>
<path d="M40.6614 33.0434C40.6558 33.1537 40.6614 33.2639 40.6393 33.3742C40.6172 33.4955 40.5345 33.5617 40.4021 33.5452C40.2752 33.5286 40.2421 33.4514 40.2311 33.3356C40.2145 33.1426 40.3028 32.9662 40.3028 32.7732C40.3028 32.685 40.3855 32.6409 40.4738 32.6409C40.5676 32.6409 40.6338 32.685 40.6448 32.7787C40.6558 32.8669 40.6448 32.9607 40.6448 33.0489C40.6503 33.0434 40.6558 33.0434 40.6614 33.0434Z" fill="#7487AE"/>
<path d="M31.1235 48.6752C31.118 48.8131 31.1346 48.9454 31.0684 49.0667C31.0132 49.166 30.936 49.2156 30.8201 49.1825C30.7098 49.1549 30.6822 49.0612 30.7043 48.9675C30.7484 48.78 30.765 48.5925 30.765 48.405C30.765 48.3278 30.7981 48.2672 30.8698 48.2396C30.9636 48.2121 31.0242 48.2672 31.0739 48.3334C31.1566 48.4436 31.1125 48.5705 31.1235 48.6752Z" fill="#7487AE"/>
<path d="M29.7889 47.7546C29.7889 47.8538 29.7889 47.9586 29.7889 48.0578C29.7889 48.1185 29.7944 48.1847 29.7227 48.2122C29.651 48.2398 29.5848 48.2232 29.5241 48.1736C29.4689 48.124 29.4248 48.0689 29.4248 47.9917C29.4248 47.8097 29.4193 47.6278 29.4248 47.4458C29.4248 47.3355 29.4855 47.2307 29.5903 47.2252C29.7227 47.2197 29.7724 47.33 29.7834 47.4513C29.7944 47.5506 29.7889 47.6553 29.7889 47.7546Z" fill="#7487AE"/>
<path d="M41.3841 40.0791C41.3786 40.1453 41.3841 40.206 41.373 40.2666C41.351 40.3548 41.2903 40.3989 41.1965 40.3934C41.1193 40.3934 41.0476 40.3603 41.0365 40.2831C41.0034 40.0791 40.9317 39.8751 40.9593 39.6656C40.9703 39.5939 40.9979 39.5333 41.0586 39.4891C41.1634 39.4009 41.2903 39.4285 41.3124 39.5553C41.3455 39.7318 41.362 39.9137 41.3841 40.0791Z" fill="#7487AE"/>
<path d="M25.3588 15.1453C25.3532 14.9689 25.3477 14.8255 25.436 14.7042C25.5187 14.5884 25.6235 14.5829 25.7008 14.7042C25.7504 14.7814 25.8001 14.8641 25.7725 14.9579C25.7284 15.0957 25.7063 15.228 25.7559 15.3714C25.789 15.4596 25.7063 15.5203 25.6346 15.5589C25.5463 15.6085 25.4801 15.5534 25.4249 15.4927C25.3146 15.3769 25.3698 15.2391 25.3588 15.1453Z" fill="#7587AE"/>
<path d="M39.376 22.5174C39.376 22.6056 39.387 22.6993 39.3704 22.7876C39.3484 22.8923 39.2822 22.9695 39.1663 22.975C39.0725 22.9805 39.0339 22.9033 39.0008 22.8262C38.8905 22.5835 38.9953 22.3575 39.045 22.1259C39.0615 22.0542 39.1663 22.0708 39.2325 22.0818C39.3098 22.0928 39.3649 22.1424 39.3704 22.2196C39.376 22.3134 39.3704 22.4126 39.376 22.5174C39.3704 22.5174 39.3704 22.5174 39.376 22.5174Z" fill="#7587AE"/>
<path d="M34.6981 20.6041C34.6981 20.6813 34.7091 20.764 34.6981 20.8412C34.687 20.9294 34.6153 20.9735 34.5271 20.9735C34.4333 20.9735 34.3616 20.9294 34.356 20.8412C34.334 20.6427 34.3395 20.4442 34.2954 20.2457C34.2678 20.1299 34.3616 20.0362 34.4884 20.0196C34.6043 20.0031 34.6264 20.1023 34.665 20.185C34.7091 20.3229 34.7036 20.4662 34.6981 20.6041Z" fill="#7487AE"/>
<path d="M34.7587 25.1311C34.7587 25.2304 34.7642 25.3296 34.7587 25.4344C34.7532 25.5116 34.7146 25.5667 34.6373 25.5833C34.5711 25.5943 34.516 25.5667 34.4829 25.5171C34.4553 25.4785 34.4167 25.4344 34.4112 25.3903C34.4056 25.1918 34.4001 24.9878 34.4112 24.7893C34.4167 24.6845 34.4884 24.6294 34.5932 24.6349C34.7035 24.6404 34.7587 24.701 34.7642 24.8058C34.7642 24.9106 34.7642 25.0208 34.7587 25.1311C34.7642 25.1311 34.7642 25.1311 34.7587 25.1311Z" fill="#7487AE"/>
<path d="M22.9318 46.205C22.9043 46.0672 22.9594 45.9348 22.987 45.797C22.998 45.7308 23.0311 45.6867 23.1028 45.6812C23.1746 45.6757 23.2408 45.6757 23.2904 45.7473C23.3511 45.8356 23.3732 45.9348 23.3401 46.0341C23.2959 46.1609 23.2849 46.2877 23.2904 46.42C23.2959 46.5248 23.2573 46.591 23.1359 46.591C23.0201 46.591 22.9374 46.5469 22.9318 46.4256C22.9263 46.3539 22.9318 46.2822 22.9318 46.205Z" fill="#7487AE"/>
<path d="M25.1769 42.7479C25.1769 42.6597 25.1659 42.5659 25.1825 42.4777C25.199 42.384 25.2652 42.3123 25.359 42.2958C25.4748 42.2737 25.5134 42.3619 25.5521 42.4446C25.6624 42.6762 25.541 42.8968 25.4969 43.1118C25.4804 43.1835 25.3921 43.1945 25.3149 43.1835C25.2376 43.1725 25.1825 43.1228 25.1769 43.0456C25.1714 42.9519 25.1825 42.8472 25.1769 42.7479Z" fill="#7587AE"/>
<path d="M38.229 15.0903C38.229 14.9911 38.229 14.8918 38.229 14.7871C38.229 14.7099 38.2621 14.6492 38.3393 14.6272C38.4331 14.5996 38.4883 14.6603 38.5434 14.7209C38.5765 14.7595 38.5876 14.8091 38.5931 14.8588C38.5931 15.0297 38.5931 15.2006 38.5931 15.3715C38.5931 15.4873 38.549 15.57 38.4221 15.57C38.2787 15.5756 38.2345 15.4818 38.2345 15.355C38.229 15.2668 38.229 15.1786 38.229 15.0903Z" fill="#7487AE"/>
<path d="M41.9908 21.7345C41.9963 21.9385 42.0074 22.0819 41.9246 22.2087C41.8363 22.341 41.726 22.341 41.6378 22.2087C41.566 22.1039 41.555 21.9826 41.5771 21.8613C41.5936 21.7621 41.6322 21.6683 41.6378 21.5635C41.6433 21.4533 41.715 21.4037 41.8253 21.4092C41.9356 21.4147 41.9853 21.4808 41.9963 21.5856C41.9908 21.6573 41.9908 21.729 41.9908 21.7345Z" fill="#7587AE"/>
<path d="M38.229 38.1603C38.229 38.0611 38.229 37.9563 38.229 37.857C38.2345 37.7523 38.2786 37.6861 38.389 37.6751C38.4883 37.6641 38.5434 37.7302 38.5655 37.8129C38.6152 38.0335 38.6096 38.2541 38.571 38.4746C38.5545 38.5628 38.4772 38.64 38.3724 38.6345C38.2621 38.629 38.229 38.5408 38.229 38.4415C38.229 38.3423 38.229 38.254 38.229 38.1603Z" fill="#7487AE"/>
<path d="M33.2419 48.7635C33.2419 48.8517 33.2474 48.9454 33.2419 49.0336C33.2364 49.1108 33.2033 49.166 33.1205 49.188C33.0543 49.2046 33.0047 49.166 32.9605 49.1274C32.9054 49.0777 32.8833 49.0116 32.8833 48.9399C32.8833 48.78 32.8833 48.6201 32.8833 48.4602C32.8833 48.3499 32.9054 48.2451 33.0378 48.2451C33.1481 48.2451 33.2198 48.3334 33.2364 48.4381C33.2529 48.5429 33.2419 48.6532 33.2419 48.7635Z" fill="#7487AE"/>
<path d="M29.5402 25.1034C29.5402 25.2027 29.5402 25.3019 29.5402 25.4067C29.5402 25.4949 29.5071 25.5666 29.4078 25.5831C29.3141 25.5997 29.2589 25.5335 29.2148 25.4674C29.1982 25.4453 29.1817 25.4122 29.1817 25.3846C29.1761 25.2027 29.1706 25.0207 29.1817 24.8443C29.1927 24.7285 29.2699 24.6292 29.3968 24.6403C29.5292 24.6458 29.5347 24.7616 29.5347 24.8663C29.5457 24.9435 29.5457 25.0207 29.5402 25.1034C29.5457 25.1034 29.5457 25.1034 29.5402 25.1034Z" fill="#7487AE"/>
<path d="M26.0151 47.9033C26.0151 48.0025 26.0262 48.1018 26.0096 48.201C25.9986 48.2948 25.9379 48.3775 25.8386 48.383C25.7338 48.3885 25.6676 48.3003 25.6621 48.212C25.6511 48.0025 25.6511 47.793 25.6621 47.5835C25.6676 47.4952 25.7393 47.4456 25.8276 47.4456C25.9324 47.4456 26.0041 47.4952 26.0096 47.6C26.0262 47.6993 26.0207 47.804 26.0151 47.9033Z" fill="#7487AE"/>
<path d="M35.73 33.6499C35.73 33.7326 35.7411 33.8098 35.73 33.8925C35.719 33.9862 35.6528 34.0303 35.559 34.0303C35.4652 34.0303 35.3935 33.9917 35.3825 33.898C35.3604 33.6995 35.377 33.501 35.3163 33.3025C35.2942 33.2308 35.3439 33.1647 35.4211 33.1371C35.5149 33.104 35.5976 33.1261 35.6583 33.2143C35.7521 33.3466 35.7356 33.4955 35.73 33.6499Z" fill="#7487AE"/>
<path d="M22.6281 39.9358C22.6281 39.8365 22.6171 39.7318 22.6336 39.638C22.6502 39.5333 22.7219 39.445 22.8322 39.445C22.9646 39.445 22.9867 39.5498 22.9867 39.6601C22.9867 39.82 22.9867 39.9799 22.9867 40.1398C22.9867 40.228 22.9536 40.2942 22.8874 40.3493C22.7826 40.432 22.6557 40.3989 22.6336 40.2666C22.6171 40.1563 22.6281 40.0461 22.6281 39.9358Z" fill="#7487AE"/>
<path d="M32.8833 23.4657C32.8833 23.383 32.8833 23.3058 32.8833 23.2231C32.8833 23.1184 32.9109 23.0467 33.0322 23.0467C33.1481 23.0467 33.2364 23.0853 33.2419 23.2066C33.2529 23.3941 33.2474 23.587 33.2419 23.7745C33.2419 23.8793 33.1812 23.9399 33.0709 23.9455C32.9495 23.951 32.8888 23.8793 32.8833 23.7635C32.8833 23.6642 32.8833 23.565 32.8833 23.4657Z" fill="#7487AE"/>
<path d="M23.3506 33.0324C23.3506 32.9497 23.3506 32.8725 23.3506 32.7898C23.3506 32.6961 23.3837 32.6354 23.4885 32.6354C23.5878 32.6299 23.6871 32.652 23.6981 32.7567C23.7257 32.9773 23.7257 33.1978 23.6981 33.4129C23.6871 33.5011 23.6099 33.5397 23.5161 33.5342C23.4223 33.5287 23.3616 33.479 23.3561 33.3908C23.3506 33.275 23.3561 33.1537 23.3506 33.0324C23.3561 33.0324 23.3561 33.0324 23.3506 33.0324Z" fill="#7487AE"/>
<path d="M28.211 33.6885C28.2 33.5397 28.2551 33.4073 28.2938 33.275C28.3213 33.1758 28.4096 33.1096 28.5254 33.1206C28.6303 33.1316 28.7075 33.1923 28.6744 33.2971C28.6192 33.49 28.5696 33.6775 28.5585 33.8815C28.5475 34.0304 28.4041 34.058 28.2938 33.9587C28.211 33.8815 28.2055 33.7878 28.211 33.6885Z" fill="#7487AE"/>
<path d="M26.1973 34.6589C26.2028 34.5707 26.1973 34.477 26.2193 34.3887C26.2414 34.295 26.3131 34.2288 26.4124 34.2233C26.5062 34.2178 26.5503 34.295 26.5834 34.3722C26.6551 34.5376 26.6386 34.7141 26.611 34.8795C26.5889 34.9953 26.4952 35.067 26.3628 35.0559C26.2359 35.0449 26.2028 34.9512 26.2028 34.8409C26.2028 34.7802 26.2028 34.7196 26.2028 34.6589C26.2028 34.6589 26.2028 34.6589 26.1973 34.6589Z" fill="#7587AE"/>
<path d="M38.2838 47.942C38.2838 48.0413 38.2838 48.1405 38.2838 48.2453C38.2838 48.3114 38.2562 48.3666 38.1955 48.3886C38.1349 48.4107 38.0797 48.3721 38.03 48.3335C38.008 48.317 37.9859 48.2894 37.9749 48.2618C37.8866 48.0413 37.9032 47.8097 37.9528 47.5836C37.9694 47.5009 38.0576 47.4292 38.1624 47.4513C38.2562 47.4733 38.2838 47.5505 38.2838 47.6332C38.2893 47.738 38.2838 47.8428 38.2838 47.942Z" fill="#7487AE"/>
<path d="M34.5825 28.114C34.5825 28.0147 34.5825 27.943 34.5825 27.8769C34.5825 27.7997 34.5991 27.739 34.6929 27.728C34.7756 27.717 34.8528 27.728 34.897 27.8162C34.9246 27.8713 34.9411 27.9265 34.9466 27.9871C34.9521 28.1195 34.9466 28.2463 34.9907 28.3731C35.0294 28.4999 34.9411 28.5881 34.8252 28.6212C34.7149 28.6543 34.6708 28.5606 34.6267 28.4779C34.5605 28.3455 34.5936 28.2132 34.5825 28.114Z" fill="#7487AE"/>
<path d="M41.0199 46.1278C41.0199 46.216 41.0199 46.3097 41.0199 46.398C41.0144 46.5193 40.9593 46.5854 40.8324 46.5854C40.722 46.5854 40.6669 46.5193 40.6614 46.4145C40.6558 46.2326 40.6558 46.0506 40.6614 45.8741C40.6614 45.7528 40.722 45.6867 40.8489 45.6867C40.9758 45.6922 41.0199 45.7749 41.0199 45.8852C41.0199 45.9679 41.0199 46.0506 41.0199 46.1278Z" fill="#7487AE"/>
<path d="M36.6509 13.6733C36.6509 13.5905 36.6454 13.5244 36.6509 13.4527C36.6565 13.3479 36.7116 13.2818 36.822 13.2818C36.9268 13.2818 36.993 13.3314 37.004 13.4417C37.0205 13.5905 36.9985 13.7449 37.0536 13.8883C37.0867 13.9655 37.0261 14.0482 36.9764 14.1089C36.9047 14.2081 36.7999 14.2026 36.7282 14.1033C36.6344 13.9655 36.6399 13.8166 36.6509 13.6733Z" fill="#7487AE"/>
<path d="M30.7651 23.5099C30.7651 23.4107 30.7596 23.3114 30.7651 23.2122C30.7706 23.1074 30.8368 23.0523 30.9472 23.0523C31.0575 23.0523 31.1182 23.1129 31.1182 23.2177C31.1237 23.3886 31.1237 23.5596 31.1182 23.725C31.1182 23.8132 31.063 23.8738 30.9913 23.918C30.8755 23.9896 30.7706 23.94 30.7596 23.8077C30.7541 23.7084 30.7596 23.6092 30.7651 23.5099C30.7596 23.5099 30.7596 23.5099 30.7651 23.5099Z" fill="#7487AE"/>
<path d="M28.5693 50.1916C28.5749 50.1034 28.5693 50.0096 28.5914 49.9214C28.6135 49.8332 28.6797 49.7615 28.779 49.7505C28.8727 49.745 28.9169 49.8166 28.95 49.8938C29.0603 50.1144 28.961 50.3239 28.8893 50.5279C28.8672 50.5886 28.79 50.5941 28.7293 50.5886C28.6521 50.5831 28.5914 50.539 28.5804 50.4618C28.5693 50.3736 28.5804 50.2798 28.5804 50.1916C28.5749 50.1971 28.5749 50.1971 28.5693 50.1916Z" fill="#7587AE"/>
<path d="M29.419 28.0147C29.4301 28.2132 29.3694 28.3401 29.3363 28.4779C29.3197 28.5441 29.2646 28.6047 29.1818 28.6047C29.088 28.6047 29.0384 28.5331 29.0163 28.4559C28.9943 28.3897 28.9943 28.3125 29.0053 28.2463C29.0274 28.1305 29.066 28.0147 29.066 27.8934C29.066 27.7887 29.1322 27.728 29.2425 27.728C29.3528 27.728 29.4135 27.7832 29.4245 27.8879C29.4245 27.9431 29.419 28.0037 29.419 28.0147Z" fill="#7487AE"/>
<path d="M26.9254 13.7062C26.9144 13.629 26.964 13.5133 26.9971 13.3975C27.0302 13.2927 27.1074 13.2596 27.2122 13.2762C27.306 13.2927 27.3557 13.3589 27.3502 13.4471C27.3336 13.6346 27.3115 13.8275 27.2729 14.0095C27.2564 14.0867 27.1957 14.1639 27.1019 14.1529C27.0137 14.1418 26.9585 14.0702 26.9419 13.9874C26.9309 13.9158 26.9364 13.8331 26.9254 13.7062Z" fill="#7487AE"/>
<path d="M22.0156 21.8117C22.0156 21.729 22.0156 21.6518 22.0156 21.5691C22.0156 21.4753 22.0432 21.4092 22.148 21.4092C22.2473 21.4037 22.3466 21.4257 22.3632 21.5305C22.3907 21.729 22.3907 21.933 22.3632 22.1315C22.3521 22.2142 22.2915 22.2859 22.2032 22.2859C22.0984 22.2859 22.0377 22.2032 22.0267 22.1094C22.0101 22.0157 22.0211 21.9109 22.0156 21.8117C22.0156 21.8117 22.0211 21.8117 22.0156 21.8117Z" fill="#7487AE"/>
<path d="M24.9949 22.5174C24.9894 22.6167 24.9949 22.7214 24.9673 22.8152C24.9452 22.8924 24.8901 22.964 24.7963 22.9585C24.7191 22.9585 24.6584 22.8924 24.6474 22.8262C24.6032 22.6111 24.6032 22.3906 24.6474 22.1755C24.6639 22.0984 24.7356 22.0708 24.8128 22.0763C24.9066 22.0818 24.9673 22.1259 24.9783 22.2141C24.9894 22.3134 24.9783 22.4126 24.9783 22.5119C24.9894 22.5174 24.9949 22.5174 24.9949 22.5174Z" fill="#7487AE"/>
<path d="M40.1653 18.9223C40.1653 19.0105 40.1763 19.1043 40.1597 19.1925C40.1322 19.3414 40.0053 19.38 39.8949 19.2752C39.8508 19.2311 39.8122 19.187 39.8122 19.1208C39.8122 18.9609 39.8012 18.801 39.8177 18.6411C39.8287 18.5253 39.9115 18.4316 40.0439 18.4481C40.1542 18.4592 40.1763 18.5584 40.1763 18.6521C40.1708 18.7404 40.1708 18.8341 40.1653 18.9223Z" fill="#7487AE"/>
<path d="M36.1603 30.8323C36.1603 30.915 36.1658 30.9922 36.1603 31.0749C36.1492 31.1797 36.083 31.2348 35.9782 31.2348C35.8679 31.2348 35.8127 31.1742 35.8072 31.0694C35.7962 30.9481 35.7962 30.8323 35.7631 30.7165C35.7245 30.5897 35.8293 30.4243 35.9341 30.4078C36.0444 30.3912 36.1547 30.507 36.1658 30.6614C36.1658 30.7165 36.1603 30.7772 36.1603 30.8323Z" fill="#7487AE"/>
<path d="M38.7694 42.7534C38.7694 42.8416 38.7749 42.9354 38.7694 43.0236C38.7639 43.1008 38.7308 43.1559 38.6535 43.178C38.5708 43.2 38.5156 43.1559 38.4825 43.0898C38.3667 42.8747 38.3887 42.6431 38.4439 42.4226C38.466 42.3399 38.5487 42.2682 38.6535 42.2958C38.7473 42.3178 38.7694 42.395 38.7694 42.4832C38.7749 42.577 38.7694 42.6652 38.7694 42.7534Z" fill="#7487AE"/>
<path d="M37.7381 34.6756C37.7381 34.7473 37.7436 34.8189 37.7381 34.8851C37.7325 34.9899 37.6774 35.0505 37.567 35.056C37.4622 35.0615 37.3905 35.0064 37.385 34.9016C37.3795 34.7307 37.3795 34.5598 37.385 34.3889C37.3905 34.2841 37.4457 34.2234 37.556 34.2179C37.6829 34.2179 37.7381 34.2841 37.7436 34.4054C37.7436 34.4936 37.7381 34.5818 37.7381 34.6756Z" fill="#7487AE"/>
<path d="M24.1398 18.9279C24.1398 19.0051 24.1398 19.0878 24.1398 19.165C24.1343 19.2422 24.1067 19.3028 24.0295 19.3249C23.9523 19.3469 23.8971 19.3028 23.8475 19.2532C23.8033 19.2091 23.7813 19.154 23.7813 19.0933C23.7813 18.9555 23.7757 18.8121 23.7813 18.6742C23.7868 18.564 23.8419 18.4647 23.9523 18.4592C24.0791 18.4537 24.1343 18.564 24.1398 18.6853C24.1453 18.768 24.1398 18.8452 24.1398 18.9279Z" fill="#7487AE"/>
<path d="M28.211 30.7938C28.2055 30.8821 28.211 30.9758 28.1889 31.064C28.1669 31.1522 28.1227 31.2405 28.0069 31.2294C27.8966 31.2184 27.8469 31.1522 27.8469 31.0475C27.8414 30.8876 27.8414 30.7222 27.8469 30.5623C27.8524 30.4575 27.9131 30.3913 28.0179 30.3913C28.1283 30.3913 28.1889 30.4465 28.2 30.5512C28.2055 30.6339 28.2 30.7111 28.2 30.7938C28.2055 30.7938 28.211 30.7938 28.211 30.7938Z" fill="#7487AE"/>
<path d="M25.6566 29.2499C25.6511 29.1617 25.6125 29.079 25.6456 28.9852C25.6732 28.908 25.6952 28.8308 25.789 28.8198C25.8828 28.8088 25.9545 28.8694 25.9766 28.9411C26.0483 29.1451 26.0373 29.3491 25.9711 29.5532C25.938 29.6579 25.8442 29.669 25.7504 29.6524C25.6621 29.6359 25.6566 29.5642 25.6566 29.4925C25.6566 29.4098 25.6566 29.3326 25.6566 29.2499Z" fill="#7487AE"/>
<path d="M38.3445 29.2334C38.3445 29.3216 38.35 29.4153 38.3445 29.5036C38.3335 29.6083 38.2617 29.658 38.1569 29.6525C38.0631 29.6469 37.9969 29.5973 37.9969 29.5091C37.9914 29.3382 37.9804 29.1672 38.0025 29.0018C38.0135 28.9026 38.0962 28.8143 38.2121 28.8254C38.3224 28.8364 38.35 28.9301 38.35 29.0239C38.35 29.09 38.3445 29.1617 38.3445 29.2334Z" fill="#7487AE"/>
<path d="M35.3712 50.2083C35.3712 50.291 35.3712 50.3682 35.3712 50.4509C35.3712 50.517 35.3547 50.5777 35.2829 50.5887C35.2002 50.6053 35.123 50.6053 35.0678 50.5226C34.9906 50.4068 34.9795 49.9601 35.0623 49.8499C35.1064 49.7947 35.1561 49.7396 35.2388 49.7561C35.3326 49.7727 35.3657 49.8443 35.3712 49.9326C35.3712 50.0263 35.3712 50.1145 35.3712 50.2083Z" fill="#7487AE"/>
<path d="M36.3971 45.0692C36.4081 44.9534 36.4026 44.8927 36.4136 44.8321C36.4302 44.7604 36.4909 44.7163 36.5681 44.7108C36.6453 44.7053 36.7281 44.7273 36.7391 44.799C36.7667 44.9644 36.8329 45.1243 36.8274 45.2952C36.8219 45.3945 36.7832 45.4717 36.6784 45.4882C36.5791 45.4993 36.5019 45.4607 36.4688 45.3614C36.4357 45.2511 36.386 45.1353 36.3971 45.0692Z" fill="#7487AE"/>
<path d="M23.1081 24.7782C23.1192 24.8609 23.0916 24.9767 23.0199 25.0814C22.9813 25.1366 22.9371 25.1641 22.8654 25.1531C22.7992 25.1421 22.7496 25.0925 22.7496 25.0318C22.7385 24.8333 22.7441 24.6293 22.7441 24.4308C22.7441 24.3591 22.7882 24.326 22.8599 24.3205C22.9482 24.3095 23.0144 24.3315 23.0585 24.4143C23.1192 24.5245 23.1026 24.6348 23.1081 24.7782Z" fill="#7487AE"/>
<path d="M44.7215 17.2683C44.727 17.373 44.7215 17.4888 44.6498 17.5991C44.5946 17.6873 44.5174 17.7204 44.4181 17.6929C44.3243 17.6708 44.3022 17.5936 44.2912 17.5109C44.2746 17.3675 44.3408 17.2352 44.3684 17.1029C44.3905 17.0036 44.4677 16.9154 44.5836 16.9319C44.716 16.9485 44.716 17.0588 44.716 17.1635C44.7215 17.1911 44.7215 17.2187 44.7215 17.2683Z" fill="#7587AE"/>
<path d="M41.263 24.7064C41.2519 24.8278 41.285 24.938 41.2243 25.0428C41.1471 25.1751 41.0092 25.1917 40.9485 25.0538C40.8547 24.8498 40.8823 24.6237 40.9264 24.4087C40.943 24.337 41.0257 24.3205 41.103 24.326C41.1802 24.3315 41.2409 24.3756 41.2519 24.4528C41.263 24.5355 41.263 24.6293 41.263 24.7064Z" fill="#7487AE"/>
<path d="M27.5377 45.0802C27.5266 45.185 27.5708 45.3118 27.4715 45.411C27.4218 45.4607 27.3666 45.5103 27.2894 45.4882C27.2122 45.4662 27.1791 45.4055 27.1736 45.3283C27.1681 45.1905 27.1681 45.0471 27.1736 44.9093C27.1736 44.7714 27.2508 44.7163 27.3832 44.7163C27.5266 44.7163 27.5377 44.81 27.5321 44.9203C27.5377 44.9644 27.5377 45.0141 27.5377 45.0802Z" fill="#7487AE"/>
<path d="M33.4736 51.0572C33.4074 51.162 33.4571 51.3053 33.3853 51.4211C33.3412 51.4928 33.3026 51.57 33.2088 51.5535C33.0985 51.5369 33.0157 51.4597 33.0213 51.355C33.0323 51.1896 33.0378 51.0131 33.1757 50.8863C33.2309 50.8312 33.286 50.754 33.3798 50.8201C33.446 50.8753 33.5067 50.9414 33.4736 51.0572Z" fill="#7587AE"/>
<path d="M39.8618 16.3418C39.8618 16.2481 39.8728 16.1654 39.917 16.0827C39.9611 15.9944 40.0218 15.9228 40.1266 15.9669C40.2204 16.0055 40.3086 16.0827 40.2755 16.1985C40.2424 16.3032 40.2259 16.4135 40.2314 16.5238C40.2314 16.6175 40.2093 16.7113 40.099 16.7278C39.9832 16.7388 39.917 16.6561 39.8839 16.5569C39.8563 16.4852 39.8673 16.4135 39.8618 16.3418Z" fill="#7487AE"/>
<path d="M19.2852 17.2792C19.2852 17.2351 19.2852 17.2075 19.2852 17.18C19.2852 17.0697 19.2797 16.9374 19.4286 16.9263C19.5665 16.9153 19.6107 17.0476 19.6327 17.1524C19.6548 17.2792 19.6493 17.4116 19.6493 17.5384C19.6493 17.6101 19.6382 17.6817 19.55 17.6983C19.4507 17.7148 19.3734 17.6928 19.3238 17.5935C19.2686 17.4888 19.2907 17.3785 19.2852 17.2792Z" fill="#7487AE"/>
<path d="M30.9362 51.2834C30.9362 51.322 30.9417 51.3661 30.9362 51.4047C30.9307 51.4819 30.8921 51.5371 30.8148 51.5536C30.7486 51.5702 30.688 51.5426 30.6604 51.4875C30.5556 51.3055 30.5004 51.1015 30.5335 50.892C30.5501 50.7706 30.6935 50.7431 30.7928 50.8423C30.9086 50.9636 30.9307 51.1235 30.9362 51.2834Z" fill="#7487AE"/>
<path d="M24.0791 16.3088C24.0791 16.4191 24.0791 16.4798 24.0791 16.5404C24.0736 16.6286 24.046 16.7003 23.9523 16.7169C23.8474 16.7334 23.7702 16.6617 23.7426 16.579C23.6875 16.4081 23.693 16.2206 23.7371 16.0442C23.7647 15.9339 23.8805 15.9174 23.9798 15.9945C24.1012 16.0993 24.0791 16.2316 24.0791 16.3088Z" fill="#7487AE"/>
<path d="M33.7936 30.2865C33.7936 30.3858 33.7936 30.4464 33.7936 30.5071C33.7881 30.5953 33.755 30.667 33.6612 30.6835C33.5674 30.7001 33.5012 30.6394 33.4681 30.5677C33.3964 30.3858 33.4129 30.1928 33.4516 30.0108C33.4791 29.9006 33.6005 29.895 33.6943 29.9722C33.8212 30.0605 33.7881 30.1983 33.7936 30.2865Z" fill="#7487AE"/>
<path d="M30.2189 30.2976C30.2189 30.2204 30.2134 30.1377 30.2189 30.0605C30.2244 29.9943 30.2575 29.9447 30.3182 29.9226C30.3954 29.8951 30.4506 29.9337 30.5002 29.9888C30.6271 30.1211 30.594 30.5402 30.4506 30.6505C30.3623 30.7166 30.252 30.678 30.2189 30.5678C30.2134 30.5512 30.2134 30.5292 30.2134 30.5071C30.2134 30.4354 30.2134 30.3638 30.2189 30.2976C30.2134 30.2976 30.2134 30.2976 30.2189 30.2976Z" fill="#7487AE"/>
<path d="M37.5004 22.5505C37.4894 22.6056 37.4894 22.6663 37.4728 22.7214C37.4452 22.8152 37.3845 22.8703 37.2742 22.8648C37.1749 22.8593 37.1253 22.8097 37.0977 22.7269C37.0536 22.6001 37.0535 22.4733 37.1142 22.352C37.1528 22.2803 37.1915 22.2031 37.2852 22.2031C37.3845 22.2086 37.4452 22.2748 37.4783 22.363C37.5004 22.4182 37.4949 22.4843 37.5004 22.5505Z" fill="#7588AE"/>
<path d="M26.8705 22.5284C26.8705 22.7821 26.8208 22.8648 26.6719 22.8538C26.5395 22.8427 26.5008 22.7655 26.5064 22.5229C26.5064 22.4954 26.5064 22.4623 26.5064 22.4347C26.5284 22.2969 26.6332 22.1866 26.7325 22.2031C26.8649 22.2307 26.8649 22.3355 26.8649 22.4347C26.8705 22.4678 26.8705 22.5009 26.8705 22.5284Z" fill="#7587AE"/>
<path d="M42.7193 14.8863C42.7083 14.7871 42.7579 14.7099 42.8462 14.6437C42.8903 14.6161 42.94 14.6051 42.9896 14.6327C43.1275 14.7099 43.0779 14.8642 43.133 14.98C43.1716 15.0627 43.0944 15.1289 43.0282 15.1785C42.951 15.2392 42.8738 15.2227 42.8186 15.151C42.7634 15.0738 42.7193 14.9911 42.7193 14.8863Z" fill="#7487AE"/>
<path d="M21.2271 14.8863C21.2271 14.969 21.2326 15.0462 21.1775 15.1124C21.1223 15.173 21.0616 15.2337 20.9734 15.2006C20.9017 15.173 20.8686 15.1069 20.8686 15.0352C20.8686 14.9249 20.841 14.8146 20.9182 14.7154C20.9734 14.6547 21.0341 14.5941 21.1223 14.6272C21.194 14.6547 21.2216 14.7209 21.2271 14.7926C21.2271 14.8257 21.2271 14.8532 21.2271 14.8863Z" fill="#7487AE"/>
</svg>
