<svg width="24" height="24" viewBox="0 0 24 24" fill="none" xmlns="http://www.w3.org/2000/svg">
<path d="M9.39614 2.24275C9.30578 2.09215 9.14302 2 8.96739 2H4.13358C3.74494 2 3.50488 2.42399 3.70484 2.75725L9.10484 11.7572C9.1952 11.9079 9.35795 12 9.53358 12H14.3674C14.756 12 14.9961 11.576 14.7961 11.2428L9.39614 2.24275Z" fill="#C52229"/>
<path fill-rule="evenodd" clip-rule="evenodd" d="M8.9676 1.5H4.13379C3.35649 1.5 2.87638 2.34797 3.2763 3.0145L8.67629 12.0145C8.85702 12.3157 9.18252 12.5 9.53379 12.5H14.3676C15.1449 12.5 15.625 11.652 15.2251 10.9855L9.82509 1.9855C9.64437 1.6843 9.31886 1.5 8.9676 1.5ZM8.9676 2C9.14323 2 9.30598 2.09215 9.39634 2.24275L14.7963 11.2428C14.9963 11.576 14.7562 12 14.3676 12H9.53379C9.35816 12 9.1954 11.9079 9.10504 11.7572L3.70504 2.75725C3.50508 2.42399 3.74514 2 4.13379 2H8.9676Z" fill="#9B0F15"/>
<path d="M14.6048 2.24275C14.6952 2.09215 14.858 2 15.0336 2H19.8674C20.256 2 20.4961 2.42399 20.2961 2.75725L14.8961 11.7572C14.8058 11.9079 14.643 12 14.4674 12H9.63358C9.24494 12 9.00488 11.576 9.20484 11.2428L14.6048 2.24275Z" fill="#F1333B"/>
<path fill-rule="evenodd" clip-rule="evenodd" d="M15.0334 1.5H19.8672C20.6445 1.5 21.1246 2.34797 20.7247 3.0145L15.3247 12.0145C15.144 12.3157 14.8185 12.5 14.4672 12.5H9.63338C8.85609 12.5 8.37597 11.652 8.77589 10.9855L14.1759 1.9855C14.3566 1.6843 14.6821 1.5 15.0334 1.5ZM15.0334 2C14.8577 2 14.695 2.09215 14.6046 2.24275L9.20463 11.2428C9.00468 11.576 9.24473 12 9.63338 12H14.4672C14.6428 12 14.8056 11.9079 14.8959 11.7572L20.2959 2.75725C20.4959 2.42399 20.2558 2 19.8672 2H15.0334Z" fill="#9B0F15"/>
<path fill-rule="evenodd" clip-rule="evenodd" d="M15.1256 2.28384C15.245 2.35317 15.2856 2.50617 15.2162 2.62557L12.9662 6.50057C12.8969 6.61998 12.7439 6.66057 12.6245 6.59124C12.5051 6.52191 12.4645 6.36891 12.5338 6.24951L14.7838 2.37451C14.8532 2.2551 15.0062 2.21451 15.1256 2.28384Z" fill="#FE666D"/>
<path fill-rule="evenodd" clip-rule="evenodd" d="M4.12443 2.28384C4.00502 2.35317 3.96443 2.50617 4.03376 2.62557L6.28376 6.50057C6.35309 6.61998 6.50609 6.66057 6.62549 6.59124C6.7449 6.52191 6.78549 6.36891 6.71616 6.24951L4.46616 2.37451C4.39683 2.2551 4.24383 2.21451 4.12443 2.28384Z" fill="#DF3840"/>
<path d="M8.875 2.82031C8.875 2.99722 8.73509 3.14062 8.5625 3.14062C8.38991 3.14062 8.25 2.99722 8.25 2.82031C8.25 2.64341 8.38991 2.5 8.5625 2.5C8.73509 2.5 8.875 2.64341 8.875 2.82031Z" fill="#AA161D"/>
<path d="M7.77744 2.89844C7.77744 3.11849 7.6034 3.29688 7.38872 3.29688C7.17404 3.29688 7 3.11849 7 2.89844C7 2.67839 7.17404 2.5 7.38872 2.5C7.6034 2.5 7.77744 2.67839 7.77744 2.89844Z" fill="#AA161D"/>
<path d="M8.7501 4.03906C8.7501 4.25911 8.57606 4.4375 8.36138 4.4375C8.14669 4.4375 7.97266 4.25911 7.97266 4.03906C7.97266 3.81901 8.14669 3.64062 8.36138 3.64062C8.57606 3.64062 8.7501 3.81901 8.7501 4.03906Z" fill="#AA161D"/>
<path d="M9.63872 3.49609C9.63872 3.60612 9.5517 3.69531 9.44436 3.69531C9.33702 3.69531 9.25 3.60612 9.25 3.49609C9.25 3.38607 9.33702 3.29688 9.44436 3.29688C9.5517 3.29688 9.63872 3.38607 9.63872 3.49609Z" fill="#AA161D"/>
<path d="M7.58306 3.83984C7.58306 3.94987 7.49604 4.03906 7.3887 4.03906C7.28135 4.03906 7.19434 3.94987 7.19434 3.83984C7.19434 3.72982 7.28135 3.64062 7.3887 3.64062C7.49604 3.64062 7.58306 3.72982 7.58306 3.83984Z" fill="#AA161D"/>
<path d="M6.50005 2.62109C6.50005 2.73112 6.41303 2.82031 6.30569 2.82031C6.19835 2.82031 6.11133 2.73112 6.11133 2.62109C6.11133 2.51107 6.19835 2.42188 6.30569 2.42188C6.41303 2.42188 6.50005 2.51107 6.50005 2.62109Z" fill="#AA161D"/>
<path d="M9.44438 4.88672C9.44438 4.99674 9.35737 5.08594 9.25002 5.08594C9.14268 5.08594 9.05566 4.99674 9.05566 4.88672C9.05566 4.77669 9.14268 4.6875 9.25002 4.6875C9.35737 4.6875 9.44438 4.77669 9.44438 4.88672Z" fill="#AA161D"/>
<path d="M8.44438 5.08594C8.44438 5.19596 8.35737 5.28516 8.25002 5.28516C8.14268 5.28516 8.05566 5.19596 8.05566 5.08594C8.05566 4.97591 8.14268 4.88672 8.25002 4.88672C8.35737 4.88672 8.44438 4.97591 8.44438 5.08594Z" fill="#AA161D"/>
<path d="M10.3826 4.36328C10.3826 4.54234 10.241 4.6875 10.0663 4.6875C9.89162 4.6875 9.75 4.54234 9.75 4.36328C9.75 4.18422 9.89162 4.03906 10.0663 4.03906C10.241 4.03906 10.3826 4.18422 10.3826 4.36328Z" fill="#AA161D"/>
<path d="M10.795 5.28516C10.795 5.39518 10.708 5.48438 10.6006 5.48438C10.4933 5.48438 10.4062 5.39518 10.4062 5.28516C10.4062 5.17513 10.4933 5.08594 10.6006 5.08594C10.708 5.08594 10.795 5.17513 10.795 5.28516Z" fill="#AA161D"/>
<path d="M18.75 15.25C18.75 18.9779 15.7279 22 12 22C8.27208 22 5.25 18.9779 5.25 15.25C5.25 11.5221 8.27208 8.5 12 8.5C15.7279 8.5 18.75 11.5221 18.75 15.25Z" fill="#FFBB0D"/>
<path fill-rule="evenodd" clip-rule="evenodd" d="M19.25 15.25C19.25 19.2541 16.0041 22.5 12 22.5C7.99594 22.5 4.75 19.2541 4.75 15.25C4.75 11.2459 7.99594 8 12 8C16.0041 8 19.25 11.2459 19.25 15.25ZM12 22C15.7279 22 18.75 18.9779 18.75 15.25C18.75 11.5221 15.7279 8.5 12 8.5C8.27208 8.5 5.25 11.5221 5.25 15.25C5.25 18.9779 8.27208 22 12 22Z" fill="#E89B05"/>
<path fill-rule="evenodd" clip-rule="evenodd" d="M5.75 15.5C5.61193 15.5 5.5 15.3881 5.5 15.25C5.5 11.6601 8.41015 8.75 12 8.75C12.1381 8.75 12.25 8.86193 12.25 9C12.25 9.13807 12.1381 9.25 12 9.25C8.68629 9.25 6 11.9363 6 15.25C6 15.3881 5.88807 15.5 5.75 15.5Z" fill="#E8AA0A"/>
<path fill-rule="evenodd" clip-rule="evenodd" d="M18.25 15C18.3881 15 18.5 15.1119 18.5 15.25C18.5 18.8399 15.5899 21.75 12 21.75C11.8619 21.75 11.75 21.6381 11.75 21.5C11.75 21.3619 11.8619 21.25 12 21.25C15.3137 21.25 18 18.5637 18 15.25C18 15.1119 18.1119 15 18.25 15Z" fill="#E8AA0A"/>
<path d="M17 15.25C17 18.0114 14.7614 20.25 12 20.25C9.23858 20.25 7 18.0114 7 15.25C7 12.4886 9.23858 10.25 12 10.25C14.7614 10.25 17 12.4886 17 15.25Z" fill="#FFDD28"/>
<path fill-rule="evenodd" clip-rule="evenodd" d="M17.5 15.25C17.5 18.2876 15.0376 20.75 12 20.75C8.96243 20.75 6.5 18.2876 6.5 15.25C6.5 12.2124 8.96243 9.75 12 9.75C15.0376 9.75 17.5 12.2124 17.5 15.25ZM12 20.25C14.7614 20.25 17 18.0114 17 15.25C17 12.4886 14.7614 10.25 12 10.25C9.23858 10.25 7 12.4886 7 15.25C7 18.0114 9.23858 20.25 12 20.25Z" fill="#E89B05"/>
<path fill-rule="evenodd" clip-rule="evenodd" d="M12 19.5C14.3472 19.5 16.25 17.5972 16.25 15.25C16.25 15.1119 16.3619 15 16.5 15C16.6381 15 16.75 15.1119 16.75 15.25C16.75 17.8734 14.6234 20 12 20C11.8619 20 11.75 19.8881 11.75 19.75C11.75 19.6119 11.8619 19.5 12 19.5Z" fill="#ECC704"/>
<path fill-rule="evenodd" clip-rule="evenodd" d="M12 11C9.65279 11 7.75 12.9028 7.75 15.25C7.75 15.3881 7.63807 15.5 7.5 15.5C7.36193 15.5 7.25 15.3881 7.25 15.25C7.25 12.6266 9.37665 10.5 12 10.5C12.1381 10.5 12.25 10.6119 12.25 10.75C12.25 10.8881 12.1381 11 12 11Z" fill="#FFEF9C"/>
<path d="M12.5967 17.25H11.75V13.9863L10.7393 14.2998V13.6113L12.5059 12.9785H12.5967V17.25Z" fill="#FFEF9C"/>
<path fill-rule="evenodd" clip-rule="evenodd" d="M13.0967 17.25C13.0967 17.5261 12.8728 17.75 12.5967 17.75H11.75C11.4739 17.75 11.25 17.5261 11.25 17.25V14.6649L10.8874 14.7774C10.7356 14.8244 10.5706 14.7966 10.4427 14.7023C10.3148 14.6081 10.2393 14.4587 10.2393 14.2998V13.6113C10.2393 13.4002 10.3719 13.2118 10.5706 13.1406L12.3372 12.5078C12.3913 12.4884 12.4484 12.4785 12.5059 12.4785H12.5967C12.8728 12.4785 13.0967 12.7024 13.0967 12.9785V17.25ZM11.75 13.9863V17.25H12.5967V12.9785H12.5059L10.7393 13.6113V14.2998L11.75 13.9863Z" fill="#E89B05"/>
</svg>
