<svg width="24" height="24" viewBox="0 0 24 24" fill="none" xmlns="http://www.w3.org/2000/svg">
<path d="M9.14614 2.24275C9.05578 2.09215 8.89302 2 8.71739 2H3.88358C3.49494 2 3.25488 2.42399 3.45484 2.75725L8.85484 11.7572C8.9452 11.9079 9.10795 12 9.28358 12H14.1174C14.506 12 14.7461 11.576 14.5461 11.2428L9.14614 2.24275Z" fill="#C52229"/>
<path fill-rule="evenodd" clip-rule="evenodd" d="M8.7176 1.5H3.88379C3.10649 1.5 2.62638 2.34797 3.02629 3.0145L8.42629 12.0145C8.60702 12.3157 8.93252 12.5 9.28379 12.5H14.1176C14.8949 12.5 15.375 11.652 14.9751 10.9855L9.57509 1.9855C9.39437 1.6843 9.06886 1.5 8.7176 1.5ZM8.7176 2C8.89323 2 9.05598 2.09215 9.14634 2.24275L14.5463 11.2428C14.7463 11.576 14.5062 12 14.1176 12H9.28379C9.10816 12 8.9454 11.9079 8.85504 11.7572L3.45504 2.75725C3.25508 2.42399 3.49514 2 3.88379 2H8.7176Z" fill="#9B0F15"/>
<path d="M14.3548 2.24275C14.4452 2.09215 14.608 2 14.7836 2H19.6174C20.006 2 20.2461 2.42399 20.0461 2.75725L14.6461 11.7572C14.5558 11.9079 14.393 12 14.2174 12H9.38358C8.99494 12 8.75488 11.576 8.95484 11.2428L14.3548 2.24275Z" fill="#F1333B"/>
<path fill-rule="evenodd" clip-rule="evenodd" d="M14.7834 1.5H19.6172C20.3945 1.5 20.8746 2.34797 20.4747 3.0145L15.0747 12.0145C14.894 12.3157 14.5685 12.5 14.2172 12.5H9.38338C8.60609 12.5 8.12597 11.652 8.52589 10.9855L13.9259 1.9855C14.1066 1.6843 14.4321 1.5 14.7834 1.5ZM14.7834 2C14.6077 2 14.445 2.09215 14.3546 2.24275L8.95463 11.2428C8.75468 11.576 8.99473 12 9.38338 12H14.2172C14.3928 12 14.5556 11.9079 14.6459 11.7572L20.0459 2.75725C20.2459 2.42399 20.0058 2 19.6172 2H14.7834Z" fill="#9B0F15"/>
<path fill-rule="evenodd" clip-rule="evenodd" d="M14.8756 2.28384C14.995 2.35317 15.0356 2.50617 14.9662 2.62557L12.7162 6.50057C12.6469 6.61998 12.4939 6.66057 12.3745 6.59124C12.2551 6.52191 12.2145 6.36891 12.2838 6.24951L14.5338 2.37451C14.6032 2.2551 14.7562 2.21451 14.8756 2.28384Z" fill="#FE666D"/>
<path fill-rule="evenodd" clip-rule="evenodd" d="M3.87442 2.28384C3.75502 2.35317 3.71443 2.50617 3.78376 2.62557L6.03376 6.50057C6.10309 6.61998 6.25609 6.66057 6.37549 6.59124C6.4949 6.52191 6.53549 6.36891 6.46616 6.24951L4.21616 2.37451C4.14683 2.2551 3.99383 2.21451 3.87442 2.28384Z" fill="#DF3840"/>
<path d="M8.625 2.82031C8.625 2.99722 8.48509 3.14062 8.3125 3.14062C8.13991 3.14062 8 2.99722 8 2.82031C8 2.64341 8.13991 2.5 8.3125 2.5C8.48509 2.5 8.625 2.64341 8.625 2.82031Z" fill="#AA161D"/>
<path d="M7.52744 2.89844C7.52744 3.11849 7.3534 3.29688 7.13872 3.29688C6.92404 3.29688 6.75 3.11849 6.75 2.89844C6.75 2.67839 6.92404 2.5 7.13872 2.5C7.3534 2.5 7.52744 2.67839 7.52744 2.89844Z" fill="#AA161D"/>
<path d="M8.5001 4.03906C8.5001 4.25911 8.32606 4.4375 8.11138 4.4375C7.89669 4.4375 7.72266 4.25911 7.72266 4.03906C7.72266 3.81901 7.89669 3.64062 8.11138 3.64062C8.32606 3.64062 8.5001 3.81901 8.5001 4.03906Z" fill="#AA161D"/>
<path d="M9.38872 3.49609C9.38872 3.60612 9.3017 3.69531 9.19436 3.69531C9.08702 3.69531 9 3.60612 9 3.49609C9 3.38607 9.08702 3.29688 9.19436 3.29688C9.3017 3.29688 9.38872 3.38607 9.38872 3.49609Z" fill="#AA161D"/>
<path d="M7.33306 3.83984C7.33306 3.94987 7.24604 4.03906 7.1387 4.03906C7.03135 4.03906 6.94434 3.94987 6.94434 3.83984C6.94434 3.72982 7.03135 3.64062 7.1387 3.64062C7.24604 3.64062 7.33306 3.72982 7.33306 3.83984Z" fill="#AA161D"/>
<path d="M6.25005 2.62109C6.25005 2.73112 6.16303 2.82031 6.05569 2.82031C5.94835 2.82031 5.86133 2.73112 5.86133 2.62109C5.86133 2.51107 5.94835 2.42188 6.05569 2.42188C6.16303 2.42188 6.25005 2.51107 6.25005 2.62109Z" fill="#AA161D"/>
<path d="M9.19438 4.88672C9.19438 4.99674 9.10737 5.08594 9.00002 5.08594C8.89268 5.08594 8.80566 4.99674 8.80566 4.88672C8.80566 4.77669 8.89268 4.6875 9.00002 4.6875C9.10737 4.6875 9.19438 4.77669 9.19438 4.88672Z" fill="#AA161D"/>
<path d="M8.19438 5.08594C8.19438 5.19596 8.10737 5.28516 8.00002 5.28516C7.89268 5.28516 7.80566 5.19596 7.80566 5.08594C7.80566 4.97591 7.89268 4.88672 8.00002 4.88672C8.10737 4.88672 8.19438 4.97591 8.19438 5.08594Z" fill="#AA161D"/>
<path d="M10.1326 4.36328C10.1326 4.54234 9.991 4.6875 9.81631 4.6875C9.64162 4.6875 9.5 4.54234 9.5 4.36328C9.5 4.18422 9.64162 4.03906 9.81631 4.03906C9.991 4.03906 10.1326 4.18422 10.1326 4.36328Z" fill="#AA161D"/>
<path d="M10.545 5.28516C10.545 5.39518 10.458 5.48438 10.3506 5.48438C10.2433 5.48438 10.1562 5.39518 10.1562 5.28516C10.1562 5.17513 10.2433 5.08594 10.3506 5.08594C10.458 5.08594 10.545 5.17513 10.545 5.28516Z" fill="#AA161D"/>
<path d="M18.5 15.25C18.5 18.9779 15.4779 22 11.75 22C8.02208 22 5 18.9779 5 15.25C5 11.5221 8.02208 8.5 11.75 8.5C15.4779 8.5 18.5 11.5221 18.5 15.25Z" fill="#BCCCD2"/>
<path fill-rule="evenodd" clip-rule="evenodd" d="M19 15.25C19 19.2541 15.7541 22.5 11.75 22.5C7.74594 22.5 4.5 19.2541 4.5 15.25C4.5 11.2459 7.74594 8 11.75 8C15.7541 8 19 11.2459 19 15.25ZM11.75 22C15.4779 22 18.5 18.9779 18.5 15.25C18.5 11.5221 15.4779 8.5 11.75 8.5C8.02208 8.5 5 11.5221 5 15.25C5 18.9779 8.02208 22 11.75 22Z" fill="#81A5B0"/>
<path fill-rule="evenodd" clip-rule="evenodd" d="M5.5 15.5C5.36193 15.5 5.25 15.3881 5.25 15.25C5.25 11.6601 8.16015 8.75 11.75 8.75C11.8881 8.75 12 8.86193 12 9C12 9.13807 11.8881 9.25 11.75 9.25C8.43629 9.25 5.75 11.9363 5.75 15.25C5.75 15.3881 5.63807 15.5 5.5 15.5Z" fill="#D0DEE3"/>
<path fill-rule="evenodd" clip-rule="evenodd" d="M18 15C18.1381 15 18.25 15.1119 18.25 15.25C18.25 18.8399 15.3399 21.75 11.75 21.75C11.6119 21.75 11.5 21.6381 11.5 21.5C11.5 21.3619 11.6119 21.25 11.75 21.25C15.0637 21.25 17.75 18.5637 17.75 15.25C17.75 15.1119 17.8619 15 18 15Z" fill="#A2B9C1"/>
<path d="M16.75 15.25C16.75 18.0114 14.5114 20.25 11.75 20.25C8.98858 20.25 6.75 18.0114 6.75 15.25C6.75 12.4886 8.98858 10.25 11.75 10.25C14.5114 10.25 16.75 12.4886 16.75 15.25Z" fill="#C7D4D8"/>
<path fill-rule="evenodd" clip-rule="evenodd" d="M17.25 15.25C17.25 18.2876 14.7876 20.75 11.75 20.75C8.71243 20.75 6.25 18.2876 6.25 15.25C6.25 12.2124 8.71243 9.75 11.75 9.75C14.7876 9.75 17.25 12.2124 17.25 15.25ZM11.75 20.25C14.5114 20.25 16.75 18.0114 16.75 15.25C16.75 12.4886 14.5114 10.25 11.75 10.25C8.98858 10.25 6.75 12.4886 6.75 15.25C6.75 18.0114 8.98858 20.25 11.75 20.25Z" fill="#81A5B0"/>
<path fill-rule="evenodd" clip-rule="evenodd" d="M11.75 19.5C14.0972 19.5 16 17.5972 16 15.25C16 15.1119 16.1119 15 16.25 15C16.3881 15 16.5 15.1119 16.5 15.25C16.5 17.8734 14.3734 20 11.75 20C11.6119 20 11.5 19.8881 11.5 19.75C11.5 19.6119 11.6119 19.5 11.75 19.5Z" fill="#B5C3C8"/>
<path fill-rule="evenodd" clip-rule="evenodd" d="M11.75 11C9.40279 11 7.5 12.9028 7.5 15.25C7.5 15.3881 7.38807 15.5 7.25 15.5C7.11193 15.5 7 15.3881 7 15.25C7 12.6266 9.12665 10.5 11.75 10.5C11.8881 10.5 12 10.6119 12 10.75C12 10.8881 11.8881 11 11.75 11Z" fill="#D9EAEF"/>
<path d="M13.2139 17.25H10.29V16.6699L11.6699 15.1992C11.8594 14.9922 11.999 14.8115 12.0889 14.6572C12.1807 14.5029 12.2266 14.3564 12.2266 14.2178C12.2266 14.0283 12.1787 13.8799 12.083 13.7725C11.9873 13.6631 11.8506 13.6084 11.6729 13.6084C11.4814 13.6084 11.3301 13.6748 11.2188 13.8076C11.1094 13.9385 11.0547 14.1113 11.0547 14.3262H10.2051C10.2051 14.0664 10.2666 13.8291 10.3896 13.6143C10.5146 13.3994 10.6904 13.2314 10.917 13.1104C11.1436 12.9873 11.4004 12.9258 11.6875 12.9258C12.127 12.9258 12.4678 13.0312 12.71 13.2422C12.9541 13.4531 13.0762 13.751 13.0762 14.1357C13.0762 14.3467 13.0215 14.5615 12.9121 14.7803C12.8027 14.999 12.6152 15.2539 12.3496 15.5449L11.3799 16.5674H13.2139V17.25Z" fill="#D9EAEF"/>
<path fill-rule="evenodd" clip-rule="evenodd" d="M13.7139 17.25C13.7139 17.5261 13.49 17.75 13.2139 17.75H10.29C10.0139 17.75 9.79004 17.5261 9.79004 17.25V16.6699C9.79004 16.5428 9.83844 16.4205 9.92541 16.3278L11.3031 14.8594C11.4793 14.6667 11.5923 14.5164 11.6568 14.4056L11.6592 14.4016C11.7182 14.3023 11.7266 14.2436 11.7266 14.2178C11.7266 14.1643 11.7197 14.1331 11.7148 14.1178C11.7139 14.1152 11.7132 14.113 11.7124 14.1112C11.7045 14.1098 11.6916 14.1084 11.6729 14.1084C11.6355 14.1084 11.6198 14.1147 11.6166 14.1161C11.6147 14.1169 11.6133 14.1178 11.6119 14.1189C11.6104 14.12 11.6071 14.1227 11.6022 14.1285C11.5858 14.1483 11.5547 14.1979 11.5547 14.3262C11.5547 14.6023 11.3308 14.8262 11.0547 14.8262H10.2051C9.92894 14.8262 9.70508 14.6023 9.70508 14.3262C9.70508 13.9837 9.78723 13.66 9.95577 13.3658L9.95746 13.3628C10.1305 13.0655 10.375 12.8334 10.6798 12.6702C10.9873 12.5035 11.3273 12.4258 11.6875 12.4258C12.2027 12.4258 12.6757 12.5497 13.0376 12.8645C13.4124 13.1888 13.5762 13.6368 13.5762 14.1357C13.5762 14.4358 13.4979 14.7268 13.3593 15.0039C13.2207 15.2811 12.9991 15.575 12.7189 15.882C12.7168 15.8844 12.7146 15.8867 12.7124 15.889L12.5432 16.0674H13.2139C13.49 16.0674 13.7139 16.2912 13.7139 16.5674V17.25ZM11.3799 16.5674L12.3496 15.5449C12.6152 15.2539 12.8027 14.999 12.9121 14.7803C13.0215 14.5615 13.0762 14.3467 13.0762 14.1357C13.0762 13.751 12.9541 13.4531 12.71 13.2422C12.4678 13.0312 12.127 12.9258 11.6875 12.9258C11.4004 12.9258 11.1436 12.9873 10.917 13.1104C10.6904 13.2314 10.5146 13.3994 10.3896 13.6143C10.3505 13.6826 10.3176 13.7533 10.2909 13.8262C10.2337 13.9824 10.2051 14.1491 10.2051 14.3262H11.0547C11.0547 14.1113 11.1094 13.9385 11.2188 13.8076C11.3301 13.6748 11.4814 13.6084 11.6729 13.6084C11.8506 13.6084 11.9873 13.6631 12.083 13.7725C12.1787 13.8799 12.2266 14.0283 12.2266 14.2178C12.2266 14.3564 12.1807 14.5029 12.0889 14.6572C11.999 14.8115 11.8594 14.9922 11.6699 15.1992L10.29 16.6699V17.25H13.2139V16.5674H11.3799Z" fill="#81A5B0"/>
</svg>
