<svg width="24" height="24" viewBox="0 0 24 24" fill="none" xmlns="http://www.w3.org/2000/svg">
<path d="M9.14614 2.24275C9.05578 2.09215 8.89302 2 8.71739 2H3.88358C3.49494 2 3.25488 2.42399 3.45484 2.75725L8.85484 11.7572C8.9452 11.9079 9.10795 12 9.28358 12H14.1174C14.506 12 14.7461 11.576 14.5461 11.2428L9.14614 2.24275Z" fill="#C52229"/>
<path fill-rule="evenodd" clip-rule="evenodd" d="M8.7176 1.5H3.88379C3.10649 1.5 2.62638 2.34797 3.02629 3.0145L8.42629 12.0145C8.60702 12.3157 8.93252 12.5 9.28379 12.5H14.1176C14.8949 12.5 15.375 11.652 14.9751 10.9855L9.57509 1.9855C9.39437 1.6843 9.06886 1.5 8.7176 1.5ZM8.7176 2C8.89323 2 9.05598 2.09215 9.14634 2.24275L14.5463 11.2428C14.7463 11.576 14.5062 12 14.1176 12H9.28379C9.10816 12 8.9454 11.9079 8.85504 11.7572L3.45504 2.75725C3.25508 2.42399 3.49514 2 3.88379 2H8.7176Z" fill="#9B0F15"/>
<path d="M14.3548 2.24275C14.4452 2.09215 14.608 2 14.7836 2H19.6174C20.006 2 20.2461 2.42399 20.0461 2.75725L14.6461 11.7572C14.5558 11.9079 14.393 12 14.2174 12H9.38358C8.99494 12 8.75488 11.576 8.95484 11.2428L14.3548 2.24275Z" fill="#F1333B"/>
<path fill-rule="evenodd" clip-rule="evenodd" d="M14.7834 1.5H19.6172C20.3945 1.5 20.8746 2.34797 20.4747 3.0145L15.0747 12.0145C14.894 12.3157 14.5685 12.5 14.2172 12.5H9.38338C8.60609 12.5 8.12597 11.652 8.52589 10.9855L13.9259 1.9855C14.1066 1.6843 14.4321 1.5 14.7834 1.5ZM14.7834 2C14.6077 2 14.445 2.09215 14.3546 2.24275L8.95463 11.2428C8.75468 11.576 8.99473 12 9.38338 12H14.2172C14.3928 12 14.5556 11.9079 14.6459 11.7572L20.0459 2.75725C20.2459 2.42399 20.0058 2 19.6172 2H14.7834Z" fill="#9B0F15"/>
<path fill-rule="evenodd" clip-rule="evenodd" d="M14.8756 2.28384C14.995 2.35317 15.0356 2.50617 14.9662 2.62557L12.7162 6.50057C12.6469 6.61998 12.4939 6.66057 12.3745 6.59124C12.2551 6.52191 12.2145 6.36891 12.2838 6.24951L14.5338 2.37451C14.6032 2.2551 14.7562 2.21451 14.8756 2.28384Z" fill="#FE666D"/>
<path fill-rule="evenodd" clip-rule="evenodd" d="M3.87442 2.28384C3.75502 2.35317 3.71443 2.50617 3.78376 2.62557L6.03376 6.50057C6.10309 6.61998 6.25609 6.66057 6.37549 6.59124C6.4949 6.52191 6.53549 6.36891 6.46616 6.24951L4.21616 2.37451C4.14683 2.2551 3.99383 2.21451 3.87442 2.28384Z" fill="#DF3840"/>
<path d="M8.625 2.82031C8.625 2.99722 8.48509 3.14062 8.3125 3.14062C8.13991 3.14062 8 2.99722 8 2.82031C8 2.64341 8.13991 2.5 8.3125 2.5C8.48509 2.5 8.625 2.64341 8.625 2.82031Z" fill="#AA161D"/>
<path d="M7.52744 2.89844C7.52744 3.11849 7.3534 3.29688 7.13872 3.29688C6.92404 3.29688 6.75 3.11849 6.75 2.89844C6.75 2.67839 6.92404 2.5 7.13872 2.5C7.3534 2.5 7.52744 2.67839 7.52744 2.89844Z" fill="#AA161D"/>
<path d="M8.5001 4.03906C8.5001 4.25911 8.32606 4.4375 8.11138 4.4375C7.89669 4.4375 7.72266 4.25911 7.72266 4.03906C7.72266 3.81901 7.89669 3.64062 8.11138 3.64062C8.32606 3.64062 8.5001 3.81901 8.5001 4.03906Z" fill="#AA161D"/>
<path d="M9.38872 3.49609C9.38872 3.60612 9.3017 3.69531 9.19436 3.69531C9.08702 3.69531 9 3.60612 9 3.49609C9 3.38607 9.08702 3.29688 9.19436 3.29688C9.3017 3.29688 9.38872 3.38607 9.38872 3.49609Z" fill="#AA161D"/>
<path d="M7.33306 3.83984C7.33306 3.94987 7.24604 4.03906 7.1387 4.03906C7.03135 4.03906 6.94434 3.94987 6.94434 3.83984C6.94434 3.72982 7.03135 3.64062 7.1387 3.64062C7.24604 3.64062 7.33306 3.72982 7.33306 3.83984Z" fill="#AA161D"/>
<path d="M6.25005 2.62109C6.25005 2.73112 6.16303 2.82031 6.05569 2.82031C5.94835 2.82031 5.86133 2.73112 5.86133 2.62109C5.86133 2.51107 5.94835 2.42188 6.05569 2.42188C6.16303 2.42188 6.25005 2.51107 6.25005 2.62109Z" fill="#AA161D"/>
<path d="M9.19438 4.88672C9.19438 4.99674 9.10737 5.08594 9.00002 5.08594C8.89268 5.08594 8.80566 4.99674 8.80566 4.88672C8.80566 4.77669 8.89268 4.6875 9.00002 4.6875C9.10737 4.6875 9.19438 4.77669 9.19438 4.88672Z" fill="#AA161D"/>
<path d="M8.19438 5.08594C8.19438 5.19596 8.10737 5.28516 8.00002 5.28516C7.89268 5.28516 7.80566 5.19596 7.80566 5.08594C7.80566 4.97591 7.89268 4.88672 8.00002 4.88672C8.10737 4.88672 8.19438 4.97591 8.19438 5.08594Z" fill="#AA161D"/>
<path d="M10.1326 4.36328C10.1326 4.54234 9.991 4.6875 9.81631 4.6875C9.64162 4.6875 9.5 4.54234 9.5 4.36328C9.5 4.18422 9.64162 4.03906 9.81631 4.03906C9.991 4.03906 10.1326 4.18422 10.1326 4.36328Z" fill="#AA161D"/>
<path d="M10.545 5.28516C10.545 5.39518 10.458 5.48438 10.3506 5.48438C10.2433 5.48438 10.1562 5.39518 10.1562 5.28516C10.1562 5.17513 10.2433 5.08594 10.3506 5.08594C10.458 5.08594 10.545 5.17513 10.545 5.28516Z" fill="#AA161D"/>
<path d="M18.5 15.25C18.5 18.9779 15.4779 22 11.75 22C8.02208 22 5 18.9779 5 15.25C5 11.5221 8.02208 8.5 11.75 8.5C15.4779 8.5 18.5 11.5221 18.5 15.25Z" fill="#DCA16A"/>
<path fill-rule="evenodd" clip-rule="evenodd" d="M19 15.25C19 19.2541 15.7541 22.5 11.75 22.5C7.74594 22.5 4.5 19.2541 4.5 15.25C4.5 11.2459 7.74594 8 11.75 8C15.7541 8 19 11.2459 19 15.25ZM11.75 22C15.4779 22 18.5 18.9779 18.5 15.25C18.5 11.5221 15.4779 8.5 11.75 8.5C8.02208 8.5 5 11.5221 5 15.25C5 18.9779 8.02208 22 11.75 22Z" fill="#C38144"/>
<path fill-rule="evenodd" clip-rule="evenodd" d="M5.5 15.5C5.36193 15.5 5.25 15.3881 5.25 15.25C5.25 11.6601 8.16015 8.75 11.75 8.75C11.8881 8.75 12 8.86193 12 9C12 9.13807 11.8881 9.25 11.75 9.25C8.43629 9.25 5.75 11.9363 5.75 15.25C5.75 15.3881 5.63807 15.5 5.5 15.5Z" fill="#F0B57F"/>
<path fill-rule="evenodd" clip-rule="evenodd" d="M18 15C18.1381 15 18.25 15.1119 18.25 15.25C18.25 18.8399 15.3399 21.75 11.75 21.75C11.6119 21.75 11.5 21.6381 11.5 21.5C11.5 21.3619 11.6119 21.25 11.75 21.25C15.0637 21.25 17.75 18.5637 17.75 15.25C17.75 15.1119 17.8619 15 18 15Z" fill="#CF945D"/>
<path d="M16.75 15.25C16.75 18.0114 14.5114 20.25 11.75 20.25C8.98858 20.25 6.75 18.0114 6.75 15.25C6.75 12.4886 8.98858 10.25 11.75 10.25C14.5114 10.25 16.75 12.4886 16.75 15.25Z" fill="#F7BA82"/>
<path fill-rule="evenodd" clip-rule="evenodd" d="M17.25 15.25C17.25 18.2876 14.7876 20.75 11.75 20.75C8.71243 20.75 6.25 18.2876 6.25 15.25C6.25 12.2124 8.71243 9.75 11.75 9.75C14.7876 9.75 17.25 12.2124 17.25 15.25ZM11.75 20.25C14.5114 20.25 16.75 18.0114 16.75 15.25C16.75 12.4886 14.5114 10.25 11.75 10.25C8.98858 10.25 6.75 12.4886 6.75 15.25C6.75 18.0114 8.98858 20.25 11.75 20.25Z" fill="#C38144"/>
<path fill-rule="evenodd" clip-rule="evenodd" d="M11.75 19.5C14.0972 19.5 16 17.5972 16 15.25C16 15.1119 16.1119 15 16.25 15C16.3881 15 16.5 15.1119 16.5 15.25C16.5 17.8734 14.3734 20 11.75 20C11.6119 20 11.5 19.8881 11.5 19.75C11.5 19.6119 11.6119 19.5 11.75 19.5Z" fill="#E6A66C"/>
<path fill-rule="evenodd" clip-rule="evenodd" d="M11.75 11C9.40279 11 7.5 12.9028 7.5 15.25C7.5 15.3881 7.38807 15.5 7.25 15.5C7.11193 15.5 7 15.3881 7 15.25C7 12.6266 9.12665 10.5 11.75 10.5C11.8881 10.5 12 10.6119 12 10.75C12 10.8881 11.8881 11 11.75 11Z" fill="#FFD5AE"/>
<path d="M11.1514 14.7422H11.6025C11.8174 14.7422 11.9766 14.6885 12.0801 14.5811C12.1836 14.4736 12.2354 14.3311 12.2354 14.1533C12.2354 13.9814 12.1836 13.8477 12.0801 13.752C11.9785 13.6562 11.8379 13.6084 11.6582 13.6084C11.4961 13.6084 11.3604 13.6533 11.251 13.7432C11.1416 13.8311 11.0869 13.9463 11.0869 14.0889H10.2402C10.2402 13.8662 10.2998 13.667 10.4189 13.4912C10.54 13.3135 10.708 13.1748 10.9229 13.0752C11.1396 12.9756 11.3779 12.9258 11.6377 12.9258C12.0889 12.9258 12.4424 13.0342 12.6982 13.251C12.9541 13.4658 13.082 13.7627 13.082 14.1416C13.082 14.3369 13.0225 14.5166 12.9033 14.6807C12.7842 14.8447 12.6279 14.9707 12.4346 15.0586C12.6748 15.1445 12.8535 15.2734 12.9707 15.4453C13.0898 15.6172 13.1494 15.8203 13.1494 16.0547C13.1494 16.4336 13.0107 16.7373 12.7334 16.9658C12.458 17.1943 12.0928 17.3086 11.6377 17.3086C11.2119 17.3086 10.8633 17.1963 10.5918 16.9717C10.3223 16.7471 10.1875 16.4502 10.1875 16.0811H11.0342C11.0342 16.2412 11.0938 16.3721 11.2129 16.4736C11.334 16.5752 11.4824 16.626 11.6582 16.626C11.8594 16.626 12.0166 16.5732 12.1299 16.4678C12.2451 16.3604 12.3027 16.2188 12.3027 16.043C12.3027 15.6172 12.0684 15.4043 11.5996 15.4043H11.1514V14.7422Z" fill="#FFD5AE"/>
<path fill-rule="evenodd" clip-rule="evenodd" d="M10.6753 14.5889H10.2402C9.96409 14.5889 9.74023 14.365 9.74023 14.0889C9.74023 13.7713 9.82699 13.4734 10.0051 13.2107L10.0057 13.2097C10.1827 12.9499 10.4243 12.7552 10.7125 12.6216L10.7141 12.6209C11.002 12.4886 11.3123 12.4258 11.6377 12.4258C12.1657 12.4258 12.6475 12.5531 13.0206 12.8688C13.405 13.192 13.582 13.6375 13.582 14.1416C13.582 14.4467 13.4865 14.7285 13.3079 14.9745C13.2963 14.9904 13.2845 15.0061 13.2725 15.0215C13.3118 15.0654 13.3487 15.1122 13.3827 15.162C13.566 15.4271 13.6494 15.7319 13.6494 16.0547C13.6494 16.5733 13.4512 17.0219 13.0521 17.3511C12.6649 17.6721 12.1767 17.8086 11.6377 17.8086C11.1207 17.8086 10.6519 17.6703 10.2731 17.3569L10.2717 17.3558C9.88153 17.0306 9.6875 16.5897 9.6875 16.0811C9.6875 15.8049 9.91136 15.5811 10.1875 15.5811H10.6835C10.6627 15.5261 10.6514 15.4665 10.6514 15.4043V14.7422C10.6514 14.6887 10.6598 14.6372 10.6753 14.5889ZM11.502 15.9043C11.5228 15.9593 11.5342 16.0188 11.5342 16.0811C11.5342 16.0852 11.5344 16.0884 11.5346 16.0907C11.535 16.0911 11.5354 16.0915 11.5359 16.092C11.5567 16.109 11.5878 16.126 11.6582 16.126C11.7159 16.126 11.7502 16.1183 11.768 16.1124C11.7828 16.1074 11.7877 16.1032 11.7889 16.102M11.2129 16.4736C11.0938 16.3721 11.0342 16.2412 11.0342 16.0811H10.1875C10.1875 16.2658 10.2213 16.4325 10.2888 16.5811C10.3562 16.7293 10.4572 16.8595 10.5918 16.9717C10.8633 17.1963 11.2119 17.3086 11.6377 17.3086C12.0928 17.3086 12.458 17.1943 12.7334 16.9658C13.0107 16.7373 13.1494 16.4336 13.1494 16.0547C13.1494 15.8203 13.0898 15.6172 12.9707 15.4453C12.9514 15.417 12.9304 15.3899 12.9078 15.3639C12.793 15.2322 12.6353 15.1304 12.4346 15.0586C12.6154 14.9764 12.7638 14.8609 12.8797 14.712C12.8878 14.7017 12.8956 14.6913 12.9033 14.6807C13.0225 14.5166 13.082 14.3369 13.082 14.1416C13.082 13.7627 12.9541 13.4658 12.6982 13.251C12.4424 13.0342 12.0889 12.9258 11.6377 12.9258C11.3779 12.9258 11.1396 12.9756 10.9229 13.0752C10.708 13.1748 10.54 13.3135 10.4189 13.4912C10.3974 13.523 10.3778 13.5555 10.3602 13.5889C10.2802 13.7398 10.2402 13.9065 10.2402 14.0889H11.0869C11.0869 13.9463 11.1416 13.8311 11.251 13.7432C11.3604 13.6533 11.4961 13.6084 11.6582 13.6084C11.8379 13.6084 11.9785 13.6562 12.0801 13.752C12.1836 13.8477 12.2354 13.9814 12.2354 14.1533C12.2354 14.3311 12.1836 14.4736 12.0801 14.5811C11.9766 14.6885 11.8174 14.7422 11.6025 14.7422H11.1514V15.4043H11.5996C12.0684 15.4043 12.3027 15.6172 12.3027 16.043C12.3027 16.2188 12.2451 16.3604 12.1299 16.4678C12.0166 16.5732 11.8594 16.626 11.6582 16.626C11.4824 16.626 11.334 16.5752 11.2129 16.4736ZM11.502 15.9043H11.5996C11.7239 15.9043 11.7745 15.9257 11.7883 15.9331C11.7887 15.9338 11.789 15.9347 11.7894 15.9358C11.7941 15.9485 11.8027 15.9811 11.8027 16.043C11.8027 16.0758 11.7975 16.0899 11.7964 16.0926C11.7957 16.0942 11.7952 16.095 11.7948 16.0957C11.7943 16.0964 11.7926 16.0986 11.7889 16.102M11.563 14.2422C11.5756 14.203 11.5835 14.1617 11.586 14.119C11.5992 14.1135 11.6211 14.1084 11.6582 14.1084C11.6981 14.1084 11.7215 14.113 11.7329 14.1162C11.7341 14.1241 11.7354 14.1361 11.7354 14.1533C11.7354 14.1938 11.7295 14.2148 11.7265 14.2229C11.7258 14.2249 11.7252 14.2264 11.7246 14.2277C11.7242 14.2278 11.7237 14.228 11.7232 14.2281C11.7072 14.2336 11.67 14.2422 11.6025 14.2422H11.563Z" fill="#C28044"/>
</svg>
